<svg width="8" height="4" viewBox="0 0 8 4" fill="none" xmlns="http://www.w3.org/2000/svg">
<path d="M7.8773 0.20799C7.69064 -0.0140098 7.35664 -0.0433431 7.13397 0.142657L3.99997 2.77266L0.865971 0.142657C0.643971 -0.0440098 0.309304 -0.0146764 0.122637 0.20799C-0.0640293 0.42999 -0.034696 0.764657 0.187971 0.951324L3.65864 3.86399C3.67864 3.88066 3.7033 3.88666 3.72464 3.89999C3.74864 3.91466 3.7713 3.92866 3.7973 3.93932C3.8333 3.95399 3.86864 3.96332 3.90597 3.96999C3.9373 3.97599 3.96797 3.97999 3.99997 3.97999C4.03197 3.97999 4.06264 3.97599 4.09397 3.96999C4.1313 3.96332 4.16664 3.95399 4.20264 3.93866C4.22797 3.92799 4.2513 3.91399 4.2753 3.89932C4.2973 3.88599 4.3213 3.87999 4.3413 3.86332L7.81197 0.950657C8.03464 0.764657 8.06397 0.42999 7.8773 0.20799Z" fill="black"/>
</svg>
