<svg width="21" height="42" viewBox="0 0 21 42" fill="none" xmlns="http://www.w3.org/2000/svg">
<path opacity="0.8" d="M0.998053 0.645096C-0.179156 1.62504 -0.334703 3.37845 0.651607 4.54738L14.5978 21L0.651609 37.4526C-0.338237 38.6181 -0.182689 40.375 0.998055 41.3549C2.17526 42.3349 3.94992 42.1809 4.93976 41.0119L20.3849 22.7919C20.4733 22.6869 20.5051 22.5574 20.5758 22.4454C20.6536 22.3194 20.7278 22.2004 20.7844 22.0639C20.8621 21.875 20.9116 21.6895 20.947 21.4935C20.9788 21.329 21 21.168 21 21C21 20.832 20.9788 20.671 20.947 20.5065C20.9116 20.3105 20.8621 20.125 20.7808 19.9361C20.7243 19.8031 20.65 19.6806 20.5722 19.5546C20.5015 19.4391 20.4697 19.3131 20.3813 19.2081L4.93622 0.988075C3.94991 -0.180863 2.17526 -0.334854 0.998053 0.645096Z" fill="#DEDEDE"/>
</svg>
