<svg width="8" height="4" viewBox="0 0 8 4" fill="none" xmlns="http://www.w3.org/2000/svg">
<g clip-path="url(#clip0)">
<path d="M7.87746 0.207746C7.69079 -0.0142539 7.35679 -0.0435873 7.13413 0.142413L4.00012 2.77241L0.866124 0.142413C0.644123 -0.0442539 0.309457 -0.0149206 0.12279 0.207746C-0.0638767 0.429746 -0.0345434 0.764413 0.188123 0.95108L3.65879 3.86375C3.67879 3.88041 3.70346 3.88641 3.72479 3.89975C3.74879 3.91441 3.77146 3.92841 3.79746 3.93908C3.83346 3.95375 3.86879 3.96308 3.90612 3.96975C3.93746 3.97575 3.96812 3.97975 4.00012 3.97975C4.03212 3.97975 4.06279 3.97575 4.09412 3.96975C4.13146 3.96308 4.16679 3.95375 4.20279 3.93841C4.22812 3.92775 4.25146 3.91375 4.27546 3.89908C4.29746 3.88575 4.32146 3.87975 4.34146 3.86308L7.81213 0.950413C8.03479 0.764413 8.06413 0.429746 7.87746 0.207746Z" fill="#FF0000"/>
</g>
<defs>
<clipPath id="clip0">
<rect width="8" height="4" fill="white" transform="translate(0.00012207 -0.000488281)"/>
</clipPath>
</defs>
</svg>
