<svg width="7" height="13" viewBox="0 0 7 13" fill="none" xmlns="http://www.w3.org/2000/svg">
<g clip-path="url(#clip0)">
<path d="M0.329376 0.199167C-0.0591239 0.502501 -0.110457 1.04525 0.215043 1.40708L4.81754 6.49983L0.215043 11.5926C-0.111624 11.9533 -0.0602907 12.4972 0.329376 12.8005C0.717876 13.1038 1.30354 13.0562 1.63021 12.6943L6.72738 7.0545C6.75654 7.022 6.76704 6.98192 6.79038 6.94725C6.81604 6.90825 6.84054 6.87142 6.85921 6.82917C6.88488 6.77067 6.90121 6.71325 6.91288 6.65258C6.92338 6.60167 6.93038 6.55183 6.93038 6.49983C6.93038 6.44783 6.92338 6.398 6.91288 6.34708C6.90121 6.28642 6.88488 6.229 6.85804 6.1705C6.83938 6.12933 6.81488 6.09142 6.78921 6.05242C6.76588 6.01667 6.75538 5.97767 6.72621 5.94517L1.62904 0.305333C1.30354 -0.0565004 0.717876 -0.104167 0.329376 0.199167Z" fill="#AAAAAA"/>
</g>
<defs>
<clipPath id="clip0">
<rect width="13" height="7" fill="white" transform="translate(0 13) rotate(-90)"/>
</clipPath>
</defs>
</svg>
