<svg width="13" height="6" viewBox="0 0 13 6" fill="none" xmlns="http://www.w3.org/2000/svg">
    <path d="M12.8003 0.285159C12.497 -0.0511869 11.9543 -0.0956289 11.5925 0.186174L6.5 4.17081L1.40752 0.186174C1.04679 -0.096639 0.502989 -0.0521969 0.199672 0.285159C-0.103645 0.621504 -0.0559812 1.12855 0.305833 1.41136L5.94536 5.82425C5.97786 5.8495 6.01794 5.85859 6.05261 5.87879C6.0916 5.90102 6.12844 5.92223 6.17068 5.93839C6.22918 5.96061 6.28659 5.97475 6.34726 5.98485C6.39817 5.99394 6.448 6 6.5 6C6.552 6 6.60183 5.99394 6.65274 5.98485C6.7134 5.97475 6.77082 5.96061 6.82932 5.93738C6.87048 5.92122 6.90839 5.90001 6.94739 5.87778C6.98314 5.85758 7.02214 5.84849 7.05464 5.82324L12.6942 1.41035C13.056 1.12855 13.1036 0.621504 12.8003 0.285159Z"
          fill="#38466E"/>
</svg>
