<svg width="16" height="15" viewBox="0 0 16 15" fill="none" xmlns="http://www.w3.org/2000/svg">
<path d="M14.965 3.57143H4.13714L2.75071 0.426429C2.63643 0.167143 2.38071 0 2.09714 0H0V1.42857H1.63143L3.33643 5.29643L5.56286 12.3729C5.66071 12.6621 5.93286 12.8571 6.23857 12.8571H14.2857V11.4286H6.75071L6.295 10H13.5093C13.8457 10 14.1407 9.77357 14.2307 9.44571L15.6864 4.53071C15.8193 4.04857 15.4593 3.57143 14.965 3.57143ZM13 8.57143H5.82643L4.73857 5H14.0579L13 8.57143Z" fill="#A3A2A1"/>
<path d="M14.2856 13.5713C14.6806 13.5713 14.9999 13.8906 14.9999 14.2856C14.9999 14.6806 14.6806 14.9999 14.2856 14.9999C13.8913 14.9999 13.5713 14.6806 13.5713 14.2856C13.5713 13.8906 13.8913 13.5713 14.2856 13.5713Z" fill="#A3A2A1"/>
<path d="M6.42864 13.5713C6.82293 13.5713 7.14293 13.8906 7.14293 14.2856C7.14293 14.6806 6.82293 14.9999 6.42864 14.9999C6.03436 14.9999 5.71436 14.6806 5.71436 14.2856C5.71436 13.8906 6.03436 13.5713 6.42864 13.5713Z" fill="#A3A2A1"/>
</svg>
