<svg width="10" height="11" viewBox="0 0 10 11" fill="none" xmlns="http://www.w3.org/2000/svg">
<rect x="9.82322" y="0.833252" width="6.8914" height="0.928384" rx="0.464192" transform="rotate(135 9.82322 0.833252)" fill="#868685" stroke="#868685" stroke-width="0.25"/>
<path d="M9.38617 9.51193C9.20391 9.6942 8.9084 9.6942 8.72613 9.51193L4.60619 5.39199C4.42393 5.20972 4.42393 4.91422 4.60619 4.73195C4.78845 4.54969 5.08396 4.54969 5.26623 4.73195L9.38617 8.8519C9.56843 9.03416 9.56843 9.32967 9.38617 9.51193Z" fill="#868685" stroke="#868685" stroke-width="0.25"/>
<rect x="0.176777" y="9.18555" width="6.8914" height="0.928384" rx="0.464192" transform="rotate(-45 0.176777 9.18555)" fill="#868685" stroke="#868685" stroke-width="0.25"/>
<path d="M0.61383 0.506865C0.796094 0.324601 1.0916 0.324601 1.27387 0.506865L5.39381 4.62681C5.57607 4.80907 5.57607 5.10458 5.39381 5.28685C5.21155 5.46911 4.91604 5.46911 4.73377 5.28685L0.613829 1.1669C0.431565 0.984636 0.431566 0.689129 0.61383 0.506865Z" fill="#868685" stroke="#868685" stroke-width="0.25"/>
</svg>
