<svg width="14" height="14" viewBox="0 0 14 14" fill="none" xmlns="http://www.w3.org/2000/svg">
    <path d="M3.5 10.5L6.21568 10.0342L13.5339 2.716C13.8218 2.42805 14 2.03032 14 1.59091C14 0.712091 13.2879 0 12.4091 0C11.9697 0 11.572 0.178182 11.2843 0.466136L3.96614 7.78432L3.5 10.5ZM11.7342 0.916045C11.907 0.743273 12.1456 0.636364 12.4091 0.636364C12.936 0.636364 13.3636 1.064 13.3636 1.59091C13.3636 1.85436 13.2567 2.09332 13.084 2.26609L12.6725 2.67718L11.3228 1.32745L11.7342 0.916045ZM10.8729 1.77736L12.2226 3.12709L6.36364 8.98641V8.27273V7.63636H5.72727H5.01391L10.8729 1.77736ZM4.54077 8.27273H5.72727V9.45923L4.29545 9.70455L4.54077 8.27273ZM13.6818 4.77273C13.5059 4.77273 13.3636 4.91527 13.3636 5.09091V12.0909C13.3636 12.7938 12.7938 13.3636 12.0909 13.3636H1.90909C1.20623 13.3636 0.636364 12.7938 0.636364 12.0909V1.90909C0.636364 1.20623 1.20623 0.636364 1.90909 0.636364H8.90909C9.08504 0.636364 9.22727 0.494136 9.22727 0.318182C9.22727 0.142545 9.08504 0 8.90909 0H1.90909C0.854636 0 0 0.854955 0 1.90909V12.0909C0 13.1454 0.854636 14 1.90909 14H12.0909C13.1454 14 14 13.1454 14 12.0909V5.09091C14 4.91527 13.8578 4.77273 13.6818 4.77273Z"
          fill="#FF0000"/>
</svg>
