<svg width="16" height="11" viewBox="0 0 16 11" fill="none" xmlns="http://www.w3.org/2000/svg">
<path d="M7.99995 10.2527C12.3158 10.1706 14.3026 7.17638 14.9175 6.00158C15.0692 5.71265 15.0643 5.36431 14.9147 5.07391C12.5954 0.558049 7.99995 0.747982 7.99995 0.747982C7.99995 0.747982 3.40448 0.557315 1.08517 5.07391C0.935606 5.36505 0.931432 5.71265 1.08239 6.00158C1.69735 7.17638 3.68413 10.1706 7.99995 10.2527Z" stroke="#ADADAD"/>
<path d="M7.99997 6.26264C8.39953 6.26264 8.72345 5.92118 8.72345 5.49997C8.72345 5.07876 8.39953 4.7373 7.99997 4.7373C7.6004 4.7373 7.27649 5.07876 7.27649 5.49997C7.27649 5.92118 7.6004 6.26264 7.99997 6.26264Z" fill="#ADADAD" stroke="#ADADAD"/>
<path d="M7.99994 8.40321C9.52098 8.40321 10.754 7.10338 10.754 5.49995C10.754 3.89652 9.52098 2.59668 7.99994 2.59668C6.4789 2.59668 5.24585 3.89652 5.24585 5.49995C5.24585 7.10338 6.4789 8.40321 7.99994 8.40321Z" stroke="#ADADAD"/>
</svg>