<svg width="23" height="21" viewBox="0 0 23 21" fill="none" xmlns="http://www.w3.org/2000/svg">
    <path fill-rule="evenodd" clip-rule="evenodd"
          d="M16.0697 0.874023C19.6309 0.874023 22.5184 3.42086 22.5184 6.56152C22.5184 6.90031 22.4622 7.30135 22.4696 7.23828C21.7525 12.8526 12.5587 20.124 11.6059 20.124C10.653 20.124 1.45926 12.8526 0.742139 7.2383C0.749533 7.30126 0.693359 6.90027 0.693359 6.56152C0.693359 3.42086 3.58086 0.874023 7.14197 0.874023C8.8753 0.874023 10.4475 1.48069 11.6059 2.46419C12.7642 1.48069 14.335 0.874023 16.0697 0.874023ZM0.742139 7.2383C0.741563 7.23339 0.7406 7.22566 0.739193 7.21486C0.740159 7.22267 0.741141 7.23048 0.742139 7.2383ZM11.6769 19.1378C11.6163 19.1326 11.5559 19.1252 11.4958 19.1155C11.5344 19.1378 11.5711 19.1582 11.6059 19.1767C11.6287 19.1645 11.6524 19.1516 11.6769 19.1378Z"
          fill="#FF1113"/>
</svg>
