<svg width="23" height="20" viewBox="0 0 23 20" fill="none" xmlns="http://www.w3.org/2000/svg">
    <path d="M22.3356 6.5625C22.3356 3.42183 19.4481 0.875 15.887 0.875C14.1523 0.875 12.5815 1.48167 11.4231 2.46517C10.2648 1.48167 8.69256 0.875 6.95923 0.875C3.39812 0.875 0.51062 3.42183 0.51062 6.5625C0.51062 6.92767 0.575898 7.36517 0.556453 7.21583C1.2509 12.8333 10.469 20.125 11.4231 20.125C12.3773 20.125 21.5953 12.8333 22.2898 7.21583C22.2703 7.36517 22.3356 6.92767 22.3356 6.5625ZM21.3037 7.12133C20.7245 11.8008 13.2662 18.1965 11.4231 19.1777C9.58006 18.1965 2.12034 11.8008 1.54118 7.11433C1.54118 7.11433 1.50229 6.86233 1.50229 6.56133C1.50229 3.90833 3.9509 1.75 6.95923 1.75C8.37173 1.75 9.71201 2.22717 10.7356 3.09517L11.4231 3.6785L12.1106 3.09517C13.1342 2.22833 14.4745 1.75 15.887 1.75C18.8953 1.75 21.344 3.90833 21.344 6.5625C21.344 6.86817 21.3037 7.12133 21.3037 7.12133Z"
          fill="#FF1113"/>
</svg>
