<svg width="20" height="17" viewBox="0 0 20 17" fill="none" xmlns="http://www.w3.org/2000/svg">
<path d="M18.73 5.3112C18.73 2.76875 16.42 0.707031 13.5711 0.707031C12.1834 0.707031 10.9267 1.19814 10 1.99431C9.07335 1.19814 7.81558 0.707031 6.42891 0.707031C3.58002 0.707031 1.27002 2.76875 1.27002 5.3112C1.27002 5.60681 1.32224 5.96098 1.30669 5.84009C1.86224 10.3876 9.23669 16.2904 10 16.2904C10.7634 16.2904 18.1378 10.3876 18.6934 5.84009C18.6778 5.96098 18.73 5.60681 18.73 5.3112ZM17.9045 5.76359C17.4411 9.55175 11.4745 14.7292 10 15.5235C8.52558 14.7292 2.5578 9.55175 2.09446 5.75792C2.09446 5.75792 2.06335 5.55392 2.06335 5.31025C2.06335 3.16259 4.02224 1.41536 6.42891 1.41536C7.55891 1.41536 8.63113 1.80164 9.45002 2.50431L10 2.97653L10.55 2.50431C11.3689 1.80259 12.4411 1.41536 13.5711 1.41536C15.9778 1.41536 17.9367 3.16259 17.9367 5.3112C17.9367 5.55864 17.9045 5.76359 17.9045 5.76359Z" fill="#FF1113"/>
</svg>
