<svg width="16" height="15" viewBox="0 0 16 15" fill="none" xmlns="http://www.w3.org/2000/svg">
<path d="M16 4.43182C16 1.98409 13.8836 0 11.2727 0C10.0015 0 8.84945 0.734318 8 1.5C7.15055 0.734318 5.99855 0 4.72727 0C2.11636 0 0 1.98409 0 4.43182C0 4.71682 0.048 5.05705 0.0334545 4.9408C0.542545 9.31841 7.3 15 8 15C8.7 15 15.4575 9.31841 15.9665 4.9408C15.9524 5.05705 16 4.71682 16 4.43182ZM15.2436 4.86682C14.8193 8.5142 9.35091 13.4976 8 14.2623C6.64909 13.4976 1.18036 8.51386 0.756 4.86239C0.756 4.86239 0.727273 4.66568 0.727273 4.43182C0.727273 2.3642 2.52182 0.682159 4.72727 0.682159C5.76291 0.682159 6.74582 1.31557 7.496 1.99125L8 2.44534L8.504 1.99125C9.25382 1.31557 10.2371 0.682159 11.2727 0.682159C13.4782 0.682159 15.2727 2.3642 15.2727 4.43182C15.2727 4.66977 15.2436 4.86682 15.2436 4.86682Z" fill="#2E2E2E"/>
</svg>
