<svg width="20" height="17" viewBox="0 0 20 17" fill="none" xmlns="http://www.w3.org/2000/svg">
<path d="M18.73 5.31217C18.73 2.76973 16.42 0.708008 13.5711 0.708008C12.1834 0.708008 10.9267 1.19912 10 1.99529C9.07335 1.19912 7.81558 0.708008 6.42891 0.708008C3.58002 0.708008 1.27002 2.76973 1.27002 5.31217C1.27002 5.60779 1.32224 5.96195 1.30669 5.84106C1.86224 10.3886 9.23669 16.2913 10 16.2913C10.7634 16.2913 18.1378 10.3886 18.6934 5.84106C18.6778 5.96195 18.73 5.60779 18.73 5.31217ZM17.9045 5.76456C17.4411 9.55273 11.4745 14.7302 10 15.5245C8.52558 14.7302 2.5578 9.55273 2.09446 5.7589C2.09446 5.7589 2.06335 5.5549 2.06335 5.31123C2.06335 3.16356 4.02224 1.41634 6.42891 1.41634C7.55891 1.41634 8.63113 1.80262 9.45002 2.50529L10 2.97751L10.55 2.50529C11.3689 1.80356 12.4411 1.41634 13.5711 1.41634C15.9778 1.41634 17.9367 3.16356 17.9367 5.31217C17.9367 5.55962 17.9045 5.76456 17.9045 5.76456Z" fill="#FF1113"/>
<path d="M17.9045 5.76456C17.4411 9.55273 11.4745 14.7302 10 15.5245C8.52558 14.7302 2.5578 9.55273 2.09446 5.7589C2.09446 5.7589 2.06335 5.5549 2.06335 5.31123C2.06335 3.16356 4.02224 1.41634 6.42891 1.41634C7.55891 1.41634 8.63113 1.80262 9.45002 2.50529L10 2.97751L10.55 2.50529C11.3689 1.80356 12.4411 1.41634 13.5711 1.41634C15.9778 1.41634 17.9367 3.16356 17.9367 5.31217C17.9367 5.55962 17.9045 5.76456 17.9045 5.76456Z" fill="#FF1113"/>
</svg>
