<svg width="13" height="13" viewBox="0 0 13 13" fill="none" xmlns="http://www.w3.org/2000/svg">
<g clip-path="url(#clip0)">
<path d="M6.94005 9.1647C6.76974 9.1647 6.64979 9.13575 6.5805 9.07784C6.5112 9.02023 6.47669 8.91179 6.47669 8.75195C6.47669 8.68843 6.48727 8.59507 6.5087 8.47127C6.53013 8.34777 6.55406 8.23757 6.58078 8.14125L6.90972 6.94082C6.94172 6.83091 6.96371 6.70977 6.97567 6.5777C6.98764 6.44564 6.99376 6.35345 6.99376 6.30086C6.99376 6.04795 6.90749 5.84232 6.73551 5.68395C6.56324 5.52589 6.31835 5.4467 6.00081 5.4467C5.82466 5.4467 5.63764 5.47891 5.44006 5.54361C5.24247 5.60832 5.0357 5.68602 4.81946 5.77673L4.73152 6.14811C4.79553 6.1233 4.87234 6.09729 4.96223 6.06952C5.05184 6.04205 5.13922 6.02845 5.22494 6.02845C5.39887 6.02845 5.51631 6.05889 5.57781 6.11916C5.63931 6.17973 5.66993 6.28698 5.66993 6.4412C5.66993 6.5263 5.65991 6.62054 5.63987 6.72366C5.61983 6.82677 5.59507 6.93639 5.56557 7.05161L5.23523 8.25648C5.20601 8.38293 5.18458 8.49639 5.17123 8.59684C5.15787 8.697 5.15119 8.79568 5.15119 8.8917C5.15119 9.13929 5.23969 9.34345 5.41724 9.50448C5.59451 9.6652 5.8433 9.74557 6.16306 9.74557C6.37122 9.74557 6.5535 9.7172 6.71102 9.66107C6.86825 9.60493 7.07892 9.52279 7.34302 9.41555L7.43096 9.04416C7.3856 9.06632 7.31241 9.09143 7.21139 9.12068C7.11037 9.15023 7.01992 9.1647 6.94005 9.1647ZM6.73133 3.24764C6.51538 3.24764 6.33003 3.3218 6.1753 3.47041C6.02057 3.61902 5.94349 3.79777 5.94349 4.00666C5.94349 4.21584 6.02057 4.394 6.1753 4.54114C6.32976 4.68827 6.5151 4.76184 6.73133 4.76184C6.94729 4.76184 7.13179 4.68827 7.28513 4.54114C7.43847 4.394 7.515 4.21584 7.515 4.00666C7.515 3.79777 7.43847 3.61902 7.28513 3.47041C7.13207 3.3218 6.94729 3.24764 6.73133 3.24764ZM6.12243 0C2.74118 0 0 2.91052 0 6.5C0 10.0898 2.74118 13 6.12243 13C9.50368 13 12.2449 10.0898 12.2449 6.5C12.2449 2.91052 9.50368 0 6.12243 0ZM6.12243 12.4091C3.04841 12.4091 0.556584 9.76359 0.556584 6.5C0.556584 3.23641 3.04841 0.590909 6.12243 0.590909C9.19644 0.590909 11.6883 3.23641 11.6883 6.5C11.6883 9.76359 9.19644 12.4091 6.12243 12.4091Z" fill="#38466E"/>
</g>
<defs>
<clipPath id="clip0">
<rect width="12.2449" height="13" fill="white"/>
</clipPath>
</defs>
</svg>
