<svg width="13" height="13" viewBox="0 0 13 13" fill="none" xmlns="http://www.w3.org/2000/svg">
    <mask id="path-1-inside-1" fill="white">
        <path d="M6.92285 0.22168C3.60668 0.22168 0.922852 2.9052 0.922852 6.22168C0.922852 9.53785 3.60637 12.2217 6.92285 12.2217C10.239 12.2217 12.9229 9.53816 12.9229 6.22168C12.9229 2.90551 10.2393 0.22168 6.92285 0.22168ZM6.92285 11.4217C4.05558 11.4217 1.72284 9.08898 1.72284 6.22168C1.72284 3.35438 4.05558 1.02167 6.92285 1.02167C9.79012 1.02167 12.1229 3.35441 12.1229 6.22168C12.1229 9.08895 9.79012 11.4217 6.92285 11.4217Z"/>
    </mask>
    <path d="M6.92285 -0.77832C3.05443 -0.77832 -0.0771484 2.35289 -0.0771484 6.22168H1.92285C1.92285 3.45752 4.15893 1.22168 6.92285 1.22168V-0.77832ZM-0.0771484 6.22168C-0.0771484 10.0901 3.05406 13.2217 6.92285 13.2217V11.2217C4.15869 11.2217 1.92285 8.9856 1.92285 6.22168H-0.0771484ZM6.92285 13.2217C10.7913 13.2217 13.9229 10.0905 13.9229 6.22168H11.9229C11.9229 8.98584 9.68677 11.2217 6.92285 11.2217V13.2217ZM13.9229 6.22168C13.9229 2.35326 10.7916 -0.77832 6.92285 -0.77832V1.22168C9.68701 1.22168 11.9229 3.45776 11.9229 6.22168H13.9229ZM6.92285 10.4217C4.60786 10.4217 2.72284 8.53669 2.72284 6.22168H0.722844C0.722844 9.64126 3.5033 12.4217 6.92285 12.4217V10.4217ZM2.72284 6.22168C2.72284 3.90667 4.60786 2.02167 6.92285 2.02167V0.0216719C3.5033 0.0216719 0.722844 2.8021 0.722844 6.22168H2.72284ZM6.92285 2.02167C9.23784 2.02167 11.1229 3.90669 11.1229 6.22168H13.1229C13.1229 2.80212 10.3424 0.0216719 6.92285 0.0216719V2.02167ZM11.1229 6.22168C11.1229 8.53667 9.23784 10.4217 6.92285 10.4217V12.4217C10.3424 12.4217 13.1229 9.64124 13.1229 6.22168H11.1229Z"
          fill="#A3A2A1" mask="url(#path-1-inside-1)"/>
    <path d="M6.92271 5.81055C6.75615 5.81055 6.62109 5.94558 6.62109 6.11217V8.65648C6.62109 8.82305 6.75613 8.9581 6.92271 8.9581C7.0893 8.9581 7.22433 8.82306 7.22433 8.65648V6.11215C7.22431 5.94557 7.08928 5.81055 6.92271 5.81055Z"
          fill="#A3A2A1"/>
    <path d="M6.92305 4.29688C6.59043 4.29688 6.31982 4.56748 6.31982 4.9001C6.31982 5.23272 6.59043 5.50332 6.92305 5.50332C7.25566 5.50332 7.52627 5.23272 7.52627 4.9001C7.52627 4.56748 7.25566 4.29688 6.92305 4.29688Z" fill="#A3A2A1"/>
</svg>
