<svg width="15" height="16" viewBox="0 0 15 16" fill="none" xmlns="http://www.w3.org/2000/svg">
    <path d="M8.50159 11.436C8.29295 11.436 8.14602 11.4026 8.06114 11.3358C7.97625 11.2693 7.93398 11.1442 7.93398 10.9597C7.93398 10.8864 7.94693 10.7787 7.97318 10.6359C7.99943 10.4934 8.02875 10.3662 8.06148 10.2551L8.46443 8.86996C8.50364 8.74315 8.53057 8.60337 8.54523 8.45099C8.55989 8.2986 8.56739 8.19224 8.56739 8.13156C8.56739 7.83974 8.4617 7.60246 8.25102 7.41974C8.04 7.23735 7.74 7.14599 7.35102 7.14599C7.13523 7.14599 6.90614 7.18315 6.66409 7.25781C6.42205 7.33246 6.16875 7.42212 5.90386 7.52678L5.79614 7.95531C5.87455 7.92667 5.96864 7.89667 6.07875 7.86462C6.18852 7.83292 6.29557 7.81724 6.40057 7.81724C6.61364 7.81724 6.7575 7.85235 6.83284 7.9219C6.90818 7.99178 6.94568 8.11553 6.94568 8.29349C6.94568 8.39167 6.93341 8.50042 6.90886 8.6194C6.88432 8.73837 6.85398 8.86485 6.81784 8.99781L6.41318 10.388C6.37739 10.5339 6.35114 10.6649 6.33477 10.7808C6.31841 10.8963 6.31023 11.0102 6.31023 11.121C6.31023 11.4067 6.41864 11.6422 6.63614 11.828C6.8533 12.0135 7.15807 12.1062 7.54977 12.1062C7.80477 12.1062 8.02807 12.0735 8.22102 12.0087C8.41364 11.9439 8.6717 11.8492 8.99523 11.7254L9.10295 11.2969C9.04739 11.3225 8.95773 11.3514 8.83398 11.3852C8.71023 11.4193 8.59943 11.436 8.50159 11.436ZM8.24591 4.6086C7.98136 4.6086 7.75432 4.69417 7.56477 4.86565C7.37523 5.03712 7.2808 5.24337 7.2808 5.4844C7.2808 5.72576 7.37523 5.93133 7.56477 6.1011C7.75398 6.27087 7.98102 6.35576 8.24591 6.35576C8.51045 6.35576 8.73648 6.27087 8.92432 6.1011C9.11216 5.93133 9.20591 5.72576 9.20591 5.4844C9.20591 5.24337 9.11216 5.03712 8.92432 4.86565C8.73682 4.69417 8.51045 4.6086 8.24591 4.6086ZM7.5 0.861328C3.35795 0.861328 0 4.21962 0 8.36133C0 12.5034 3.35795 15.8613 7.5 15.8613C11.642 15.8613 15 12.5034 15 8.36133C15 4.21962 11.642 0.861328 7.5 0.861328ZM7.5 15.1795C3.73432 15.1795 0.681818 12.127 0.681818 8.36133C0.681818 4.59565 3.73432 1.54315 7.5 1.54315C11.2657 1.54315 14.3182 4.59565 14.3182 8.36133C14.3182 12.127 11.2657 15.1795 7.5 15.1795Z"
          fill="white"/>
</svg>
