<svg width="16" height="16" viewBox="0 0 16 16" fill="none" xmlns="http://www.w3.org/2000/svg">
<path d="M14.55 15.254H2.683C2.294 15.254 1.978 14.939 1.978 14.55V9.606C1.978 9.217 2.294 8.901 2.684 8.901C3.073 8.901 3.388 9.217 3.388 9.606V13.846H13.846V1.41H3.387V5.65C3.387 6.039 3.072 6.354 2.683 6.354C2.294 6.354 1.978 6.039 1.978 5.65V0.705C1.978 0.316 2.294 0 2.683 0H14.55C14.739 0 14.917 0.074 15.051 0.208C15.184 0.341 15.256 0.519 15.255 0.707V14.55C15.255 14.939 14.938 15.254 14.55 15.254ZM9.274 10.969C8.885 10.969 8.57 10.654 8.57 10.265C8.57 10.078 8.642 9.903 8.774 9.769L10.212 8.331H0.704C0.315 8.332 0 8.016 0 7.627C0 7.238 0.315 6.923 0.704 6.923H10.213L8.777 5.489C8.644 5.352 8.571 5.176 8.571 4.99C8.571 4.602 8.886 4.286 9.275 4.286C9.462 4.286 9.644 4.362 9.775 4.494L12.41 7.128C12.544 7.262 12.617 7.44 12.617 7.627C12.617 7.814 12.544 7.992 12.41 8.126L9.773 10.763C9.643 10.895 9.465 10.969 9.274 10.969Z" fill="#A3A2A1"/>
</svg>
