<svg width="15" height="15" viewBox="0 0 15 15" fill="none" xmlns="http://www.w3.org/2000/svg">
<g clip-path="url(#clip0)">
<path d="M6.08543 5.09644C6.14477 5.0371 6.18235 4.95402 6.18235 4.86304C6.18235 4.68106 6.03499 4.5337 5.85302 4.5337C5.76203 4.5337 5.67994 4.5703 5.61961 4.63063L2.98297 7.26826C2.92363 7.3276 2.88605 7.40968 2.88605 7.50166C2.88605 7.59265 2.92264 7.67473 2.98297 7.73506L5.61863 10.3707C5.67796 10.4301 5.76104 10.4676 5.85203 10.4676C6.034 10.4676 6.18136 10.3203 6.18136 10.1383C6.18136 10.0473 6.14477 9.96523 6.08444 9.9049L4.00954 7.83L14.4236 7.83001C14.6056 7.83001 14.7529 7.68265 14.7529 7.50067C14.7529 7.3187 14.6056 7.17134 14.4236 7.17134L4.01053 7.17134L6.08543 5.09644ZM0.577746 14.7529L12.4456 14.7529C12.6276 14.7529 12.775 14.6056 12.775 14.4236L12.775 9.47865C12.775 9.29668 12.6276 9.14932 12.4456 9.14932C12.2636 9.14932 12.1163 9.29668 12.1163 9.47865L12.1163 14.0933L0.90708 14.0933L0.907081 0.90708L12.1153 0.907081L12.1153 5.52269C12.1153 5.70467 12.2627 5.85203 12.4446 5.85203C12.6266 5.85203 12.775 5.70467 12.775 5.52269L12.775 0.577748C12.775 0.395775 12.6276 0.248415 12.4456 0.248415L0.577748 0.248414C0.395773 0.248414 0.248413 0.395774 0.248413 0.577747L0.248412 14.4236C0.247423 14.6056 0.395772 14.7529 0.577746 14.7529Z" fill="#A3A2A1"/>
<path d="M6.08543 5.09644C6.14477 5.0371 6.18235 4.95402 6.18235 4.86304C6.18235 4.68106 6.03499 4.5337 5.85302 4.5337C5.76203 4.5337 5.67994 4.5703 5.61961 4.63063L2.98297 7.26826C2.92363 7.3276 2.88605 7.40968 2.88605 7.50166C2.88605 7.59265 2.92264 7.67473 2.98297 7.73506L5.61863 10.3707C5.67796 10.4301 5.76104 10.4676 5.85203 10.4676C6.034 10.4676 6.18136 10.3203 6.18136 10.1383C6.18136 10.0473 6.14477 9.96523 6.08444 9.9049L4.00954 7.83L14.4236 7.83001C14.6056 7.83001 14.7529 7.68265 14.7529 7.50067C14.7529 7.3187 14.6056 7.17134 14.4236 7.17134L4.01053 7.17134L6.08543 5.09644ZM0.577746 14.7529L12.4456 14.7529C12.6276 14.7529 12.775 14.6056 12.775 14.4236L12.775 9.47865C12.775 9.29668 12.6276 9.14932 12.4456 9.14932C12.2636 9.14932 12.1163 9.29668 12.1163 9.47865L12.1163 14.0933L0.90708 14.0933L0.907081 0.90708L12.1153 0.907081L12.1153 5.52269C12.1153 5.70467 12.2627 5.85203 12.4446 5.85203C12.6266 5.85203 12.775 5.70467 12.775 5.52269L12.775 0.577748C12.775 0.395775 12.6276 0.248415 12.4456 0.248415L0.577748 0.248414C0.395773 0.248414 0.248413 0.395774 0.248413 0.577747L0.248412 14.4236C0.247423 14.6056 0.395772 14.7529 0.577746 14.7529Z" fill="#A3A2A1" stroke="#A3A2A1" stroke-width="0.5" stroke-miterlimit="10"/>
</g>
<defs>
<clipPath id="clip0">
<rect width="15" height="15" fill="white" transform="translate(15 15) rotate(-180)"/>
</clipPath>
</defs>
</svg>
