<svg width="26" height="26" viewBox="0 0 26 26" fill="none" xmlns="http://www.w3.org/2000/svg">
<g clip-path="url(#clip0)">
<path d="M10.1324 8.27916L10.1324 8.27916L9.673 17.6757L9.6504 17.7203C9.65041 17.7203 9.65041 17.7203 9.65042 17.7203C9.72534 17.7583 9.80853 17.777 9.89141 17.777C9.97433 17.777 10.0575 17.7582 10.1324 17.7203L10.1098 17.6757L10.1324 17.7203L18.7133 13.3761C18.863 13.3003 18.9591 13.1578 18.9591 12.9997C18.9591 12.8417 18.863 12.6992 18.7133 12.6234L10.1324 8.27916ZM10.3782 9.40031L17.488 12.9997L10.3782 16.5992V9.40031Z" fill="white" stroke="white" stroke-width="0.1"/>
<path d="M3.77229 22.2276C6.23703 24.6925 9.51429 26.0499 13 26.0499C16.4858 26.0499 19.7631 24.6925 22.2278 22.2277C24.6926 19.7629 26.0501 16.4857 26.0501 13C26.0501 9.51426 24.6926 6.23695 22.2278 3.77222C19.7631 1.30749 16.4858 -0.05 13 -0.05C9.51429 -0.05 6.23703 1.3076 3.77229 3.77222C1.3075 6.23701 -0.05 9.51426 -0.05 13C-0.05 16.4857 1.3075 19.7629 3.77229 22.2276ZM4.59636 4.5964C6.84109 2.35162 9.82544 1.11541 13 1.11541C16.1746 1.11541 19.159 2.35162 21.4037 4.5964C23.6485 6.84117 24.8846 9.82546 24.8846 13C24.8846 16.1746 23.6485 19.1589 21.4037 21.4037C19.159 23.6484 16.1746 24.8845 13 24.8845C9.82544 24.8845 6.84114 23.6484 4.59636 21.4037C2.35163 19.1589 1.11547 16.1746 1.11547 13C1.11547 9.82546 2.35163 6.84111 4.59636 4.5964Z" fill="white" stroke="white" stroke-width="0.1"/>
</g>
<defs>
<clipPath id="clip0">
<rect width="26" height="26" fill="white"/>
</clipPath>
</defs>
</svg>
