<svg width="10" height="10" viewBox="0 0 10 10" fill="none" xmlns="http://www.w3.org/2000/svg">
<path d="M4.99995 10C2.24285 10 -0.00012207 7.75702 -0.00012207 5.00008C-0.00012207 2.24314 2.24285 0 4.99995 0C6.35667 0 7.63786 0.546472 8.57684 1.51278V0.381673C8.57684 0.171268 8.74811 0 8.95852 0C9.16892 0 9.34019 0.171268 9.34019 0.381673V2.58082C9.34019 2.79123 9.16892 2.9625 8.95852 2.9625H6.75921C6.5488 2.9625 6.37753 2.79123 6.37753 2.58082C6.37753 2.37042 6.5488 2.19915 6.75921 2.19915H8.17754C7.37263 1.28265 6.23214 0.763346 4.99995 0.763346C2.66383 0.763346 0.763224 2.66395 0.763224 5.00008C0.763224 7.33621 2.66383 9.23682 4.99995 9.23682C7.33608 9.23682 9.23668 7.33621 9.23668 5.00008C9.23668 4.78968 9.40795 4.61841 9.61836 4.61841C9.82876 4.61841 10 4.78968 10 5.00008C9.99987 7.75702 7.75689 10 4.99995 10Z" fill="#FF0000" />
</svg>
