<svg width="19" height="19" viewBox="0 0 19 19" fill="none" xmlns="http://www.w3.org/2000/svg">
<path opacity="0.4" d="M18.7214 17.3783L12.6377 11.2945C13.5392 10.1108 14.0807 8.64025 14.0807 7.04045C14.0807 3.15875 10.923 0 7.04036 0C3.15871 0 0 3.15875 0 7.04045C0 10.9231 3.15871 14.0809 7.04036 14.0809C8.63919 14.0809 10.1107 13.5394 11.2944 12.6378L17.3781 18.7217C17.5634 18.9069 17.8066 19 18.0498 19C18.293 19 18.5362 18.9069 18.7214 18.7217C19.0929 18.3502 19.0929 17.7498 18.7214 17.3783ZM1.89998 7.04045C1.89998 4.20565 4.2056 1.9 7.04036 1.9C9.87418 1.9 12.1807 4.20565 12.1807 7.04045C12.1807 9.8743 9.87418 12.1809 7.04036 12.1809C4.2056 12.1809 1.89998 9.87525 1.89998 7.04045Z" fill="#918B80"/>
</svg>
