<svg width="19" height="20" viewBox="0 0 19 20" fill="none" xmlns="http://www.w3.org/2000/svg">
<g clip-path="url(#clip0)">
<path d="M9.5 5.34954C7.11507 5.34954 5.18182 7.28322 5.18182 9.66772C5.18182 12.0527 7.11507 13.9859 9.5 13.9859C11.8849 13.9859 13.8182 12.0527 13.8182 9.66772C13.8182 7.28322 11.8849 5.34954 9.5 5.34954ZM9.5 13.1223C7.59223 13.1223 6.04545 11.5755 6.04545 9.66772C6.04545 7.75995 7.59223 6.21318 9.5 6.21318C11.4078 6.21318 12.9545 7.75995 12.9545 9.66772C12.9545 11.5755 11.4078 13.1223 9.5 13.1223ZM18.3665 7.76816L17.4524 7.53929C17.2637 6.83543 16.9843 6.1687 16.6267 5.5525L17.1134 4.74197C17.2628 4.45222 17.3604 4.09338 17.1134 3.84638L15.3218 2.05477C15.2104 1.94293 15.0735 1.89932 14.9314 1.89932C14.7583 1.89932 14.5773 1.96495 14.4262 2.05477L13.6105 2.54402C12.996 2.18907 12.3319 1.91097 11.6302 1.72313L11.4 0.801202C11.3011 0.490725 11.1163 0.167725 10.767 0.167725H8.23348C7.8837 0.167725 7.67945 0.490725 7.6 0.801202L7.36984 1.72313C6.66814 1.91141 6.004 2.18907 5.38952 2.54402L4.57382 2.05477C4.42268 1.96495 4.24175 1.89932 4.06859 1.89932C3.92652 1.89932 3.78964 1.94336 3.67823 2.05477L1.88661 3.84638C1.63961 4.09338 1.7372 4.45222 1.88661 4.74197L2.37327 5.5525C2.01573 6.16827 1.73591 6.835 1.54764 7.53886L0.633477 7.76772C0.323 7.84675 0 8.05143 0 8.4012V10.9342C0 11.2845 0.323 11.4684 0.633477 11.5677L1.54764 11.7962C1.73591 12.5005 2.01573 13.1667 2.37327 13.783L1.88661 14.5939C1.72339 14.8694 1.63961 15.2421 1.88661 15.4895L3.6778 17.2807C3.78705 17.3895 3.91789 17.4318 4.05477 17.4318C4.22836 17.4318 4.41145 17.3645 4.57339 17.2807L5.38909 16.7914C6.00357 17.146 6.6677 17.4245 7.36941 17.6119L7.59957 18.5338C7.67902 18.8447 7.8837 19.1677 8.23305 19.1677H10.7665C11.1163 19.1677 11.3007 18.8447 11.4 18.5342L11.6302 17.6123C12.3319 17.4245 12.996 17.1464 13.6105 16.7919L14.4262 17.2811C14.5881 17.3645 14.7716 17.4322 14.9448 17.4322C15.0817 17.4322 15.2125 17.3899 15.3218 17.2811L17.113 15.4899C17.36 15.2425 17.2762 14.8694 17.113 14.5943L16.6263 13.7834C16.9838 13.1672 17.2637 12.5009 17.4519 11.7966L18.3661 11.5682C18.677 11.4688 19 11.2845 19 10.9347V8.40163C19 8.05143 18.677 7.84675 18.3665 7.76816ZM18.1364 10.7343C18.1329 10.7356 18.1299 10.7373 18.1264 10.7378L17.2425 10.9593C16.9381 11.0353 16.6988 11.2706 16.6181 11.5733C16.4514 12.1943 16.2031 12.7919 15.8797 13.3498C15.7216 13.6219 15.7242 13.9578 15.8862 14.2277L16.362 15.0201L14.8532 16.5289C14.8498 16.5276 14.8468 16.5259 14.8442 16.5241L14.0553 16.0513C13.9188 15.9692 13.7651 15.9282 13.6113 15.9282C13.4624 15.9282 13.3134 15.9667 13.1795 16.044C12.6216 16.3661 12.0257 16.6131 11.4082 16.7785C11.1051 16.8597 10.8693 17.0985 10.7933 17.4033L10.5705 18.2942C10.5692 18.2976 10.5683 18.3006 10.567 18.3041H8.43341L8.20843 17.4025C8.132 17.098 7.89666 16.8588 7.59352 16.778C6.97559 16.6127 6.37968 16.3657 5.82134 16.0435C5.68748 15.9662 5.53893 15.9278 5.38995 15.9278C5.2358 15.9278 5.08207 15.9688 4.94561 16.0509L4.15711 16.5237C4.15409 16.5254 4.15107 16.5272 4.14761 16.5285L2.63841 15.0201L3.11384 14.2273C3.27577 13.9578 3.27836 13.6219 3.12075 13.3498C2.79689 12.7915 2.54816 12.1939 2.38191 11.5733C2.30073 11.2706 2.0615 11.0353 1.7575 10.9593L0.874 10.7378C0.870545 10.7373 0.867091 10.7356 0.863636 10.7343V8.6007L1.75707 8.37745C2.06107 8.30102 2.30073 8.06611 2.38148 7.76254C2.54773 7.14159 2.79645 6.54438 3.12032 5.98604C3.27793 5.714 3.27534 5.37804 3.11341 5.10859L2.64359 4.32397C2.6423 4.32095 2.64057 4.31793 2.63884 4.31491L4.14761 2.80613L4.94475 3.28416C5.0812 3.36577 5.23493 3.40679 5.38909 3.40679C5.53807 3.40679 5.68661 3.36836 5.82091 3.29107C6.37839 2.96893 6.97473 2.72193 7.59266 2.55697C7.8958 2.47579 8.13114 2.23657 8.20757 1.93213L8.43255 1.03136H10.5662C10.5675 1.03482 10.5683 1.03784 10.5696 1.04086L10.7924 1.93213C10.8684 2.23657 11.1042 2.47579 11.4073 2.55697C12.0253 2.72193 12.6207 2.96893 13.1787 3.29107C13.3125 3.36836 13.4611 3.40679 13.6105 3.40679C13.7646 3.40679 13.9179 3.36577 14.0544 3.28416L14.852 2.80613L16.3607 4.31491C16.359 4.31793 16.3577 4.32095 16.356 4.32397L15.8857 5.10729C15.7238 5.37718 15.7212 5.71313 15.8792 5.98518C16.2027 6.54309 16.451 7.14073 16.6177 7.76168C16.6988 8.06525 16.9376 8.30016 17.2421 8.37659L18.1364 8.60027V10.7343Z" fill="#2E2E2E"/>
</g>
<defs>
<clipPath id="clip0">
<rect width="19" height="19" fill="white" transform="translate(0 0.167725)"/>
</clipPath>
</defs>
</svg>
