<svg width="21" height="18" viewBox="0 0 21 18" fill="none" xmlns="http://www.w3.org/2000/svg">
<g clip-path="url(#clip0)">
<path d="M18.854 16.3142L14.2869 11.7471C15.3519 10.519 16.0004 8.92048 16.0004 7.16743C16.0004 3.30182 12.8663 0.167725 9.0002 0.167725C5.13409 0.167725 2 3.30182 2 7.16743C2 11.0335 5.13409 14.1676 9.0002 14.1676C10.7533 14.1676 12.3518 13.5186 13.5793 12.4541L14.2864 13.1611C14.2839 13.1631 14.2819 13.1656 14.2794 13.1676H14.2929L18.1465 17.0217C18.2375 17.1122 18.3625 17.1677 18.5 17.1677C18.7765 17.1677 19 16.9442 19 16.6677C19.0005 16.5302 18.945 16.4047 18.854 16.3142ZM9.0002 13.1676C5.68661 13.1676 3.00003 10.4815 3.00003 7.16743C3.00003 3.85383 5.68661 1.16725 9.0002 1.16725C12.3138 1.16725 15.0004 3.85383 15.0004 7.16743C15.0004 10.4815 12.3138 13.1676 9.0002 13.1676Z" fill="#373737"/>
<path d="M7.1 7.24094C7.1 7.59302 6.81458 7.87844 6.4625 7.87844C6.11042 7.87844 5.825 7.59302 5.825 7.24094C5.825 6.88886 6.11042 6.60344 6.4625 6.60344C6.81458 6.60344 7.1 6.88886 7.1 7.24094Z" fill="#373737"/>
<path d="M9.65 7.24094C9.65 7.59302 9.36458 7.87844 9.0125 7.87844C8.66042 7.87844 8.375 7.59302 8.375 7.24094C8.375 6.88886 8.66042 6.60344 9.0125 6.60344C9.36458 6.60344 9.65 6.88886 9.65 7.24094Z" fill="#373737"/>
<path d="M12.2 7.24094C12.2 7.59302 11.9146 7.87844 11.5625 7.87844C11.2104 7.87844 10.925 7.59302 10.925 7.24094C10.925 6.88886 11.2104 6.60344 11.5625 6.60344C11.9146 6.60344 12.2 6.88886 12.2 7.24094Z" fill="#373737"/>
</g>
<defs>
<clipPath id="clip0">
<rect width="21" height="17" fill="white" transform="translate(0 0.167725)"/>
</clipPath>
</defs>
</svg>
