<svg width="22" height="22" viewBox="0 0 22 22" fill="none" xmlns="http://www.w3.org/2000/svg">
<path d="M21.8112 0.188813C21.6289 0.00645301 21.3554 -0.0496213 21.1161 0.0461132L0.405174 8.33042C0.168202 8.42521 0.00951835 8.65088 0.000408991 8.90598C-0.0086574 9.16105 0.133655 9.39742 0.36328 9.50879L8.53025 13.4697L12.4912 21.6367C12.5992 21.8595 12.8248 22 13.071 22C13.0786 22 13.0863 21.9999 13.094 21.9996C13.349 21.9905 13.5748 21.8318 13.6695 21.5948L21.9539 0.883962C22.0496 0.64454 21.9935 0.371129 21.8112 0.188813ZM2.23839 8.98552L18.6793 2.40918L8.88122 12.2072L2.23839 8.98552ZM13.0145 19.7616L9.79272 13.1187L19.5909 3.32064L13.0145 19.7616Z" fill="white"/>
</svg>
