<svg width="21" height="21" viewBox="0 0 21 21" fill="none" xmlns="http://www.w3.org/2000/svg">
<path d="M20.6921 19.2076L13.968 12.4834C14.9644 11.1751 15.5629 9.54975 15.5629 7.78155C15.5629 3.49125 12.0727 0 7.78145 0C3.49121 0 0 3.49125 0 7.78155C0 12.0729 3.49121 15.5631 7.78145 15.5631C9.54858 15.5631 11.175 14.9646 12.4833 13.9681L19.2074 20.6924C19.4122 20.8971 19.681 21 19.9497 21C20.2185 21 20.4873 20.8971 20.6921 20.6924C21.1026 20.2818 21.1026 19.6182 20.6921 19.2076ZM2.09997 7.78155C2.09997 4.64835 4.64829 2.1 7.78145 2.1C10.9136 2.1 13.4629 4.64835 13.4629 7.78155C13.4629 10.9137 10.9136 13.4631 7.78145 13.4631C4.64829 13.4631 2.09997 10.9147 2.09997 7.78155Z" fill="#868685"/>
</svg>
