<svg width="39" height="39" viewBox="0 0 39 39" fill="none" xmlns="http://www.w3.org/2000/svg">
    <path d="M38.5279 19.9282C38.7723 19.6837 38.7723 19.287 38.5279 19.0425C38.4597 18.9743 38.3786 18.9296 38.2927 18.8995L38.294 18.8955L11.7519 8.27817C11.7519 8.27817 11.7483 8.2764 11.7461 8.27596L11.7231 8.2671L11.7218 8.27109C11.5017 8.19359 11.247 8.23832 11.0712 8.41413C10.8702 8.61518 10.8436 8.91455 10.9734 9.15236L10.9641 9.15723L15.2681 19.4858L10.9641 29.8144L10.9734 29.8192C10.844 30.0557 10.8702 30.3555 11.0712 30.5566C11.2475 30.7328 11.5012 30.7776 11.7218 30.6996L11.7235 30.704L11.7466 30.6952C11.7466 30.6952 11.7501 30.6934 11.7523 30.693L38.2945 20.0757L38.2918 20.0686C38.3773 20.0398 38.4597 19.9964 38.5279 19.9282ZM12.6611 9.98979L34.8345 18.8592L16.3562 18.8592L12.6611 9.98979ZM12.6606 28.9814L16.3562 20.1115L34.8341 20.112L12.6606 28.9814Z"
          fill="#868685"/>
</svg>
