<svg width="14" height="14" viewBox="0 0 14 14" fill="none" xmlns="http://www.w3.org/2000/svg">
<path d="M13.7853 12.7974L9.30878 8.32087C9.97238 7.45007 10.3707 6.36787 10.3707 5.19047C10.3707 2.33447 8.04738 0.00976562 5.18998 0.00976562C2.33398 0.00976562 0.00927734 2.33377 0.00927734 5.19047C0.00927734 8.04717 2.33328 10.3712 5.18998 10.3712C6.36668 10.3712 7.44958 9.97287 8.32038 9.30927L12.7969 13.7858C12.9334 13.9223 13.1119 13.9909 13.2911 13.9909C13.4703 13.9909 13.6488 13.9223 13.7853 13.7858C14.059 13.5121 14.059 13.0704 13.7853 12.7974ZM1.40788 5.19047C1.40788 3.10447 3.10468 1.40767 5.19068 1.40767C7.27598 1.40767 8.97348 3.10447 8.97348 5.19047C8.97348 7.27577 7.27598 8.97327 5.19068 8.97327C3.10468 8.97257 1.40788 7.27577 1.40788 5.19047Z" fill="#A3A2A1"/>
</svg>
