<svg width="152" height="147" viewBox="0 0 152 147" fill="none" xmlns="http://www.w3.org/2000/svg">
    <path d="M27.2122 122.404C42.2411 122.404 54.4245 110.359 54.4245 95.5017C54.4245 80.6442 42.2411 68.5998 27.2122 68.5998C12.1833 68.5998 0 80.6442 0 95.5017C0 110.359 12.1833 122.404 27.2122 122.404Z"
          fill="#F7F7F6"/>
    <path d="M96.7984 147C109.68 147 120.123 136.676 120.123 123.941C120.123 111.206 109.68 100.882 96.7984 100.882C83.9165 100.882 73.4736 111.206 73.4736 123.941C73.4736 136.676 83.9165 147 96.7984 147Z"
          fill="#F7F7F6"/>
    <path d="M113.126 76.8626C134.595 76.8626 152 59.6563 152 38.4313C152 17.2063 134.595 0 113.126 0C91.6557 0 74.251 17.2063 74.251 38.4313C74.251 59.6563 91.6557 76.8626 113.126 76.8626Z"
          fill="#F7F7F6"/>
    <path d="M124.788 114.718H113.125L115.069 133.933H122.844L124.788 114.718Z" fill="#DEDEDE"/>
    <path d="M120.9 114.718H113.125L115.069 133.933H118.957L120.9 114.718Z" fill="white"/>
    <path d="M122.843 135.47H115.068C114.291 135.47 113.707 134.894 113.707 134.125L111.764 114.91C111.764 114.525 111.764 114.141 112.152 113.757C112.347 113.372 112.736 113.372 113.319 113.372H124.981C125.37 113.372 125.759 113.565 126.147 113.757C126.342 114.141 126.536 114.525 126.536 114.91L124.592 134.125C124.398 134.894 123.62 135.47 122.843 135.47ZM116.429 132.588H121.482L123.037 116.255H114.679L116.429 132.588Z"
          fill="#C8C8C8"/>
    <path d="M60.6443 114.718H48.9819L50.9257 133.933H58.7006L60.6443 114.718Z" fill="#DEDEDE"/>
    <path d="M56.7569 114.718H48.9819L50.9257 133.933H54.8131L56.7569 114.718Z" fill="white"/>
    <path d="M58.7009 135.47H50.9259C50.1484 135.47 49.5653 134.894 49.5653 134.125L47.6216 114.91C47.6216 114.525 47.6216 114.141 48.0103 113.757C48.2047 113.372 48.5934 113.372 49.1766 113.372H60.839C61.2277 113.372 61.6164 113.565 62.0052 113.757C62.1996 114.141 62.3939 114.525 62.3939 114.91L60.4502 134.125C60.2558 134.894 59.4783 135.47 58.7009 135.47ZM52.2865 132.588H57.3402L58.8952 116.255H50.5372L52.2865 132.588Z"
          fill="#C8C8C8"/>
    <path d="M118.956 141.619C124.324 141.619 128.675 137.318 128.675 132.011C128.675 126.705 124.324 122.404 118.956 122.404C113.589 122.404 109.238 126.705 109.238 132.011C109.238 137.318 113.589 141.619 118.956 141.619Z"
          fill="white"/>
    <path d="M123.621 123.749C124.398 125.094 124.787 126.631 124.787 128.361C124.787 133.741 120.511 137.968 115.068 137.968C113.319 137.968 111.764 137.584 110.403 136.815C111.958 139.89 115.263 141.812 118.956 141.812C124.398 141.812 128.674 137.584 128.674 132.204C128.674 128.553 126.731 125.286 123.621 123.749Z"
          fill="#DEDEDE"/>
    <path d="M118.956 133.933C120.029 133.933 120.9 133.073 120.9 132.011C120.9 130.95 120.029 130.09 118.956 130.09C117.882 130.09 117.012 130.95 117.012 132.011C117.012 133.073 117.882 133.933 118.956 133.933Z"
          fill="#C8C8C8"/>
    <path d="M118.955 143.157C112.735 143.157 107.682 138.161 107.682 132.012C107.682 125.863 112.735 120.866 118.955 120.866C125.175 120.866 130.229 125.863 130.229 132.012C130.229 138.161 125.175 143.157 118.955 143.157ZM118.955 123.941C114.485 123.941 110.597 127.592 110.597 132.204C110.597 136.623 114.29 140.466 118.955 140.466C123.426 140.466 127.313 136.815 127.313 132.204C127.313 127.592 123.62 123.941 118.955 123.941Z"
          fill="#C8C8C8"/>
    <path d="M54.8129 141.619C60.1803 141.619 64.5315 137.318 64.5315 132.011C64.5315 126.705 60.1803 122.404 54.8129 122.404C49.4454 122.404 45.0942 126.705 45.0942 132.011C45.0942 137.318 49.4454 141.619 54.8129 141.619Z"
          fill="white"/>
    <path d="M59.4771 123.749C60.2546 125.094 60.6434 126.631 60.6434 128.361C60.6434 133.741 56.3672 137.968 50.9247 137.968C49.1754 137.968 47.6204 137.584 46.2598 136.815C47.8148 139.89 51.1191 141.812 54.8122 141.812C60.2546 141.812 64.5308 137.584 64.5308 132.204C64.5308 128.553 62.5871 125.286 59.4771 123.749Z"
          fill="#DEDEDE"/>
    <path d="M54.8134 133.933C55.8869 133.933 56.7571 133.073 56.7571 132.011C56.7571 130.95 55.8869 130.09 54.8134 130.09C53.7399 130.09 52.8696 130.95 52.8696 132.011C52.8696 133.073 53.7399 133.933 54.8134 133.933Z"
          fill="#C8C8C8"/>
    <path d="M54.8132 143.157C48.5933 143.157 43.5396 138.161 43.5396 132.012C43.5396 125.863 48.5933 120.866 54.8132 120.866C61.0331 120.866 66.0868 125.863 66.0868 132.012C66.0868 138.161 61.0331 143.157 54.8132 143.157ZM54.8132 123.941C50.3426 123.941 46.4551 127.592 46.4551 132.204C46.4551 136.623 50.1482 140.466 54.8132 140.466C59.2838 140.466 63.1712 136.815 63.1712 132.204C63.1712 127.592 59.4781 123.941 54.8132 123.941Z"
          fill="#C8C8C8"/>
    <path d="M130.813 116.255H44.5118C42.1793 116.255 40.2356 114.91 39.4581 112.796C38.6806 110.682 39.4581 108.376 41.2075 106.839L47.0387 102.227C47.233 102.035 47.6218 101.843 48.0105 101.843H102.435C103.212 101.843 103.99 102.419 103.99 103.38C103.99 104.149 103.407 104.917 102.435 104.917H48.5937L43.1512 109.337C42.1793 110.106 42.1793 111.259 42.3737 112.027C42.5681 112.796 43.3456 113.565 44.7062 113.565H130.813C131.591 113.565 132.368 114.141 132.368 115.102C132.368 116.063 131.591 116.255 130.813 116.255Z"
          fill="#C8C8C8"/>
    <path d="M48.2041 104.725C47.621 104.725 47.0379 104.341 46.8435 103.572L27.6006 21.9059C27.4062 20.753 26.4343 19.9844 25.2681 19.9844H11.2732C10.3014 20.1765 9.71826 19.6 9.71826 18.6393C9.71826 17.8706 10.3014 17.2942 11.2732 17.2942H25.0737C27.6006 17.2942 29.7387 19.0236 30.3218 21.3294L49.5648 102.996C49.7591 103.765 49.176 104.533 48.3985 104.725H48.2041Z"
          fill="#C8C8C8"/>
    <path d="M114.291 103.188H48.2043L34.5981 45.5409H135.672L123.815 95.6938C122.649 100.113 118.762 103.188 114.291 103.188Z"
          fill="white"/>
    <path d="M125.759 45.541C124.204 73.9802 100.491 96.4625 71.3346 96.4625C61.616 96.4625 52.6748 93.9644 44.8999 89.5448L48.0099 102.996H114.097C118.567 102.996 122.455 99.9213 123.621 95.5017L135.478 45.3488H125.759V45.541Z"
          fill="#DEDEDE"/>
    <path d="M114.29 104.725H48.2035C47.6204 104.725 46.8429 104.341 46.8429 103.572L33.2368 45.9252C33.0424 45.5409 33.2368 44.9644 33.4311 44.7722C33.6255 44.3879 34.2086 44.1958 34.5974 44.1958H135.671C136.06 44.1958 136.449 44.3879 136.838 44.7722C137.032 45.1565 137.226 45.5409 137.032 45.9252L125.175 96.078C124.009 101.266 119.538 104.725 114.29 104.725ZM49.1754 101.843H114.096C117.983 101.843 121.288 99.1525 122.065 95.5016L133.533 47.0781H36.3467L49.1754 101.843Z"
          fill="#C8C8C8"/>
    <path d="M85.1352 85.1256C103.385 85.1256 118.179 70.5002 118.179 52.459C118.179 34.4177 103.385 19.7924 85.1352 19.7924C66.8858 19.7924 52.0918 34.4177 52.0918 52.459C52.0918 70.5002 66.8858 85.1256 85.1352 85.1256Z"
          fill="white"/>
    <path d="M105.35 26.5175C109.626 32.09 112.348 39.0076 112.348 46.5017C112.348 64.5645 97.5752 79.1684 79.3042 79.1684C71.7236 79.1684 64.7262 76.6703 59.0894 72.2507C65.1149 79.937 74.6392 84.9331 85.1354 84.9331C103.406 84.9331 118.179 70.3292 118.179 52.2664C118.179 41.89 113.125 32.4743 105.35 26.5175Z"
          fill="#DEDEDE"/>
    <path d="M85.1345 86.4707C66.086 86.4707 50.5361 71.0982 50.5361 52.459C50.5361 33.6277 66.086 18.2552 85.1345 18.2552C104.183 18.2552 119.733 33.6277 119.733 52.459C119.539 71.0982 103.989 86.4707 85.1345 86.4707ZM85.1345 21.1375C67.641 21.1375 53.4517 35.1649 53.4517 52.459C53.4517 69.7531 67.641 83.7805 85.1345 83.7805C102.628 83.7805 116.817 69.7531 116.817 52.459C116.623 35.1649 102.434 21.1375 85.1345 21.1375Z"
          fill="#C8C8C8"/>
    <path d="M103.989 46.6942H90.3828V33.2432H78.7204V46.6942H65.1143V58.2235H78.7204V71.6745H90.3828V58.2235H103.989V46.6942Z"
          fill="white"/>
    <path d="M72.3059 37.8548L70.3622 44.3881L72.1115 45.5411L65.8916 66.294L75.6103 66.4861L81.4415 46.5019L78.1371 44.5803L93.687 44.7725L87.2727 66.6783L96.9913 66.8705L105.155 38.4313L72.3059 37.8548Z"
          fill="#DEDEDE"/>
    <path d="M70.3626 35.9335L68.4188 42.4668L70.1682 43.6197L63.9482 64.3726L73.6669 64.5648L79.4981 44.5805L76.1937 42.6589L91.7436 42.8511L85.3293 64.7569L95.0479 64.9491L103.212 36.5099L70.3626 35.9335Z"
          fill="#C8C8C8"/>
</svg>
