<svg width="92" height="89" viewBox="0 0 92 89" fill="none" xmlns="http://www.w3.org/2000/svg">
    <g clip-path="url(#clip0)">
        <path d="M16.4706 74.1085C25.567 74.1085 32.9412 66.8163 32.9412 57.8209C32.9412 48.8255 25.567 41.5333 16.4706 41.5333C7.37413 41.5333 0 48.8255 0 57.8209C0 66.8163 7.37413 74.1085 16.4706 74.1085Z"
              fill="#F7F7F6"/>
        <path d="M58.5884 89C66.3853 89 72.706 82.7495 72.706 75.0392C72.706 67.3289 66.3853 61.0784 58.5884 61.0784C50.7914 61.0784 44.4707 67.3289 44.4707 75.0392C44.4707 82.7495 50.7914 89 58.5884 89Z"
              fill="#F7F7F6"/>
        <path d="M68.4708 46.5359C81.4658 46.5359 92.0002 36.1185 92.0002 23.268C92.0002 10.4174 81.4658 0 68.4708 0C55.4759 0 44.9414 10.4174 44.9414 23.268C44.9414 36.1185 55.4759 46.5359 68.4708 46.5359Z"
              fill="#F7F7F6"/>
        <path d="M75.5295 69.4549H68.4707L69.6472 81.0889H74.3531L75.5295 69.4549Z" fill="#DEDEDE"/>
        <path d="M73.1766 69.4549H68.4707L69.6472 81.0889H72.0001L73.1766 69.4549Z" fill="white"/>
        <path d="M74.3533 82.0196H69.6475C69.1769 82.0196 68.8239 81.6706 68.8239 81.2052L67.6475 69.5712C67.6475 69.3386 67.6475 69.1059 67.8828 68.8732C68.0004 68.6405 68.2357 68.6405 68.5886 68.6405H75.6475C75.8828 68.6405 76.118 68.7569 76.3533 68.8732C76.471 69.1059 76.5886 69.3386 76.5886 69.5712L75.4122 81.2052C75.2945 81.6706 74.8239 82.0196 74.3533 82.0196ZM70.471 80.2745H73.5298L74.471 70.3856H69.4122L70.471 80.2745Z"
              fill="#C8C8C8"/>
        <path d="M36.7063 69.4549H29.6475L30.8239 81.0889H35.5298L36.7063 69.4549Z" fill="#DEDEDE"/>
        <path d="M34.3533 69.4549H29.6475L30.8239 81.0889H33.1769L34.3533 69.4549Z" fill="white"/>
        <path d="M35.5301 82.0196H30.8242C30.3536 82.0196 30.0007 81.6706 30.0007 81.2052L28.8242 69.5712C28.8242 69.3386 28.8242 69.1059 29.0595 68.8732C29.1772 68.6405 29.4125 68.6405 29.7654 68.6405H36.8242C37.0595 68.6405 37.2948 68.7569 37.5301 68.8732C37.6478 69.1059 37.7654 69.3386 37.7654 69.5712L36.5889 81.2052C36.4713 81.6706 36.0007 82.0196 35.5301 82.0196ZM31.6477 80.2745H34.7066L35.6478 70.3856H30.5889L31.6477 80.2745Z"
              fill="#C8C8C8"/>
        <path d="M72.0005 85.7425C75.2492 85.7425 77.8829 83.1381 77.8829 79.9255C77.8829 76.7128 75.2492 74.1085 72.0005 74.1085C68.7518 74.1085 66.1182 76.7128 66.1182 79.9255C66.1182 83.1381 68.7518 85.7425 72.0005 85.7425Z"
              fill="white"/>
        <path d="M74.8242 74.9229C75.2948 75.7372 75.5301 76.668 75.5301 77.715C75.5301 80.9725 72.9419 83.532 69.6478 83.532C68.5889 83.532 67.6477 83.2993 66.8242 82.834C67.7654 84.6954 69.7654 85.8588 72.0007 85.8588C75.2948 85.8588 77.883 83.2993 77.883 80.0418C77.883 77.8314 76.7066 75.8536 74.8242 74.9229Z"
              fill="#DEDEDE"/>
        <path d="M72.0007 81.0889C72.6504 81.0889 73.1772 80.568 73.1772 79.9255C73.1772 79.2829 72.6504 78.7621 72.0007 78.7621C71.3509 78.7621 70.8242 79.2829 70.8242 79.9255C70.8242 80.568 71.3509 81.0889 72.0007 81.0889Z"
              fill="#C8C8C8"/>
        <path d="M72.0003 86.6732C68.2356 86.6732 65.1768 83.6484 65.1768 79.9255C65.1768 76.2026 68.2356 73.1778 72.0003 73.1778C75.765 73.1778 78.8238 76.2026 78.8238 79.9255C78.8238 83.6484 75.765 86.6732 72.0003 86.6732ZM72.0003 75.0392C69.2944 75.0392 66.9415 77.2497 66.9415 80.0418C66.9415 82.7176 69.1768 85.0444 72.0003 85.0444C74.7062 85.0444 77.0591 82.834 77.0591 80.0418C77.0591 77.2497 74.8238 75.0392 72.0003 75.0392Z"
              fill="#C8C8C8"/>
        <path d="M33.1773 85.7425C36.426 85.7425 39.0596 83.1381 39.0596 79.9255C39.0596 76.7128 36.426 74.1085 33.1773 74.1085C29.9285 74.1085 27.2949 76.7128 27.2949 79.9255C27.2949 83.1381 29.9285 85.7425 33.1773 85.7425Z"
              fill="white"/>
        <path d="M36 74.9229C36.4706 75.7372 36.7059 76.668 36.7059 77.715C36.7059 80.9725 34.1176 83.532 30.8235 83.532C29.7647 83.532 28.8235 83.2993 28 82.834C28.9412 84.6954 30.9412 85.8588 33.1765 85.8588C36.4706 85.8588 39.0588 83.2993 39.0588 80.0418C39.0588 77.8314 37.8824 75.8536 36 74.9229Z"
              fill="#DEDEDE"/>
        <path d="M33.1774 81.0889C33.8272 81.0889 34.3539 80.568 34.3539 79.9255C34.3539 79.2829 33.8272 78.7621 33.1774 78.7621C32.5277 78.7621 32.001 79.2829 32.001 79.9255C32.001 80.568 32.5277 81.0889 33.1774 81.0889Z"
              fill="#C8C8C8"/>
        <path d="M33.177 86.6732C29.4123 86.6732 26.3535 83.6484 26.3535 79.9255C26.3535 76.2026 29.4123 73.1778 33.177 73.1778C36.9418 73.1778 40.0006 76.2026 40.0006 79.9255C40.0006 83.6484 36.9418 86.6732 33.177 86.6732ZM33.177 75.0392C30.4712 75.0392 28.1182 77.2497 28.1182 80.0418C28.1182 82.7176 30.3535 85.0444 33.177 85.0444C35.8829 85.0444 38.2359 82.834 38.2359 80.0418C38.2359 77.2497 36.0006 75.0392 33.177 75.0392Z"
              fill="#C8C8C8"/>
        <path d="M79.1767 70.3856H26.9414C25.5297 70.3856 24.3532 69.5712 23.8826 68.2915C23.412 67.0118 23.8826 65.6157 24.9414 64.685L28.4708 61.8928C28.5885 61.7765 28.8238 61.6601 29.0591 61.6601H62.0002C62.4708 61.6601 62.9414 62.0091 62.9414 62.5908C62.9414 63.0562 62.5885 63.5216 62.0002 63.5216H29.412L26.1179 66.1974C25.5297 66.6627 25.5297 67.3608 25.6473 67.8261C25.765 68.2915 26.2356 68.7569 27.0591 68.7569H79.1767C79.6473 68.7569 80.1179 69.1059 80.1179 69.6876C80.1179 70.2693 79.6473 70.3856 79.1767 70.3856Z"
              fill="#C8C8C8"/>
        <path d="M29.1769 63.4052C28.824 63.4052 28.471 63.1726 28.3534 62.7072L16.7063 13.2627C16.5887 12.5647 16.0005 12.0993 15.2946 12.0993H6.82399C6.23575 12.2157 5.88281 11.8667 5.88281 11.285C5.88281 10.8196 6.23575 10.4706 6.82399 10.4706H15.1769C16.7063 10.4706 18.0005 11.5176 18.3534 12.9137L30.0005 62.3582C30.1181 62.8235 29.7652 63.2889 29.2946 63.4052H29.1769Z"
              fill="#C8C8C8"/>
        <path d="M69.1767 62.4745H29.1767L20.9414 27.5725H82.1179L74.9414 57.9372C74.2355 60.6131 71.8826 62.4745 69.1767 62.4745Z"
              fill="white"/>
        <path d="M76.1179 27.5725C75.1768 44.7908 60.8238 58.4026 43.1768 58.4026C37.2944 58.4026 31.8826 56.8902 27.1768 54.2144L29.0591 62.3582H69.0591C71.765 62.3582 74.1179 60.4967 74.8238 57.8209L82.0003 27.4562H76.1179V27.5725Z"
              fill="#DEDEDE"/>
        <path d="M69.1769 63.4052H29.1769C28.8239 63.4052 28.3534 63.1725 28.3534 62.7072L20.1181 27.8052C20.0004 27.5725 20.1181 27.2235 20.2357 27.1072C20.3534 26.8745 20.7063 26.7582 20.9416 26.7582H82.1181C82.3534 26.7582 82.5887 26.8745 82.824 27.1072C82.9416 27.3399 83.0593 27.5725 82.9416 27.8052L75.7651 58.1699C75.0593 61.3111 72.3534 63.4052 69.1769 63.4052ZM29.7651 61.6601H69.0592C71.4122 61.6601 73.4122 60.0314 73.8828 57.8209L80.824 28.5033H22.0004L29.7651 61.6601Z"
              fill="#C8C8C8"/>
        <path d="M51.5293 51.5386C62.575 51.5386 71.5293 42.6837 71.5293 31.7608C71.5293 20.8378 62.575 11.983 51.5293 11.983C40.4836 11.983 31.5293 20.8378 31.5293 31.7608C31.5293 42.6837 40.4836 51.5386 51.5293 51.5386Z"
              fill="white"/>
        <path d="M63.7647 16.0549C66.3529 19.4288 67.9999 23.617 67.9999 28.1543C67.9999 39.0902 59.0588 47.932 47.9999 47.932C43.4117 47.932 39.1764 46.4196 35.7646 43.7438C39.4117 48.3974 45.1764 51.4222 51.5294 51.4222C62.5882 51.4222 71.5294 42.5804 71.5294 31.6444C71.5294 25.3621 68.4705 19.6614 63.7647 16.0549Z"
              fill="#DEDEDE"/>
        <path d="M51.53 52.3529C40.0006 52.3529 30.5889 43.0457 30.5889 31.7608C30.5889 20.3595 40.0006 11.0523 51.53 11.0523C63.0595 11.0523 72.4712 20.3595 72.4712 31.7608C72.3536 43.0457 62.9418 52.3529 51.53 52.3529ZM51.53 12.7974C40.9418 12.7974 32.3536 21.2902 32.3536 31.7608C32.3536 42.2314 40.9418 50.7242 51.53 50.7242C62.1183 50.7242 70.7065 42.2314 70.7065 31.7608C70.5889 21.2902 62.0006 12.7974 51.53 12.7974Z"
              fill="#C8C8C8"/>
        <path d="M62.9415 28.2706H54.7062V20.1268H47.6474V28.2706H39.4121V35.251H47.6474V43.3948H54.7062V35.251H62.9415V28.2706Z"
              fill="white"/>
        <path d="M43.7652 22.9189L42.5887 26.8745L43.6475 27.5725L39.8828 40.1372L45.7652 40.2536L49.2946 28.1542L47.2946 26.9908L56.7063 27.1072L52.824 40.3699L58.7064 40.4863L63.6475 23.268L43.7652 22.9189Z"
              fill="#DEDEDE"/>
        <path d="M42.5884 21.7556L41.4119 25.7111L42.4708 26.4091L38.7061 38.9739L44.5884 39.0902L48.1178 26.9908L46.1178 25.8274L55.5296 25.9438L51.6472 39.2065L57.5296 39.3229L62.4708 22.1046L42.5884 21.7556Z"
              fill="#C8C8C8"/>
    </g>
    <defs>
        <clipPath id="clip0">
            <rect width="92" height="89" fill="white"/>
        </clipPath>
    </defs>
</svg>
