<svg width="12" height="20" viewBox="0 0 12 20" fill="none" xmlns="http://www.w3.org/2000/svg">
<path d="M10.2856 0.713867H1.71422C0.928502 0.713867 0.285645 1.35672 0.285645 2.14244V17.8567C0.285645 18.6424 0.928502 19.2853 1.71422 19.2853H10.2856C11.0714 19.2853 11.7142 18.6424 11.7142 17.8567V2.14244C11.7142 1.35672 11.0714 0.713867 10.2856 0.713867ZM10.2856 2.14244V13.571H1.71422V2.14244H10.2856ZM1.71422 17.8567V14.9996H10.2856V17.8567H1.71422Z" fill="#ADADAD"/>
<path d="M5.99993 17.1424C6.39442 17.1424 6.71422 16.8226 6.71422 16.4282C6.71422 16.0337 6.39442 15.7139 5.99993 15.7139C5.60544 15.7139 5.28564 16.0337 5.28564 16.4282C5.28564 16.8226 5.60544 17.1424 5.99993 17.1424Z" fill="#ADADAD"/>
</svg>
