<svg width="18" height="18" viewBox="0 0 18 18" fill="none" xmlns="http://www.w3.org/2000/svg">
<path d="M13.5001 17.3569H4.50007C3.791 17.3569 3.21436 16.7802 3.21436 16.0712V1.92829C3.21436 1.21922 3.791 0.642578 4.50007 0.642578H13.5001C14.2091 0.642578 14.7858 1.21922 14.7858 1.92829V16.0712C14.7858 16.7802 14.2091 17.3569 13.5001 17.3569ZM4.50007 1.92829V16.0712H13.5001V1.92829H4.50007Z" fill="#ADADAD"/>
<path d="M8.99993 14.785C7.22757 14.785 5.78564 13.3431 5.78564 11.5707C5.78564 9.79837 7.22757 8.35645 8.99993 8.35645C10.7723 8.35645 12.2142 9.79837 12.2142 11.5707C12.2142 13.3431 10.7723 14.785 8.99993 14.785ZM8.99993 9.64216C7.93664 9.64216 7.07136 10.5074 7.07136 11.5707C7.07136 12.634 7.93664 13.4993 8.99993 13.4993C10.0632 13.4993 10.9285 12.634 10.9285 11.5707C10.9285 10.5074 10.0632 9.64216 8.99993 9.64216Z" fill="#ADADAD"/>
<path d="M9.00007 5.7853C9.71015 5.7853 10.2858 5.20966 10.2858 4.49958C10.2858 3.7895 9.71015 3.21387 9.00007 3.21387C8.28999 3.21387 7.71436 3.7895 7.71436 4.49958C7.71436 5.20966 8.28999 5.7853 9.00007 5.7853Z" fill="#ADADAD"/>
</svg>
