<svg width="28" height="28" viewBox="0 0 28 28" fill="none" xmlns="http://www.w3.org/2000/svg">
<g clip-path="url(#clip0)">
<path d="M25.3209 23C24.8419 23 24.3639 22.876 23.9019 22.633C23.1969 22.262 22.4999 21.705 21.7709 20.931C20.6999 19.795 16.8119 16.94 13.9859 16.94C11.1489 16.94 7.29993 19.787 6.24693 20.92C5.64293 21.568 4.95093 22.089 4.35293 22.513C3.68293 22.99 2.80893 23.12 1.95793 22.87C0.676925 22.495 -0.0720747 21.376 0.00492534 19.949C0.0669253 18.837 2.02393 11.376 2.74193 8.91C3.40293 6.644 5.50492 5 7.73793 5C8.89493 5 10.4619 5.558 11.8429 6.05C12.6139 6.324 13.6689 6.7 13.9979 6.7C14.3249 6.7 15.3289 6.317 16.0619 6.038C17.3939 5.53 18.7719 5.005 19.8579 5.005C21.9129 5.005 24.4839 6.238 25.2749 8.945C25.9119 11.12 27.9449 18.675 27.9959 19.903C28.0329 20.81 27.7479 21.627 27.1929 22.206C26.7019 22.718 26.0369 23 25.3209 23ZM13.9859 14.94C17.6689 14.94 22.1099 18.376 23.2259 19.559C23.8019 20.17 24.3279 20.597 24.8329 20.863C25.1999 21.055 25.5339 21.044 25.7499 20.821C25.9249 20.639 26.0129 20.342 25.9979 19.985C25.9639 19.184 24.2489 12.557 23.3549 9.506C22.8529 7.787 21.1899 7.005 19.8579 7.005C19.1399 7.005 17.8289 7.505 16.7749 7.906C15.4849 8.398 14.6609 8.7 13.9989 8.7C13.3569 8.7 12.5069 8.409 11.1729 7.934C10.0049 7.518 8.54992 7 7.73793 7C6.39593 7 5.07293 8.062 4.66193 9.47C3.78793 12.468 2.05093 19.302 2.00193 20.058C1.96793 20.704 2.26093 20.874 2.51993 20.95C2.78893 21.028 3.01793 21.009 3.19693 20.883C3.71293 20.517 4.30293 20.074 4.78293 19.558C5.88293 18.374 10.2859 14.94 13.9859 14.94Z" fill="#ADADAD"/>
<path d="M18.5 12C18.7761 12 19 11.7761 19 11.5C19 11.2239 18.7761 11 18.5 11C18.2239 11 18 11.2239 18 11.5C18 11.7761 18.2239 12 18.5 12Z" fill="#ADADAD"/>
<path d="M20.5 12C20.7761 12 21 11.7761 21 11.5C21 11.2239 20.7761 11 20.5 11C20.2239 11 20 11.2239 20 11.5C20 11.7761 20.2239 12 20.5 12Z" fill="#ADADAD"/>
<path d="M19.5 11C19.7761 11 20 10.7761 20 10.5C20 10.2239 19.7761 10 19.5 10C19.2239 10 19 10.2239 19 10.5C19 10.7761 19.2239 11 19.5 11Z" fill="#ADADAD"/>
<path d="M19.5 13C19.7761 13 20 12.7761 20 12.5C20 12.2239 19.7761 12 19.5 12C19.2239 12 19 12.2239 19 12.5C19 12.7761 19.2239 13 19.5 13Z" fill="#ADADAD"/>
<path d="M10 11H9V10H8V11H7V12H8V13H9V12H10V11Z" fill="#ADADAD"/>
</g>
<defs>
<clipPath id="clip0">
<rect width="28" height="28" fill="white"/>
</clipPath>
</defs>
</svg>
