<svg width="28" height="28" viewBox="0 0 28 28" fill="none" xmlns="http://www.w3.org/2000/svg">
<path d="M3.63736 13.0114L3.35156 14.9908L8.35153 15.7128L8.63733 13.7334L3.63736 13.0114Z" fill="#ADADAD"/>
<path d="M24.2967 13.0176L19.2971 14.0186L19.6897 15.9796L24.6893 14.9786L24.2967 13.0176Z" fill="#ADADAD"/>
<path d="M27.0389 11.489C26.6809 10.786 25.9099 9.965 25.3799 9.444L26.8219 8.945L26.1679 7.055L24.0639 7.783C23.5149 6.547 22.5829 4.587 22.3999 4.333C21.4879 3.064 15.3089 3 14.0789 3C12.8349 3 6.58488 3.064 5.68288 4.334C5.49888 4.59 4.55388 6.577 4.00588 7.811L1.82188 7.055L1.16788 8.945L2.56888 9.43C2.03288 9.865 1.37788 10.483 1.04288 11.141C0.48988 12.224 0.49288 13.955 0.49488 15.483C0.49488 15.483 0.58488 22.468 0.62888 23.137C0.69888 24.182 1.57588 25 2.62488 25H5.49488C6.59788 25 7.49488 24.103 7.49488 23V22H20.4939V23C20.4939 24.103 21.3909 25 22.4939 25H25.4939C26.5969 25 27.4939 24.103 27.4939 23C27.4939 23 27.4979 15.601 27.5009 15.347C27.5209 13.935 27.5409 12.476 27.0389 11.489ZM7.22688 5.654C7.80788 5.453 9.86988 5 14.0789 5C18.2419 5 20.2749 5.449 20.8499 5.649C21.1499 6.234 21.9159 7.867 22.3089 8.748C20.7129 9.044 17.4439 9.563 14.1389 9.563C10.6849 9.563 7.28288 8.994 5.78888 8.708C6.19188 7.809 6.94988 6.196 7.22688 5.654ZM25.5999 20.741L25.4939 23H22.4939L22.4949 21L21.4949 20H6.49488L5.49488 21V23L2.62488 23.004C2.58088 22.35 2.52488 21.462 2.49388 20.739C2.48888 20.557 2.15588 13.437 2.82488 12.048C3.05288 11.575 3.91988 10.872 4.46788 10.509C4.50488 10.483 4.50488 10.483 4.50488 10.483C4.69588 10.526 9.31688 11.562 14.1389 11.562C18.5649 11.562 22.8049 10.702 23.6199 10.527C24.1569 11.021 24.9899 11.887 25.2549 12.395C25.7499 13.344 25.6059 20.522 25.5999 20.741Z" fill="#ADADAD"/>
</svg>
