<svg width="18" height="18" viewBox="0 0 18 18" fill="none" xmlns="http://www.w3.org/2000/svg">
<path d="M14.1426 8.99972C14.1426 7.70051 13.6547 6.51572 12.8569 5.60929V1.92829C12.8569 1.21922 12.2803 0.642578 11.5712 0.642578H6.42836C5.71929 0.642578 5.14265 1.21922 5.14265 1.92829V5.60929C4.34486 6.51572 3.85693 7.70051 3.85693 8.99972C3.85693 10.2989 4.34486 11.4837 5.14265 12.3902V16.0712C5.14265 16.7802 5.71929 17.3569 6.42836 17.3569H11.5712C12.2803 17.3569 12.8569 16.7802 12.8569 16.0712V12.3902C13.6547 11.4837 14.1426 10.2989 14.1426 8.99972ZM11.5712 1.92829V4.55244C10.8139 4.11272 9.93708 3.85686 8.99979 3.85686C8.0625 3.85686 7.18565 4.11272 6.42836 4.55244V1.92829H11.5712ZM8.99979 5.14258C11.127 5.14258 12.8569 6.87251 12.8569 8.99972C12.8569 11.1269 11.127 12.8569 8.99979 12.8569C6.87258 12.8569 5.14265 11.1269 5.14265 8.99972C5.14265 6.87251 6.87258 5.14258 8.99979 5.14258ZM6.42836 16.0712V13.447C7.18565 13.8867 8.0625 14.1426 8.99979 14.1426C9.93708 14.1426 10.8139 13.8867 11.5712 13.447V16.0712H6.42836Z" fill="#ADADAD"/>
<path d="M8.99956 9.64214C9.20013 9.64214 9.45406 9.45378 9.45406 9.45378L11.3826 7.52521L10.4736 6.61621L8.91791 8.17193L7.42777 7.17871L6.71484 8.24843L8.64341 9.53414C8.64277 9.53414 8.79834 9.64214 8.99956 9.64214Z" fill="#ADADAD"/>
</svg>
