<svg width="18" height="19" viewBox="0 0 18 19" fill="none" xmlns="http://www.w3.org/2000/svg">
<path d="M5.42505 4.23401H3.42505V6.23401H5.42505V4.23401Z" fill="white"/>
<path d="M5.42505 8.10901H3.42505V10.109H5.42505V8.10901Z" fill="white"/>
<path d="M5.42505 12.234H3.42505V14.234H5.42505V12.234Z" fill="white"/>
<path d="M14.8081 4.23401H6.20605V6.23401H14.8081V4.23401Z" fill="white"/>
<path d="M14.8081 8.10901H6.20605V10.109H14.8081V8.10901Z" fill="white"/>
<path d="M14.8081 12.234H6.20605V14.234H14.8081V12.234Z" fill="white"/>
<path d="M15.288 18.774H2.71304C1.47504 18.774 0.467041 17.766 0.467041 16.528V2.47098C0.467041 1.23298 1.47504 0.224976 2.71304 0.224976H15.289C16.527 0.224976 17.534 1.23198 17.534 2.47098V16.528C17.533 17.766 16.527 18.774 15.288 18.774ZM2.71304 1.72598C2.30104 1.72598 1.96704 2.05998 1.96704 2.47198V16.529C1.96704 16.94 2.30104 17.275 2.71304 17.275H15.289C15.7 17.275 16.034 16.94 16.034 16.529V2.47098C16.034 2.05998 15.7 1.72498 15.289 1.72498H2.71304V1.72598Z" fill="white"/>
</svg>
