<svg width="18" height="18" viewBox="0 0 18 18" fill="none" xmlns="http://www.w3.org/2000/svg">
<g clip-path="url(#clip0)">
<path d="M16.2781 14.7853C15.9701 14.7853 15.6628 14.7056 15.3658 14.5494C14.9126 14.3109 14.4646 13.9528 13.9959 13.4552C13.3074 12.7249 10.808 10.8896 8.99127 10.8896C7.16748 10.8896 4.69312 12.7198 4.01619 13.4482C3.62791 13.8647 3.18305 14.1997 2.79862 14.4722C2.36791 14.7789 1.80605 14.8624 1.25898 14.7017C0.43548 14.4607 -0.0460198 13.7413 0.00348019 12.8239C0.0433373 12.1091 1.30141 7.31272 1.76298 5.72744C2.18791 4.27072 3.53919 3.21387 4.97469 3.21387C5.71848 3.21387 6.72584 3.57258 7.61362 3.88887C8.10927 4.06501 8.78748 4.30672 8.99898 4.30672C9.20919 4.30672 9.85462 4.06051 10.3258 3.88115C11.1821 3.55458 12.068 3.21708 12.7661 3.21708C14.0872 3.21708 15.74 4.00972 16.2485 5.74994C16.658 7.14815 17.9649 12.0049 17.9977 12.7944C18.0215 13.3774 17.8383 13.9027 17.4815 14.2749C17.1658 14.604 16.7383 14.7853 16.2781 14.7853ZM8.99127 9.60387C11.3589 9.60387 14.2138 11.8127 14.9313 12.5732C15.3016 12.966 15.6397 13.2405 15.9643 13.4115C16.2003 13.5349 16.415 13.5279 16.5538 13.3845C16.6663 13.2675 16.7229 13.0766 16.7133 12.8471C16.6914 12.3322 15.5889 8.07194 15.0142 6.11058C14.6915 5.00551 13.6224 4.5028 12.7661 4.5028C12.3046 4.5028 11.4618 4.82422 10.7842 5.08201C9.95491 5.3983 9.42519 5.59244 8.99962 5.59244C8.58691 5.59244 8.04048 5.40537 7.18291 5.10001C6.43205 4.83258 5.49669 4.49958 4.97469 4.49958C4.11198 4.49958 3.26148 5.1823 2.99727 6.08744C2.43541 8.01472 1.31877 12.408 1.28727 12.894C1.26541 13.3093 1.45377 13.4186 1.62027 13.4674C1.79319 13.5176 1.94041 13.5054 2.05548 13.4244C2.38719 13.1891 2.76648 12.9043 3.07505 12.5726C3.78219 11.8114 6.61269 9.60387 8.99127 9.60387Z" fill="#ADADAD"/>
<path d="M11.8932 7.71415C12.0707 7.71415 12.2146 7.57024 12.2146 7.39272C12.2146 7.2152 12.0707 7.07129 11.8932 7.07129C11.7157 7.07129 11.5718 7.2152 11.5718 7.39272C11.5718 7.57024 11.7157 7.71415 11.8932 7.71415Z" fill="#ADADAD"/>
<path d="M13.1789 7.71415C13.3564 7.71415 13.5003 7.57024 13.5003 7.39272C13.5003 7.2152 13.3564 7.07129 13.1789 7.07129C13.0013 7.07129 12.8574 7.2152 12.8574 7.39272C12.8574 7.57024 13.0013 7.71415 13.1789 7.71415Z" fill="#ADADAD"/>
<path d="M12.5358 7.07059C12.7133 7.07059 12.8572 6.92668 12.8572 6.74916C12.8572 6.57164 12.7133 6.42773 12.5358 6.42773C12.3583 6.42773 12.2144 6.57164 12.2144 6.74916C12.2144 6.92668 12.3583 7.07059 12.5358 7.07059Z" fill="#ADADAD"/>
<path d="M12.5358 8.35672C12.7133 8.35672 12.8572 8.21282 12.8572 8.0353C12.8572 7.85778 12.7133 7.71387 12.5358 7.71387C12.3583 7.71387 12.2144 7.85778 12.2144 8.0353C12.2144 8.21282 12.3583 8.35672 12.5358 8.35672Z" fill="#ADADAD"/>
<path d="M6.42857 7.07059H5.78571V6.42773H5.14286V7.07059H4.5V7.71345H5.14286V8.35631H5.78571V7.71345H6.42857V7.07059Z" fill="#ADADAD"/>
</g>
<defs>
<clipPath id="clip0">
<rect width="18" height="18" fill="white"/>
</clipPath>
</defs>
</svg>
