<svg width="18" height="18" viewBox="0 0 18 18" fill="none" xmlns="http://www.w3.org/2000/svg">
<path d="M17.2012 6.33706L16.5397 5.23456L13.4784 7.07185H7.87074V1.92899L7.22789 1.28613H6.58503C3.39453 1.28613 0.799316 3.88199 0.799316 7.07185V7.7147V9.64327C0.799316 10.7066 1.6646 11.5718 2.72789 11.5718H3.61632L2.94839 12.9077C2.0876 13.1012 1.44217 13.8681 1.44217 14.7861C1.44217 15.8494 2.30746 16.7147 3.37074 16.7147C4.43403 16.7147 5.29932 15.8494 5.29932 14.7861C5.29932 14.0571 4.88789 13.4284 4.28939 13.1012L5.05374 11.5718H10.0449L10.8092 13.1012C10.2107 13.4291 9.79932 14.0571 9.79932 14.7861C9.79932 15.8494 10.6646 16.7147 11.7279 16.7147C12.7912 16.7147 13.6565 15.8494 13.6565 14.7861C13.6565 13.8681 13.0104 13.1012 12.1502 12.9077L11.4823 11.5718H12.3707C13.434 11.5718 14.2993 10.7066 14.2993 9.64327V8.07856L17.2012 6.33706ZM3.37074 15.429C3.01589 15.429 2.72789 15.1403 2.72789 14.7861C2.72789 14.4319 3.01589 14.1433 3.37074 14.1433C3.7256 14.1433 4.0136 14.4319 4.0136 14.7861C4.0136 15.1403 3.72496 15.429 3.37074 15.429ZM11.7279 15.429C11.373 15.429 11.085 15.1403 11.085 14.7861C11.085 14.4319 11.373 14.1433 11.7279 14.1433C12.0827 14.1433 12.3707 14.4319 12.3707 14.7861C12.3707 15.1403 12.0821 15.429 11.7279 15.429ZM6.58503 2.57185V7.07185H2.08503C2.08503 4.59042 4.1036 2.57185 6.58503 2.57185ZM13.0136 9.64327C13.0136 9.99749 12.7256 10.2861 12.3707 10.2861H2.72789C2.37303 10.2861 2.08503 9.99749 2.08503 9.64327V8.35756H7.22789H13.0136V9.64327Z" fill="#ADADAD"/>
</svg>
