<svg width="18" height="18" viewBox="0 0 18 18" fill="none" xmlns="http://www.w3.org/2000/svg">
<path d="M2.33803 8.36425L2.1543 9.63672L5.36856 10.1008L5.55229 8.82835L2.33803 8.36425Z" fill="#ADADAD"/>
<path d="M15.6193 8.36826L12.4053 9.01172L12.6577 10.2724L15.8717 9.6289L15.6193 8.36826Z" fill="#ADADAD"/>
<path d="M17.382 7.38592C17.1519 6.934 16.6562 6.40621 16.3155 6.07128L17.2425 5.7505L16.8221 4.5355L15.4695 5.0035C15.1166 4.20893 14.5175 2.94893 14.3998 2.78564C13.8135 1.96985 9.84132 1.92871 9.0506 1.92871C8.25089 1.92871 4.23303 1.96985 3.65318 2.78628C3.53489 2.95085 2.92739 4.22821 2.5751 5.0215L1.1711 4.5355L0.750675 5.7505L1.65132 6.06228C1.30675 6.34193 0.885675 6.73921 0.670318 7.16221C0.314818 7.85842 0.316747 8.97121 0.318032 9.9535C0.318032 9.9535 0.375889 14.4439 0.404175 14.8739C0.449175 15.5457 1.01296 16.0716 1.68732 16.0716H3.53232C4.24139 16.0716 4.81803 15.4949 4.81803 14.7859V14.143H13.1745V14.7859C13.1745 15.4949 13.7512 16.0716 14.4602 16.0716H16.3888C17.0979 16.0716 17.6745 15.4949 17.6745 14.7859C17.6745 14.7859 17.6771 10.0294 17.679 9.86607C17.6919 8.95835 17.7047 8.02042 17.382 7.38592ZM4.64575 3.63485C5.01925 3.50564 6.34482 3.21443 9.0506 3.21443C11.7268 3.21443 13.0337 3.50307 13.4034 3.63164C13.5962 4.00771 14.0887 5.0575 14.3413 5.62385C13.3153 5.81414 11.2138 6.14778 9.08918 6.14778C6.86875 6.14778 4.68175 5.782 3.72132 5.59814C3.98039 5.02021 4.46768 3.98328 4.64575 3.63485ZM16.457 13.3336L16.3888 14.7859H14.4602L14.4609 13.5001L13.818 12.8573H4.17518L3.53232 13.5001V14.7859L1.68732 14.7884C1.65903 14.368 1.62303 13.7971 1.6031 13.3324C1.59989 13.2154 1.38582 8.63821 1.81589 7.74528C1.96246 7.44121 2.51982 6.98928 2.8721 6.75592C2.89589 6.73921 2.89589 6.73921 2.89589 6.73921C3.01868 6.76685 5.98932 7.43285 9.08918 7.43285C11.9345 7.43285 14.6602 6.88 15.1841 6.7675C15.5293 7.08507 16.0648 7.64178 16.2352 7.96835C16.5534 8.57842 16.4608 13.1929 16.457 13.3336Z" fill="#ADADAD"/>
</svg>
