<svg width="28" height="28" viewBox="0 0 28 28" fill="none" xmlns="http://www.w3.org/2000/svg">
<path d="M14 21C10.691 21 8 18.309 8 15C8 11.691 10.691 9 14 9C17.309 9 20 11.691 20 15C20 18.309 17.309 21 14 21ZM14 11C11.794 11 10 12.794 10 15C10 17.206 11.794 19 14 19C16.206 19 18 17.206 18 15C18 12.794 16.206 11 14 11Z" fill="#ADADAD"/>
<path d="M23.739 25H4.261C2.463 25 1 23.58 1 21.833V9.167C1 7.42 2.463 6 4.261 6H8.477C9.119 3 9.996 3 10.435 3H17.727C18.407 3 19.143 3.379 19.568 6H23.74C25.537 6 27 7.42 27 9.167V21.834C27 23.58 25.537 25 23.739 25ZM4.261 8C3.565 8 3 8.523 3 9.167V21.834C3 22.477 3.565 23 4.261 23H23.74C24.435 23 25 22.477 25 21.833V9.167C25 8.523 24.435 8 23.739 8H18.695C18.187 8 17.759 7.619 17.702 7.114C17.608 6.309 17.431 5.441 17.278 5H10.85C10.668 5.435 10.43 6.344 10.291 7.167C10.21 7.647 9.793 8 9.305 8H4.261Z" fill="#ADADAD"/>
</svg>
