<svg width="28" height="28" viewBox="0 0 28 28" fill="none" xmlns="http://www.w3.org/2000/svg">
<path d="M21 27H7C5.897 27 5 26.103 5 25V3C5 1.897 5.897 1 7 1H21C22.103 1 23 1.897 23 3V25C23 26.103 22.103 27 21 27ZM7 3V25H21V3H7Z" fill="#ADADAD"/>
<path d="M14 23C11.243 23 9 20.757 9 18C9 15.243 11.243 13 14 13C16.757 13 19 15.243 19 18C19 20.757 16.757 23 14 23ZM14 15C12.346 15 11 16.346 11 18C11 19.654 12.346 21 14 21C15.654 21 17 19.654 17 18C17 16.346 15.654 15 14 15Z" fill="#ADADAD"/>
<path d="M14 9C15.1046 9 16 8.10457 16 7C16 5.89543 15.1046 5 14 5C12.8954 5 12 5.89543 12 7C12 8.10457 12.8954 9 14 9Z" fill="#ADADAD"/>
</svg>
