<svg width="18" height="18" viewBox="0 0 18 18" fill="none" xmlns="http://www.w3.org/2000/svg">
<path d="M9.00021 13.5004C6.873 13.5004 5.14307 11.7705 5.14307 9.64328C5.14307 7.51606 6.873 5.78613 9.00021 5.78613C11.1274 5.78613 12.8574 7.51606 12.8574 9.64328C12.8574 11.7705 11.1274 13.5004 9.00021 13.5004ZM9.00021 7.07185C7.58207 7.07185 6.42878 8.22513 6.42878 9.64328C6.42878 11.0614 7.58207 12.2147 9.00021 12.2147C10.4184 12.2147 11.5716 11.0614 11.5716 9.64328C11.5716 8.22513 10.4184 7.07185 9.00021 7.07185Z" fill="#ADADAD"/>
<path d="M15.261 16.0716H2.73942C1.58357 16.0716 0.643066 15.1587 0.643066 14.0356V5.89321C0.643066 4.77014 1.58357 3.85728 2.73942 3.85728H5.44971C5.86242 1.92871 6.42621 1.92871 6.70842 1.92871H11.3961C11.8333 1.92871 12.3064 2.17235 12.5796 3.85728H15.2616C16.4169 3.85728 17.3574 4.77014 17.3574 5.89321V14.0363C17.3574 15.1587 16.4169 16.0716 15.261 16.0716ZM2.73942 5.143C2.292 5.143 1.92878 5.47921 1.92878 5.89321V14.0363C1.92878 14.4496 2.292 14.7859 2.73942 14.7859H15.2616C15.7084 14.7859 16.0716 14.4496 16.0716 14.0356V5.89321C16.0716 5.47921 15.7084 5.143 15.261 5.143H12.0184C11.6919 5.143 11.4167 4.89807 11.3801 4.57342C11.3196 4.05592 11.2059 3.49793 11.1075 3.21443H6.97521C6.85821 3.49407 6.70521 4.07842 6.61585 4.6075C6.56378 4.91607 6.29571 5.143 5.982 5.143H2.73942Z" fill="#ADADAD"/>
</svg>
