<svg width="28" height="28" viewBox="0 0 28 28" fill="none" xmlns="http://www.w3.org/2000/svg">
<path d="M26.7569 9.857L25.7279 8.142L20.9659 11H12.2429V3L11.2429 2H10.2429C5.27992 2 1.24292 6.038 1.24292 11V12V15C1.24292 16.654 2.58892 18 4.24292 18H5.62492L4.58592 20.078C3.24692 20.379 2.24292 21.572 2.24292 23C2.24292 24.654 3.58892 26 5.24292 26C6.89692 26 8.24292 24.654 8.24292 23C8.24292 21.866 7.60292 20.888 6.67192 20.379L7.86092 18H15.6249L16.8139 20.379C15.8829 20.889 15.2429 21.866 15.2429 23C15.2429 24.654 16.5889 26 18.2429 26C19.8969 26 21.2429 24.654 21.2429 23C21.2429 21.572 20.2379 20.379 18.8999 20.078L17.8609 18H19.2429C20.8969 18 22.2429 16.654 22.2429 15V12.566L26.7569 9.857ZM5.24292 24C4.69092 24 4.24292 23.551 4.24292 23C4.24292 22.449 4.69092 22 5.24292 22C5.79492 22 6.24292 22.449 6.24292 23C6.24292 23.551 5.79392 24 5.24292 24ZM18.2429 24C17.6909 24 17.2429 23.551 17.2429 23C17.2429 22.449 17.6909 22 18.2429 22C18.7949 22 19.2429 22.449 19.2429 23C19.2429 23.551 18.7939 24 18.2429 24ZM10.2429 4V11H3.24292C3.24292 7.14 6.38292 4 10.2429 4ZM20.2429 15C20.2429 15.551 19.7949 16 19.2429 16H4.24292C3.69092 16 3.24292 15.551 3.24292 15V13H11.2429H20.2429V15Z" fill="#ADADAD"/>
</svg>
