<svg width="18" height="18" viewBox="0 0 18 18" fill="none" xmlns="http://www.w3.org/2000/svg">
<path d="M13.7925 4.50014C13.05 3.80264 10.9324 1.92871 9.64286 1.92871H1.28571C0.576643 1.92871 0 2.50535 0 3.21443V7.07157C0 7.74592 0.696214 8.19335 1.899 8.32L1.46121 10.9467C0.808071 11.0046 0 11.2399 0 12.2144V14.143C0 14.8521 0.576643 15.4287 1.28571 15.4287H7.07143C7.7805 15.4287 8.35714 14.8521 8.35714 14.143V12.2144C8.35714 11.5054 7.7805 10.9287 7.07143 10.9287H5.994L6.22929 9.643H6.50893C6.78471 9.643 7.04443 9.53243 7.24114 9.33121C7.48929 9.07793 7.60886 8.70635 7.66543 8.37785L9.64286 8.35728C10.9324 8.35728 13.05 6.48335 13.7925 5.78585H18V4.50014H13.7925ZM9.63579 7.07157L7.06436 7.09857C6.89336 7.1005 6.73007 7.17121 6.61114 7.294C6.49093 7.41614 6.426 7.58264 6.42857 7.75364C6.43179 7.95935 6.39707 8.2165 6.35143 8.35793H5.69314C5.38329 8.35793 5.11714 8.58035 5.06186 8.88507L4.59193 11.4565C4.55721 11.6442 4.608 11.8371 4.73014 11.9836C4.85164 12.1296 5.03229 12.2144 5.22321 12.2144H7.07143V14.143H1.28571V12.2736C1.39114 12.2479 1.6065 12.2144 2.00893 12.2144C2.32329 12.2144 2.59136 11.9869 2.64279 11.6776L3.28564 7.8205C3.31714 7.63407 3.26443 7.44378 3.14164 7.29914C3.02014 7.1545 2.84079 7.07157 2.65179 7.07157C1.9395 7.07157 1.48307 6.95778 1.28571 6.871V3.21443H9.64286C10.1649 3.21443 11.4776 4.14657 12.5923 5.143C11.4782 6.14007 10.1649 7.07157 9.63579 7.07157Z" fill="#ADADAD"/>
<path d="M16.7144 14.1429H12.8945V15.4286H16.7144V16.0714H18.0001V13.5H16.7144V14.1429Z" fill="#ADADAD"/>
<path d="M15.3912 12.8576V10.2861H14.1428V10.929H10.2856V12.2147H14.1428V12.8576H15.3912Z" fill="#ADADAD"/>
</svg>
