<svg width="18" height="18" viewBox="0 0 18 18" fill="none" xmlns="http://www.w3.org/2000/svg">
<path d="M16.7143 2.57129H1.28571C0.576643 2.57129 0 3.14793 0 3.857V13.4999C0 14.2089 0.576643 14.7856 1.28571 14.7856H1.92857V15.4284H3.21429V14.7856H14.7857V15.4284H16.0714V14.7856H16.7143C17.4234 14.7856 18 14.2089 18 13.4999V3.857C18 3.14793 17.4234 2.57129 16.7143 2.57129ZM16.7143 13.4999H1.28571V3.857H16.7143V13.4999Z" fill="#ADADAD"/>
<path d="M13.5001 12.8571H2.57157C2.21607 12.8571 1.92871 12.5691 1.92871 12.2143V5.14286C1.92871 4.788 2.21607 4.5 2.57157 4.5H13.5001C13.8556 4.5 14.143 4.788 14.143 5.14286V12.2143C14.143 12.5691 13.8556 12.8571 13.5001 12.8571ZM3.21443 11.5714H12.8573V5.78571H3.21443V11.5714Z" fill="#ADADAD"/>
<path d="M15.4285 6.42829C15.7835 6.42829 16.0714 6.14048 16.0714 5.78544C16.0714 5.4304 15.7835 5.14258 15.4285 5.14258C15.0735 5.14258 14.7856 5.4304 14.7856 5.78544C14.7856 6.14048 15.0735 6.42829 15.4285 6.42829Z" fill="#ADADAD"/>
<path d="M15.4285 8.99958C15.7835 8.99958 16.0714 8.71176 16.0714 8.35672C16.0714 8.00168 15.7835 7.71387 15.4285 7.71387C15.0735 7.71387 14.7856 8.00168 14.7856 8.35672C14.7856 8.71176 15.0735 8.99958 15.4285 8.99958Z" fill="#ADADAD"/>
<path d="M15.4285 11.5709C15.7835 11.5709 16.0714 11.2831 16.0714 10.928C16.0714 10.573 15.7835 10.2852 15.4285 10.2852C15.0735 10.2852 14.7856 10.573 14.7856 10.928C14.7856 11.2831 15.0735 11.5709 15.4285 11.5709Z" fill="#ADADAD"/>
</svg>
