<svg width="20" height="20" viewBox="0 0 20 20" fill="none" xmlns="http://www.w3.org/2000/svg">
<path d="M18.5714 4.99986H17.1429C17.1429 4.212 16.5021 3.57129 15.7143 3.57129H14.2857C13.4979 3.57129 12.8571 4.212 12.8571 4.99986V9.28557H7.14286V4.99986C7.14286 4.212 6.50214 3.57129 5.71429 3.57129H4.28571C3.49786 3.57129 2.85714 4.212 2.85714 4.99986H1.42857C0.640714 4.99986 0 5.64057 0 6.42843V13.5713C0 14.3591 0.640714 14.9999 1.42857 14.9999H2.85714C2.85714 15.7877 3.49786 16.4284 4.28571 16.4284H5.71429C6.50214 16.4284 7.14286 15.7877 7.14286 14.9999V10.7141H12.8571V14.9999C12.8571 15.7877 13.4979 16.4284 14.2857 16.4284H15.7143C16.5021 16.4284 17.1429 15.7877 17.1429 14.9999H18.5714C19.3593 14.9999 20 14.3591 20 13.5713V6.42843C20 5.64057 19.3593 4.99986 18.5714 4.99986ZM2.85714 13.5713H1.42857V6.42843H2.85714V13.5713ZM5.71429 14.9999H4.28571V4.99986H5.71429V14.9999ZM15.7143 14.9999H14.2857V4.99986H15.7143V14.9999ZM18.5714 13.5713H17.1429V6.42843H18.5714V13.5713Z" fill="#ADADAD"/>
</svg>
