<svg width="28" height="28" viewBox="0 0 28 28" fill="none" xmlns="http://www.w3.org/2000/svg">
<path d="M26 7H24C24 5.897 23.103 5 22 5H20C18.897 5 18 5.897 18 7V13H10V7C10 5.897 9.103 5 8 5H6C4.897 5 4 5.897 4 7H2C0.897 7 0 7.897 0 9V19C0 20.103 0.897 21 2 21H4C4 22.103 4.897 23 6 23H8C9.103 23 10 22.103 10 21V15H18V21C18 22.103 18.897 23 20 23H22C23.103 23 24 22.103 24 21H26C27.103 21 28 20.103 28 19V9C28 7.897 27.103 7 26 7ZM4 19H2V9H4V19ZM8 21H6V7H8V21ZM22 21H20V7H22V21ZM26 19H24V9H26V19Z" fill="#ADADAD"/>
</svg>
