<svg width="28" height="28" viewBox="0 0 28 28" fill="none" xmlns="http://www.w3.org/2000/svg">
<path d="M26 4H2C0.897 4 0 4.897 0 6V21C0 22.103 0.897 23 2 23H3V24H5V23H23V24H25V23H26C27.103 23 28 22.103 28 21V6C28 4.897 27.103 4 26 4ZM26 21H2V6H26V21Z" fill="#ADADAD"/>
<path d="M21 20H4C3.447 20 3 19.552 3 19V8C3 7.448 3.447 7 4 7H21C21.553 7 22 7.448 22 8V19C22 19.552 21.553 20 21 20ZM5 18H20V9H5V18Z" fill="#ADADAD"/>
<path d="M24 10C24.5523 10 25 9.55228 25 9C25 8.44772 24.5523 8 24 8C23.4477 8 23 8.44772 23 9C23 9.55228 23.4477 10 24 10Z" fill="#ADADAD"/>
<path d="M24 14C24.5523 14 25 13.5523 25 13C25 12.4477 24.5523 12 24 12C23.4477 12 23 12.4477 23 13C23 13.5523 23.4477 14 24 14Z" fill="#ADADAD"/>
<path d="M24 18C24.5523 18 25 17.5523 25 17C25 16.4477 24.5523 16 24 16C23.4477 16 23 16.4477 23 17C23 17.5523 23.4477 18 24 18Z" fill="#ADADAD"/>
</svg>
