<svg width="28" height="28" viewBox="0 0 28 28" fill="none" xmlns="http://www.w3.org/2000/svg">
<path d="M26.3861 17.643L23.3291 5.022C23.3181 4.976 23.3041 4.93 23.2861 4.886C22.8271 3.74 21.7341 3 20.5001 3H18.5001C18.5001 1.897 17.6031 1 16.5001 1H11.5001C10.3971 1 9.50008 1.897 9.50008 3H7.50008C6.20708 3 5.06308 3.824 4.63108 5.132L1.60308 17.659C1.42708 18.186 1.47908 18.767 1.74708 19.254C2.01408 19.741 2.47608 20.098 3.03608 20.237L5.94408 20.899L5.52708 23.836C5.38808 24.666 5.78608 25.498 6.51608 25.908C7.82908 26.643 10.3461 27 14.2101 27C17.9021 27 20.0741 26.666 21.4731 25.882C22.2021 25.473 22.6001 24.64 22.4651 23.835L22.0511 20.902L24.9851 20.248C25.5471 20.108 26.0181 19.732 26.2821 19.217C26.5301 18.728 26.5671 18.159 26.3861 17.643ZM11.4991 3H16.5001V4H11.4991V3ZM7.51008 9.859L6.22808 18.899L3.52408 18.211L6.55108 5.684C6.68708 5.275 7.06908 5 7.50008 5H9.77808C10.1251 5.595 10.7631 6 11.5001 6H13.5341L14.1761 25C9.66108 24.997 8.05008 24.474 7.50408 24.141L9.49008 10.141L7.51008 9.859ZM21.7701 18.915L20.4901 9.86L18.5101 10.14L20.4941 24.137C19.6771 24.595 18.2771 24.86 16.1751 24.957L15.5341 6H16.5001C17.2371 6 17.8751 5.595 18.2221 5H20.5001C20.8921 5 21.2401 5.224 21.4051 5.574L24.4561 18.172C24.4671 18.218 24.5071 18.257 24.5241 18.302L21.7701 18.915Z" fill="#ADADAD"/>
</svg>
