<svg width="28" height="22" viewBox="0 0 28 22" fill="none" xmlns="http://www.w3.org/2000/svg">
<path d="M21.455 4C20.3 2.915 17.006 0 15 0H2C0.897 0 0 0.897 0 2V8C0 9.049 1.083 9.745 2.954 9.942L2.273 14.028C1.257 14.118 0 14.484 0 16V19C0 20.103 0.897 21 2 21H11C12.103 21 13 20.103 13 19V16C13 14.897 12.103 14 11 14H9.324L9.69 12H10.125C10.554 12 10.958 11.828 11.264 11.515C11.65 11.121 11.836 10.543 11.924 10.032L15 10C17.006 10 20.3 7.085 21.455 6H28V4H21.455ZM14.989 8L10.989 8.042C10.723 8.045 10.469 8.155 10.284 8.346C10.097 8.536 9.996 8.795 10 9.061C10.005 9.381 9.951 9.781 9.88 10.001H8.856C8.374 10.001 7.96 10.347 7.874 10.821L7.143 14.821C7.089 15.113 7.168 15.413 7.358 15.641C7.547 15.868 7.828 16 8.125 16H11V19H2V16.092C2.164 16.052 2.499 16 3.125 16C3.614 16 4.031 15.646 4.111 15.165L5.111 9.165C5.16 8.875 5.078 8.579 4.887 8.354C4.698 8.129 4.419 8 4.125 8C3.017 8 2.307 7.823 2 7.688V2H15C15.812 2 17.854 3.45 19.588 5C17.855 6.551 15.812 8 14.989 8Z" fill="#ADADAD"/>
<path d="M26.0001 19H20.0581V21H26.0001V22H28.0001V18H26.0001V19Z" fill="#ADADAD"/>
<path d="M23.942 17V13H22V14H16V16H22V17H23.942Z" fill="#ADADAD"/>
</svg>
