<svg width="70" height="70" viewBox="0 0 70 70" fill="none" xmlns="http://www.w3.org/2000/svg">
    <mask id="path-1-inside-1" fill="white">
        <path d="M34.973 43.8598L20.2157 29.1025C19.9277 28.8145 19.53 28.6364 19.0909 28.6364C18.2111 28.6364 17.5 29.3491 17.5 30.2273C17.5 30.6664 17.6766 31.0641 17.9661 31.3536L33.8752 47.2611C34.1648 47.5507 34.5609 47.7273 35 47.7273C35.4534 47.7273 35.8559 47.5348 36.147 47.2309L36.1518 47.2373L62.7168 19.4059C62.7184 19.4091 62.7216 19.4123 62.7232 19.4155L64.995 17.0323C64.9934 17.0307 64.9918 17.0275 64.9902 17.0243L69.5609 12.2357L69.5561 12.2309C69.8282 11.9461 70 11.5627 70 11.1364C70 10.2582 69.2889 9.54545 68.4091 9.54545C67.9557 9.54545 67.5532 9.73954 67.262 10.0418L67.2589 10.0386L63.1702 14.3214C63.167 14.3166 63.1639 14.3118 63.1607 14.3086L60.9414 16.6345C60.9445 16.6393 60.9461 16.6441 60.9493 16.6473L34.973 43.8598ZM67.1873 21.5855C66.562 20.9698 65.5534 20.9777 64.9377 21.6045C64.5002 22.05 64.3921 22.6864 64.583 23.24L64.548 23.2511C65.9973 26.8895 66.8182 30.8461 66.8182 35C66.8182 52.5732 52.5732 66.8182 35 66.8182C17.4284 66.8182 3.18182 52.5732 3.18182 35C3.18182 17.4268 17.4284 3.18182 35 3.18182C43.9934 3.18182 52.1023 6.92523 57.8852 12.9261L57.9059 12.9055C58.5359 13.4702 59.4984 13.4575 60.0982 12.8482C60.7139 12.2214 60.7059 11.2159 60.0791 10.5986C60.0202 10.5398 59.9423 10.5143 59.877 10.4666C53.5389 4.02182 44.7555 0 35 0C15.6705 0 0 15.6705 0 35C0 54.3295 15.6705 70 35 70C54.3295 70 70 54.3295 70 35C70 30.5009 69.1202 26.215 67.5739 22.2616C67.4991 22.0166 67.3829 21.7795 67.1873 21.5855Z"/>
    </mask>
    <path d="M34.973 43.8598L20.2157 29.1025C19.9277 28.8145 19.53 28.6364 19.0909 28.6364C18.2111 28.6364 17.5 29.3491 17.5 30.2273C17.5 30.6664 17.6766 31.0641 17.9661 31.3536L33.8752 47.2611C34.1648 47.5507 34.5609 47.7273 35 47.7273C35.4534 47.7273 35.8559 47.5348 36.147 47.2309L36.1518 47.2373L62.7168 19.4059C62.7184 19.4091 62.7216 19.4123 62.7232 19.4155L64.995 17.0323C64.9934 17.0307 64.9918 17.0275 64.9902 17.0243L69.5609 12.2357L69.5561 12.2309C69.8282 11.9461 70 11.5627 70 11.1364C70 10.2582 69.2889 9.54545 68.4091 9.54545C67.9557 9.54545 67.5532 9.73954 67.262 10.0418L67.2589 10.0386L63.1702 14.3214C63.167 14.3166 63.1639 14.3118 63.1607 14.3086L60.9414 16.6345C60.9445 16.6393 60.9461 16.6441 60.9493 16.6473L34.973 43.8598ZM67.1873 21.5855C66.562 20.9698 65.5534 20.9777 64.9377 21.6045C64.5002 22.05 64.3921 22.6864 64.583 23.24L64.548 23.2511C65.9973 26.8895 66.8182 30.8461 66.8182 35C66.8182 52.5732 52.5732 66.8182 35 66.8182C17.4284 66.8182 3.18182 52.5732 3.18182 35C3.18182 17.4268 17.4284 3.18182 35 3.18182C43.9934 3.18182 52.1023 6.92523 57.8852 12.9261L57.9059 12.9055C58.5359 13.4702 59.4984 13.4575 60.0982 12.8482C60.7139 12.2214 60.7059 11.2159 60.0791 10.5986C60.0202 10.5398 59.9423 10.5143 59.877 10.4666C53.5389 4.02182 44.7555 0 35 0C15.6705 0 0 15.6705 0 35C0 54.3295 15.6705 70 35 70C54.3295 70 70 54.3295 70 35C70 30.5009 69.1202 26.215 67.5739 22.2616C67.4991 22.0166 67.3829 21.7795 67.1873 21.5855Z"
          fill="black"/>
    <path d="M34.973 43.8598L26.4877 52.3451L35.1724 61.0298L43.6531 52.1456L34.973 43.8598ZM20.2157 29.1025L28.701 20.6172L20.2157 29.1025ZM17.9661 31.3536L9.48086 39.8389L9.48128 39.8393L17.9661 31.3536ZM33.8752 47.2611L42.3605 38.7759L42.3601 38.7754L33.8752 47.2611ZM36.147 47.2309L45.7465 40.0302L37.263 28.7207L27.4822 38.929L36.147 47.2309ZM36.1518 47.2373L26.5524 54.438L35.0521 65.7692L44.8323 55.5228L36.1518 47.2373ZM62.7168 19.4059L73.4499 14.0393L65.8186 -1.22345L54.0364 11.1204L62.7168 19.4059ZM62.7232 19.4155L51.9901 24.782L59.6267 40.0552L71.409 27.6954L62.7232 19.4155ZM64.995 17.0323L73.6808 25.3122L81.765 16.8317L73.4803 8.54699L64.995 17.0323ZM64.9902 17.0243L56.3097 8.73889L50.4833 14.8432L54.2571 22.3909L64.9902 17.0243ZM69.5609 12.2357L78.2414 20.5211L86.3342 12.0424L78.0482 3.75242L69.5609 12.2357ZM69.5561 12.2309L60.8792 3.94174L52.7792 12.4206L61.0688 20.7142L69.5561 12.2309ZM67.262 10.0418L58.7747 18.5251L67.4208 27.1752L75.905 18.3664L67.262 10.0418ZM67.2589 10.0386L75.7462 1.55538L67.0619 -7.13306L58.5792 1.75231L67.2589 10.0386ZM63.1702 14.3214L53.1856 20.9778L61.4998 33.4491L71.8499 22.6077L63.1702 14.3214ZM63.1607 14.3086L71.646 5.82336L62.9594 -2.86325L54.4788 6.02462L63.1607 14.3086ZM60.9414 16.6345L52.2595 8.35053L45.6291 15.2994L50.9568 23.2909L60.9414 16.6345ZM60.9493 16.6473L69.6295 24.9331L77.725 16.4524L69.4346 8.16199L60.9493 16.6473ZM67.1873 21.5855L75.6378 13.0656L75.6225 13.0504L75.607 13.0352L67.1873 21.5855ZM64.9377 21.6045L56.3767 13.1957L56.3764 13.196L64.9377 21.6045ZM64.583 23.24L68.2215 34.6751L79.9343 30.9482L75.9274 19.3281L64.583 23.24ZM64.548 23.2511L60.9094 11.8161L48.632 15.7226L53.3999 27.6919L64.548 23.2511ZM57.8852 12.9261L49.2445 21.253L57.7265 30.0548L66.3702 21.4117L57.8852 12.9261ZM57.9059 12.9055L65.916 3.97024L57.4556 -3.61422L49.4209 4.41986L57.9059 12.9055ZM60.0982 12.8482L68.6502 21.2662L68.6592 21.2571L60.0982 12.8482ZM60.0791 10.5986L51.5938 19.0839L51.6264 19.1165L51.6592 19.1488L60.0791 10.5986ZM59.877 10.4666L51.3213 18.8808L52.0046 19.5756L52.7909 20.151L59.877 10.4666ZM67.5739 22.2616L56.0965 25.7644L56.2308 26.2044L56.3984 26.6329L67.5739 22.2616ZM43.4582 35.3745L28.701 20.6172L11.7304 37.5878L26.4877 52.3451L43.4582 35.3745ZM28.701 20.6172C26.257 18.1733 22.8437 16.6364 19.0909 16.6364V40.6364C16.2163 40.6364 13.5984 39.4558 11.7304 37.5878L28.701 20.6172ZM19.0909 16.6364C11.5759 16.6364 5.5 22.7295 5.5 30.2273H29.5C29.5 35.9687 24.8464 40.6364 19.0909 40.6364V16.6364ZM5.5 30.2273C5.5 33.9587 7.01965 37.3777 9.48086 39.8389L26.4514 22.8684C28.3335 24.7505 29.5 27.3741 29.5 30.2273H5.5ZM9.48128 39.8393L25.3904 55.7468L42.3601 38.7754L26.451 22.8679L9.48128 39.8393ZM25.3899 55.7464C27.8419 58.1983 31.2559 59.7273 35 59.7273V35.7273C37.8659 35.7273 40.4877 36.903 42.3605 38.7759L25.3899 55.7464ZM35 59.7273C38.9802 59.7273 42.4401 58.0082 44.8119 55.5328L27.4822 38.929C29.2717 37.0613 31.9267 35.7273 35 35.7273V59.7273ZM26.5476 54.4316L26.5524 54.438L45.7513 40.0365L45.7465 40.0302L26.5476 54.4316ZM44.8323 55.5228L71.3973 27.6914L54.0364 11.1204L27.4714 38.9518L44.8323 55.5228ZM51.9837 24.7725C52.0727 24.9505 52.1593 25.1125 52.2401 25.2574C52.321 25.4022 52.3982 25.5333 52.4689 25.6495C52.5397 25.7657 52.606 25.8701 52.6655 25.9614C52.7251 26.0527 52.7798 26.1339 52.8275 26.2034C52.8753 26.273 52.9181 26.3337 52.9539 26.3838C52.9897 26.4338 53.0205 26.4763 53.0443 26.5086C53.0563 26.525 53.0669 26.5394 53.0759 26.5516C53.0849 26.5637 53.0926 26.5741 53.0986 26.5821C53.1046 26.59 53.1094 26.5965 53.1123 26.6004C53.1138 26.6024 53.115 26.6041 53.1158 26.6051C53.1162 26.6056 53.1165 26.606 53.1167 26.6063C53.1168 26.6064 53.1169 26.6065 53.1169 26.6066C53.117 26.6066 53.117 26.6067 53.117 26.6067C53.1175 26.6073 53.1153 26.6044 53.1128 26.601C53.11 26.5973 53.1053 26.591 53.0995 26.5833C53.0937 26.5755 53.0861 26.5653 53.0773 26.5534C53.0684 26.5414 53.0579 26.5271 53.046 26.511C53.0226 26.479 52.992 26.437 52.9566 26.3874C52.921 26.3377 52.8785 26.2773 52.831 26.2082C52.7835 26.1391 52.7291 26.0583 52.6698 25.9674C52.6105 25.8764 52.5445 25.7724 52.474 25.6567C52.4035 25.5409 52.3265 25.4102 52.2459 25.2657C52.1652 25.1213 52.0789 24.9597 51.9901 24.782L73.4563 14.0489C73.3673 13.8708 73.2807 13.7088 73.1999 13.564C73.119 13.4191 73.0418 13.288 72.9711 13.1719C72.9003 13.0557 72.834 12.9513 72.7745 12.86C72.7149 12.7687 72.6602 12.6875 72.6124 12.6179C72.5647 12.5484 72.5219 12.4877 72.4861 12.4376C72.4503 12.3875 72.4195 12.3451 72.3957 12.3128C72.3837 12.2964 72.3731 12.2819 72.3641 12.2698C72.3551 12.2577 72.3474 12.2473 72.3414 12.2393C72.3354 12.2313 72.3306 12.2249 72.3277 12.2209C72.3262 12.2189 72.325 12.2173 72.3242 12.2163C72.3238 12.2158 72.3235 12.2154 72.3233 12.2151C72.3232 12.215 72.3231 12.2149 72.3231 12.2148C72.323 12.2147 72.323 12.2147 72.323 12.2147C72.3225 12.2141 72.3247 12.217 72.3272 12.2204C72.33 12.2241 72.3347 12.2303 72.3405 12.2381C72.3463 12.2459 72.3539 12.2561 72.3627 12.268C72.3716 12.28 72.3821 12.2942 72.394 12.3104C72.4174 12.3423 72.448 12.3843 72.4835 12.434C72.519 12.4837 72.5615 12.544 72.609 12.6132C72.6565 12.6823 72.7109 12.7631 72.7702 12.854C72.8295 12.9449 72.8955 13.0489 72.966 13.1647C73.0365 13.2805 73.1134 13.4112 73.1941 13.5556C73.2748 13.7001 73.3611 13.8617 73.4499 14.0393L51.9837 24.7725ZM71.409 27.6954L73.6808 25.3122L56.3092 8.75235L54.0374 11.1355L71.409 27.6954ZM73.4803 8.54699C74.1465 9.21319 74.5978 9.82299 74.8468 10.181C75.1119 10.5624 75.3029 10.885 75.4137 11.0791C75.609 11.421 75.7622 11.7354 75.7234 11.6578L54.2571 22.3909C54.2199 22.3164 54.3747 22.634 54.5715 22.9787C54.6831 23.1742 54.8749 23.498 55.1409 23.8806C55.3906 24.2398 55.8427 24.8506 56.5097 25.5176L73.4803 8.54699ZM73.6708 25.3097L78.2414 20.5211L60.8804 3.95025L56.3097 8.73889L73.6708 25.3097ZM78.0482 3.75242L78.0434 3.74765L61.0688 20.7142L61.0736 20.7189L78.0482 3.75242ZM78.2331 20.5201C80.4753 18.173 82 14.8782 82 11.1364H58C58 8.24725 59.1811 5.71927 60.8792 3.94174L78.2331 20.5201ZM82 11.1364C82 3.63858 75.9241 -2.45455 68.4091 -2.45455V21.5455C62.6536 21.5455 58 16.8778 58 11.1364H82ZM68.4091 -2.45455C64.4038 -2.45455 60.9619 -0.715189 58.619 1.71724L75.905 18.3664C74.1445 20.1943 71.5076 21.5455 68.4091 21.5455V-2.45455ZM75.7494 1.55856L75.7462 1.55538L58.7716 18.5219L58.7747 18.5251L75.7494 1.55856ZM58.5792 1.75231L54.4905 6.03504L71.8499 22.6077L75.9385 18.325L58.5792 1.75231ZM73.1548 7.66496C73.1548 7.66488 73.1542 7.66396 73.1535 7.66289C73.1527 7.66174 73.1515 7.65997 73.1501 7.65782C73.1473 7.65361 73.1428 7.64688 73.1372 7.63865C73.1265 7.62263 73.1087 7.59612 73.0865 7.56353C73.0444 7.50176 72.9683 7.39101 72.8695 7.25526C72.7116 7.03826 72.2879 6.46527 71.646 5.82336L54.6754 22.7939C54.0367 22.1552 53.6161 21.5862 53.4614 21.3736C53.2927 21.1417 53.1561 20.9335 53.1856 20.9778L73.1548 7.66496ZM54.4788 6.02462L52.2595 8.35053L69.6232 24.9186L71.8426 22.5927L54.4788 6.02462ZM50.9568 23.2909C50.7064 22.9153 50.5302 22.6043 50.4439 22.4483C50.402 22.3725 50.3696 22.3119 50.3668 22.3067C50.3528 22.2806 50.383 22.3371 50.4117 22.3898C50.4679 22.4928 50.6678 22.859 50.9636 23.3026C51.2722 23.7652 51.7604 24.4289 52.464 25.1326L69.4346 8.16199C70.1367 8.86404 70.6235 9.52594 70.9308 9.98666C71.2253 10.4283 71.4239 10.7924 71.479 10.8932C71.5071 10.9448 71.5367 11.0002 71.5221 10.9729C71.5187 10.9667 71.4857 10.9049 71.4431 10.8279C71.3555 10.6696 71.178 10.3561 70.926 9.97814L50.9568 23.2909ZM52.2692 8.36143L26.2928 35.5739L43.6531 52.1456L69.6295 24.9331L52.2692 8.36143ZM75.607 13.0352C70.2558 7.76561 61.6411 7.83605 56.3767 13.1957L73.4987 30.0134C69.4657 34.1194 62.8683 34.1739 58.7675 30.1358L75.607 13.0352ZM56.3764 13.196C52.4761 17.1672 51.6959 22.6784 53.2385 27.1519L75.9274 19.3281C77.0882 22.6944 76.5244 26.9328 73.4991 30.013L56.3764 13.196ZM60.9444 11.8049L60.9094 11.8161L68.1865 34.6862L68.2215 34.6751L60.9444 11.8049ZM53.3999 27.6919C54.3157 29.9909 54.8182 32.4442 54.8182 35H78.8182C78.8182 29.2481 77.6789 23.7882 75.6961 18.8104L53.3999 27.6919ZM54.8182 35C54.8182 45.9458 45.9458 54.8182 35 54.8182V78.8182C59.2006 78.8182 78.8182 59.2006 78.8182 35H54.8182ZM35 54.8182C24.0554 54.8182 15.1818 45.9454 15.1818 35H-8.81818C-8.81818 59.201 10.8014 78.8182 35 78.8182V54.8182ZM15.1818 35C15.1818 24.0546 24.0554 15.1818 35 15.1818V-8.81818C10.8014 -8.81818 -8.81818 10.799 -8.81818 35H15.1818ZM35 15.1818C40.5874 15.1818 45.6197 17.4917 49.2445 21.253L66.526 4.59922C58.5848 -3.64121 47.3994 -8.81818 35 -8.81818V15.1818ZM66.3702 21.4117L66.3909 21.391L49.4209 4.41986L49.4003 4.44054L66.3702 21.4117ZM49.8958 21.8407C55.1491 26.5501 63.4144 26.5853 68.6502 21.2662L51.5462 4.43015C55.5824 0.32968 61.9227 0.39034 65.916 3.97024L49.8958 21.8407ZM68.6592 21.2571C73.9146 15.9066 73.8438 7.31186 68.499 2.0485L51.6592 19.1488C47.5681 15.12 47.5131 8.53614 51.5372 4.43929L68.6592 21.2571ZM68.5644 2.11336C67.9169 1.46589 67.3004 0.994458 66.8278 0.669691C66.3746 0.358344 65.9969 0.144546 65.8637 0.0695721C65.8034 0.0356978 65.732 -0.00364349 65.7589 0.0112115C65.7597 0.0116934 65.8278 0.0491436 65.9151 0.0994478C66.0873 0.198561 66.4856 0.432814 66.9632 0.782227L52.7909 20.151C53.3011 20.5242 53.7336 20.7796 53.9406 20.8987C54.0453 20.959 54.1309 21.0062 54.1494 21.0164C54.1938 21.041 54.14 21.0113 54.0972 20.9873C53.999 20.932 53.6559 20.7386 53.236 20.4501C52.7965 20.1481 52.2118 19.702 51.5938 19.0839L68.5644 2.11336ZM68.4328 2.05236C59.9567 -6.56628 48.1372 -12 35 -12V12C41.3737 12 47.121 14.6099 51.3213 18.8808L68.4328 2.05236ZM35 -12C9.04304 -12 -12 9.04304 -12 35H12C12 22.2979 22.2979 12 35 12V-12ZM-12 35C-12 60.957 9.04304 82 35 82V58C22.2979 58 12 47.7021 12 35H-12ZM35 82C60.957 82 82 60.957 82 35H58C58 47.7021 47.7021 58 35 58V82ZM82 35C82 28.9189 80.8083 23.154 78.7494 17.8903L56.3984 26.6329C57.4322 29.276 58 32.0829 58 35H82ZM79.0512 18.7588C78.6033 17.291 77.6688 15.0801 75.6378 13.0656L58.7367 30.1053C57.0971 28.479 56.3949 26.7422 56.0965 25.7644L79.0512 18.7588Z"
          fill="#FF0003" mask="url(#path-1-inside-1)"/>
</svg>
