<svg width="70" height="70" viewBox="0 0 70 70" fill="none" xmlns="http://www.w3.org/2000/svg">
    <path fill-rule="evenodd" clip-rule="evenodd"
          d="M67 35C67 52.6731 52.6731 67 35 67C17.3269 67 3 52.6731 3 35C3 17.3269 17.3269 3 35 3C52.6731 3 67 17.3269 67 35ZM70 35C70 54.33 54.33 70 35 70C15.67 70 0 54.33 0 35C0 15.67 15.67 0 35 0C54.33 0 70 15.67 70 35ZM32.5405 41.6406L32.0674 14.8105H37.6338L37.1606 41.6406H32.5405ZM38.7192 51.6323C38.7192 53.8867 37.1328 55.501 34.8784 55.501C32.624 55.501 31.0098 53.8867 31.0098 51.6323C31.0098 49.3501 32.624 47.7358 34.8784 47.7358C37.1328 47.7358 38.7192 49.3501 38.7192 51.6323Z"
          fill="#FF0000"/>
</svg>
