<svg width="84" height="89" viewBox="0 0 84 89" fill="none" xmlns="http://www.w3.org/2000/svg">
    <g clip-path="url(#clip0)">
        <path d="M52.5825 88.9996C61.1059 88.9996 68.0156 82.0089 68.0156 73.3855C68.0156 64.7621 61.1059 57.7715 52.5825 57.7715C44.059 57.7715 37.1494 64.7621 37.1494 73.3855C37.1494 82.0089 44.059 88.9996 52.5825 88.9996Z"
              fill="#F7F7F6"/>
        <path d="M13.2283 52.1956C20.5342 52.1956 26.4567 46.2037 26.4567 38.8122C26.4567 31.4207 20.5342 25.4287 13.2283 25.4287C5.92253 25.4287 0 31.4207 0 38.8122C0 46.2037 5.92253 52.1956 13.2283 52.1956Z"
              fill="#F7F7F6"/>
        <path d="M61.9525 44.6115C74.1289 44.6115 83.9997 34.6249 83.9997 22.3058C83.9997 9.98663 74.1289 0 61.9525 0C49.7762 0 39.9053 9.98663 39.9053 22.3058C39.9053 34.6249 49.7762 44.6115 61.9525 44.6115Z"
              fill="#F7F7F6"/>
        <path d="M74.0789 19.5176H17.8584V78.6279C17.8584 79.8547 18.8505 80.8584 20.0631 80.8584H71.8741C73.0867 80.8584 74.0789 79.8547 74.0789 78.6279V19.5176Z"
              fill="#DEDEDE"/>
        <path d="M71.8741 9.47949H20.0631C18.8505 9.47949 17.8584 10.4833 17.8584 11.7101V19.5171H74.0789V11.7101C74.0789 10.4833 73.197 9.47949 71.8741 9.47949Z"
              fill="#DEDEDE"/>
        <path d="M68.3199 19.2744H17.9199V77.663H39.5199C55.4799 77.663 68.3199 65.1678 68.3199 49.6365V19.2744Z"
              fill="white"/>
        <path d="M68.5671 9.47949H20.0631C18.8505 9.47949 17.8584 10.4833 17.8584 11.7101V16.1712H61.9529C65.7009 16.1712 68.5671 13.1599 68.5671 9.47949Z"
              fill="white"/>
        <path d="M71.8743 81.639H20.0633C18.4097 81.639 17.0869 80.3007 17.0869 78.5162V19.4059C17.0869 18.9598 17.4176 18.5137 17.8586 18.5137H74.079C74.52 18.5137 74.9609 18.8483 74.9609 19.4059V78.5162C74.9609 80.3007 73.6381 81.639 71.8743 81.639ZM18.7405 20.2981V78.6277C18.7405 79.4084 19.4019 80.0776 20.1735 80.0776H71.9845C72.7562 80.0776 73.4176 79.4084 73.4176 78.6277V20.2981H18.7405Z"
              fill="#C8C8C8"/>
        <path d="M74.079 20.2984H17.8586C17.4176 20.2984 17.0869 19.9638 17.0869 19.4062V11.5992C17.0869 9.92624 18.4097 8.58789 20.0633 8.58789H71.8743C73.5278 8.58789 74.9609 9.92624 74.9609 11.5992V19.4062C74.9609 19.9638 74.6302 20.2984 74.079 20.2984ZM18.7405 18.6255H73.3074V11.5992C73.3074 10.8185 72.646 10.1493 71.8743 10.1493H20.0633C19.2916 10.1493 18.6302 10.8185 18.6302 11.5992V18.6255H18.7405Z"
              fill="#C8C8C8"/>
        <path d="M14.1412 65.1169L19.1299 70.1641L24.1965 65.038L19.2078 59.9909L14.1412 65.1169Z" fill="#DEDEDE"/>
        <path d="M15.7637 63.4603L18.2991 66.0255C18.74 66.4716 19.4015 66.4716 19.8424 66.0255L22.4881 63.3488L19.181 60.0029L15.7637 63.4603Z"
              fill="white"/>
        <path d="M19.0704 71.0443C18.8499 71.0443 18.6294 70.9328 18.5192 70.8212L13.5586 65.8024C13.2279 65.4678 13.2279 64.9102 13.5586 64.5756L18.6294 59.4453C18.9602 59.1107 19.5113 59.1107 19.842 59.4453L24.8027 64.4641C25.1334 64.7987 25.1334 65.3563 24.8027 65.6909L19.7318 70.8212C19.5113 70.9328 19.2909 71.0443 19.0704 71.0443ZM15.3224 65.1333L19.0704 68.9252L23.0389 64.9102L19.2909 61.1182L15.3224 65.1333Z"
              fill="#C8C8C8"/>
        <path d="M5.83792 71.1172L13.165 78.5303L20.2583 71.3538L12.9312 63.9408L5.83792 71.1172Z" fill="#DEDEDE"/>
        <path d="M8.04688 68.9248L11.5744 72.4938C12.4563 73.386 13.7792 73.386 14.661 72.4938L17.9681 69.1479L12.8973 64.0176L8.04688 68.9248Z"
              fill="white"/>
        <path d="M13.2281 79.2972C13.0077 79.2972 12.7872 79.1857 12.6769 79.0742L5.40135 71.7133C5.07064 71.3787 5.07064 70.821 5.40135 70.4864L12.4565 63.3486C12.7872 63.014 13.3384 63.014 13.6691 63.3486L20.9447 70.7095C21.2754 71.0441 21.2754 71.6017 20.9447 71.9363L13.8895 79.0742C13.6691 79.2972 13.4486 79.2972 13.2281 79.2972ZM7.0549 71.1556L13.2281 77.4012L19.1809 71.3787L13.0077 65.1331L7.0549 71.1556Z"
              fill="#C8C8C8"/>
        <path d="M4.62949 77.4009L7.05469 79.8545C8.37752 81.1929 10.5822 81.1929 11.9051 79.8545L13.2279 78.5162L5.95233 71.1553L4.62949 72.4936C3.19642 73.832 3.19642 76.0626 4.62949 77.4009Z"
              fill="white"/>
        <path d="M11.0236 76.2861L9.70075 77.6245C8.37791 78.9628 6.17319 78.9628 4.85036 77.6245L4.62988 77.4014L7.05508 79.8551C8.37791 81.1934 10.5826 81.1934 11.9055 79.8551L13.2283 78.5167L11.0236 76.2861Z"
              fill="#DEDEDE"/>
        <path d="M9.48038 81.6396C8.37802 81.6396 7.27566 81.1935 6.50401 80.4128L4.07881 77.9592C3.30716 77.1785 2.86621 76.0632 2.86621 74.9479C2.86621 73.8326 3.30716 72.7173 4.07881 71.9366L5.40164 70.5983C5.51188 70.3752 5.62212 70.2637 5.84259 70.2637C6.06306 70.2637 6.28353 70.3752 6.39377 70.4867L13.6694 77.8476C13.7796 77.9592 13.8898 78.1822 13.8898 78.4053C13.8898 78.6283 13.7796 78.8514 13.6694 78.9629L12.3465 80.3013C11.6851 81.1935 10.5827 81.6396 9.48038 81.6396ZM5.84259 72.2712L5.07094 73.0519C4.62999 73.498 4.29928 74.1672 4.29928 74.9479C4.29928 75.6171 4.51975 76.2862 5.07094 76.8439L7.49613 79.2975C8.48826 80.3013 10.252 80.3013 11.2442 79.2975L12.0158 78.5168L5.84259 72.2712Z"
              fill="#C8C8C8"/>
        <path d="M36.2676 25.0947C48.6141 25.0947 58.6456 35.2438 58.6456 47.7351C58.6456 60.2263 48.6141 70.3754 36.2676 70.3754C23.9211 70.3754 13.8896 60.2263 13.8896 47.7351C13.8896 35.2438 23.9211 25.0947 36.2676 25.0947Z"
              fill="white"/>
        <path d="M50.3781 30.1133C53.4648 34.0168 55.3388 38.9241 55.3388 44.389C55.3388 56.8802 45.3073 67.0293 32.9608 67.0293C27.6695 67.0293 22.7089 65.1333 18.8506 62.0105C22.9293 67.1409 29.2128 70.3752 36.2679 70.3752C48.6144 70.3752 58.6459 60.2261 58.6459 47.7348C58.6459 40.597 55.449 34.3514 50.3781 30.1133Z"
              fill="#DEDEDE"/>
        <path d="M36.2677 71.2673C23.4803 71.2673 13.0078 60.7836 13.0078 47.7347C13.0078 34.7974 23.37 24.2021 36.2677 24.2021C49.0551 24.2021 59.5275 34.6859 59.5275 47.7347C59.5275 60.6721 49.0551 71.2673 36.2677 71.2673ZM36.2677 25.8751C24.3621 25.8751 14.6614 35.6896 14.6614 47.7347C14.6614 59.7798 24.3621 69.5944 36.2677 69.5944C48.1732 69.5944 57.874 59.7798 57.874 47.7347C57.874 35.6896 48.1732 25.8751 36.2677 25.8751Z"
              fill="#C8C8C8"/>
        <path d="M50.5989 44.9465C50.5989 40.7084 47.1816 37.251 42.8824 37.251C40.0162 37.251 37.591 38.8124 36.2682 41.043C34.9454 38.8124 32.4099 37.251 29.654 37.251C25.3548 37.251 21.9375 40.7084 21.9375 44.9465C21.9375 54.0918 36.2682 62.9026 36.2682 62.9026C36.2682 62.9026 50.5989 53.9803 50.5989 44.9465Z"
              fill="white"/>
        <path d="M42.8818 37.1396C42.3306 37.1396 41.6692 37.2512 41.118 37.3627C42.7716 38.8126 43.7637 40.8201 43.7637 43.1622C43.7637 49.9655 35.7164 56.6572 31.6377 59.557C34.1731 61.5645 36.1574 62.7913 36.1574 62.7913C36.1574 62.7913 50.4881 53.9805 50.4881 44.8351C50.5983 40.597 47.181 37.1396 42.8818 37.1396Z"
              fill="#DEDEDE"/>
        <path d="M36.2673 63.683C36.1571 63.683 35.9366 63.683 35.8263 63.5714C35.2752 63.2368 21.0547 54.4261 21.0547 44.9461C21.0547 40.2619 24.913 36.3584 29.5429 36.3584C32.0783 36.3584 34.6137 37.5852 36.157 39.5927C37.8106 37.5852 40.2358 36.3584 42.7712 36.3584C47.5114 36.3584 51.2594 40.1504 51.2594 44.9461C51.2594 54.4261 37.1492 63.2368 36.4878 63.5714C36.598 63.5714 36.4878 63.683 36.2673 63.683ZM29.6531 38.0313C25.9051 38.0313 22.8185 41.1541 22.8185 44.9461C22.8185 52.6416 33.9523 60.3371 36.3775 61.8985C38.6925 60.3371 49.8263 52.6416 49.8263 44.9461C49.8263 41.1541 46.7397 38.0313 42.9917 38.0313C40.5665 38.0313 38.3618 39.3697 37.0389 41.4887C36.7082 42.0464 35.9366 42.0464 35.6059 41.4887C34.3933 39.2582 32.0783 38.0313 29.6531 38.0313Z"
              fill="#C8C8C8"/>
    </g>
    <defs>
        <clipPath id="clip0">
            <rect width="84" height="89" fill="white"/>
        </clipPath>
    </defs>
</svg>
