<svg width="152" height="159" viewBox="0 0 152 159" fill="none" xmlns="http://www.w3.org/2000/svg">
    <g clip-path="url(#clip0)">
        <path d="M95.1497 158.999C110.573 158.999 123.076 146.511 123.076 131.105C123.076 115.699 110.573 103.21 95.1497 103.21C79.7263 103.21 67.2231 115.699 67.2231 131.105C67.2231 146.511 79.7263 158.999 95.1497 158.999Z"
              fill="#F7F7F6"/>
        <path d="M23.937 93.2483C37.1571 93.2483 47.874 82.5435 47.874 69.3385C47.874 56.1335 37.1571 45.4287 23.937 45.4287C10.717 45.4287 0 56.1335 0 69.3385C0 82.5435 10.717 93.2483 23.937 93.2483Z"
              fill="#F7F7F6"/>
        <path d="M112.105 79.6992C134.138 79.6992 152 61.858 152 39.8496C152 17.8413 134.138 0 112.105 0C90.0716 0 72.21 17.8413 72.21 39.8496C72.21 61.858 90.0716 79.6992 112.105 79.6992Z"
              fill="#F7F7F6"/>
        <path d="M134.047 34.8682H32.3149V140.47C32.3149 142.661 34.1102 144.455 36.3044 144.455H130.058C132.252 144.455 134.047 142.661 134.047 140.47V34.8682Z"
              fill="#DEDEDE"/>
        <path d="M130.058 16.9355H36.3044C34.1102 16.9355 32.3149 18.7288 32.3149 20.9205V34.8679H134.047V20.9205C134.047 18.7288 132.451 16.9355 130.058 16.9355Z"
              fill="#DEDEDE"/>
        <path d="M123.627 34.4326H32.4268V138.745H71.5125C100.392 138.745 123.627 116.422 123.627 88.6749V34.4326Z"
              fill="white"/>
        <path d="M124.073 16.9355H36.3044C34.1102 16.9355 32.3149 18.7288 32.3149 20.9205V28.8904H112.105C118.887 28.8904 124.073 23.5107 124.073 16.9355Z"
              fill="white"/>
        <path d="M130.058 145.85H36.3043C33.3122 145.85 30.9185 143.459 30.9185 140.271V34.6692C30.9185 33.8722 31.5169 33.0752 32.3148 33.0752H134.047C134.845 33.0752 135.643 33.6729 135.643 34.6692V140.271C135.643 143.459 133.249 145.85 130.058 145.85ZM33.9106 36.2632V140.47C33.9106 141.865 35.1074 143.06 36.5038 143.06H130.257C131.653 143.06 132.85 141.865 132.85 140.47V36.2632H33.9106Z"
              fill="#C8C8C8"/>
        <path d="M134.047 36.2628H32.3148C31.5169 36.2628 30.9185 35.6651 30.9185 34.6689V20.7215C30.9185 17.7328 33.3122 15.3418 36.3043 15.3418H130.058C133.05 15.3418 135.643 17.7328 135.643 20.7215V34.6689C135.643 35.6651 135.044 36.2628 134.047 36.2628ZM33.9106 33.2741H132.651V20.7215C132.651 19.3268 131.454 18.1313 130.058 18.1313H36.3043C34.908 18.1313 33.7111 19.3268 33.7111 20.7215V33.2741H33.9106Z"
              fill="#C8C8C8"/>
        <path d="M25.5905 116.333L34.6177 125.35L43.7859 116.192L34.7587 107.175L25.5905 116.333Z" fill="#DEDEDE"/>
        <path d="M28.5249 113.372L33.1128 117.955C33.9107 118.752 35.1076 118.752 35.9055 117.955L40.6929 113.173L34.7086 107.195L28.5249 113.372Z"
              fill="white"/>
        <path d="M34.509 126.921C34.11 126.921 33.7111 126.722 33.5116 126.523L24.5352 117.556C23.9368 116.959 23.9368 115.962 24.5352 115.365L33.7111 106.199C34.3095 105.602 35.3069 105.602 35.9053 106.199L44.8817 115.165C45.4801 115.763 45.4801 116.759 44.8817 117.357L35.7058 126.523C35.3069 126.722 34.9079 126.921 34.509 126.921ZM27.7268 116.361L34.509 123.135L41.6901 115.962L34.9079 109.188L27.7268 116.361Z"
              fill="#C8C8C8"/>
        <path d="M10.5637 127.051L23.8223 140.295L36.6577 127.474L23.3991 114.231L10.5637 127.051Z" fill="#DEDEDE"/>
        <path d="M14.5615 123.135L20.9447 129.511C22.5405 131.105 24.9342 131.105 26.53 129.511L32.5143 123.534L23.3384 114.368L14.5615 123.135Z"
              fill="white"/>
        <path d="M23.9367 141.665C23.5378 141.665 23.1388 141.466 22.9394 141.267L9.77401 128.117C9.17559 127.519 9.17559 126.523 9.77401 125.925L22.5404 113.173C23.1388 112.575 24.1362 112.575 24.7346 113.173L37.9 126.323C38.4984 126.921 38.4984 127.917 37.9 128.515L25.1336 141.267C24.7346 141.665 24.3357 141.665 23.9367 141.665ZM12.7661 127.12L23.9367 138.278L34.7084 127.519L23.5378 116.361L12.7661 127.12Z"
              fill="#C8C8C8"/>
        <path d="M8.37799 138.277L12.7664 142.661C15.1601 145.051 19.1496 145.051 21.5433 142.661L23.937 140.27L10.7717 127.119L8.37799 129.51C5.78481 131.901 5.78481 135.886 8.37799 138.277Z"
              fill="white"/>
        <path d="M19.9475 136.285L17.5538 138.676C15.1601 141.067 11.1706 141.067 8.77688 138.676L8.37793 138.278L12.7664 142.661C15.1601 145.052 19.1496 145.052 21.5433 142.661L23.937 140.27L19.9475 136.285Z"
              fill="#DEDEDE"/>
        <path d="M17.155 145.849C15.1603 145.849 13.1655 145.052 11.7692 143.657L7.38075 139.274C5.98442 137.879 5.18652 135.886 5.18652 133.894C5.18652 131.901 5.98442 129.909 7.38075 128.514L9.77445 126.123C9.97393 125.725 10.1734 125.525 10.5724 125.525C10.9713 125.525 11.3703 125.725 11.5697 125.924L24.7351 139.074C24.9346 139.274 25.134 139.672 25.134 140.071C25.134 140.469 24.9346 140.867 24.7351 141.067L22.3414 143.458C21.1445 145.052 19.1498 145.849 17.155 145.849ZM10.5724 129.112L9.17602 130.507C8.37812 131.304 7.7797 132.499 7.7797 133.894C7.7797 135.089 8.17865 136.285 9.17602 137.281L13.5645 141.664C15.3598 143.458 18.5514 143.458 20.3466 141.664L21.743 140.27L10.5724 129.112Z"
              fill="#C8C8C8"/>
        <path d="M65.6277 44.8301C87.9689 44.8301 106.121 62.9617 106.121 85.2774C106.121 107.593 87.9689 125.725 65.6277 125.725C43.2865 125.725 25.1343 107.593 25.1343 85.2774C25.1343 62.9617 43.2865 44.8301 65.6277 44.8301Z"
              fill="white"/>
        <path d="M91.1602 53.7969C96.7455 60.7706 100.137 69.5375 100.137 79.3006C100.137 101.616 81.9844 119.748 59.6432 119.748C50.0684 119.748 41.092 116.361 34.1104 110.782C41.4909 119.947 52.861 125.725 65.6274 125.725C87.9686 125.725 106.121 107.594 106.121 85.2781C106.121 72.5262 100.336 61.3683 91.1602 53.7969Z"
              fill="#DEDEDE"/>
        <path d="M65.6273 127.319C42.4882 127.319 23.5381 108.59 23.5381 85.2777C23.5381 62.1649 42.2888 43.2363 65.6273 43.2363C88.7664 43.2363 107.717 61.9656 107.717 85.2777C107.717 108.39 88.7664 127.319 65.6273 127.319ZM65.6273 46.225C44.084 46.225 26.5302 63.7589 26.5302 85.2777C26.5302 106.796 44.084 124.33 65.6273 124.33C87.1707 124.33 104.724 106.796 104.724 85.2777C104.724 63.7589 87.1707 46.225 65.6273 46.225Z"
              fill="#C8C8C8"/>
        <path d="M91.5588 80.2969C91.5588 72.7255 85.3751 66.5488 77.5956 66.5488C72.4092 66.5488 68.0208 69.3383 65.6271 73.3233C63.2334 69.3383 58.6454 66.5488 53.6586 66.5488C45.879 66.5488 39.6953 72.7255 39.6953 80.2969C39.6953 96.6353 65.6271 112.376 65.6271 112.376C65.6271 112.376 91.5588 96.436 91.5588 80.2969Z"
              fill="white"/>
        <path d="M77.5955 66.3486C76.5981 66.3486 75.4013 66.5479 74.4039 66.7471C77.396 69.3374 79.1913 72.9238 79.1913 77.108C79.1913 89.2622 64.6296 101.217 57.249 106.398C61.837 109.984 65.4275 112.176 65.4275 112.176C65.4275 112.176 91.3593 96.4351 91.3593 80.0968C91.5587 72.5253 85.375 66.3486 77.5955 66.3486Z"
              fill="#DEDEDE"/>
        <path d="M65.6277 113.771C65.4282 113.771 65.0292 113.771 64.8298 113.572C63.8324 112.974 38.1001 97.2333 38.1001 80.2972C38.1001 71.9288 45.0817 64.9551 53.4597 64.9551C58.0476 64.9551 62.6355 67.1468 65.4282 70.7333C68.4203 67.1468 72.8088 64.9551 77.3967 64.9551C85.9741 64.9551 92.7563 71.7295 92.7563 80.2972C92.7563 97.2333 67.2235 112.974 66.0266 113.572C66.2261 113.572 66.0266 113.771 65.6277 113.771ZM53.6592 67.9438C46.877 67.9438 41.2917 73.5227 41.2917 80.2972C41.2917 94.0453 61.4387 107.793 65.8271 110.583C70.0161 107.793 90.1631 94.0453 90.1631 80.2972C90.1631 73.5227 84.5778 67.9438 77.7956 67.9438C73.4072 67.9438 69.4177 70.3348 67.024 74.1205C66.4256 75.1167 65.0292 75.1167 64.4308 74.1205C62.2366 70.1355 58.0476 67.9438 53.6592 67.9438Z"
              fill="#C8C8C8"/>
    </g>
    <defs>
        <clipPath id="clip0">
            <rect width="152" height="159" fill="white"/>
        </clipPath>
    </defs>
</svg>
