<svg width="41" height="66" viewBox="0 0 41 66" fill="none" xmlns="http://www.w3.org/2000/svg">
<path d="M20.499 64.0582C20.4357 63.9536 20.3684 63.842 20.2972 63.7237C19.7383 62.7957 18.9394 61.4567 17.9806 59.8143C16.0625 56.5289 13.5061 52.0325 10.9507 47.1851C8.39395 42.3354 5.84478 37.1469 3.93681 32.4749C2.0144 27.7675 0.792683 23.6993 0.792683 21.0428C0.792683 10.1677 9.61403 1.35128 20.4989 1.35128C31.387 1.35128 40.2072 10.1667 40.2073 21.0428C40.2073 23.6993 38.9855 27.7675 37.0629 32.4749C35.1547 37.1469 32.6053 42.3354 30.0483 47.1852C27.4926 52.0325 24.9359 56.5289 23.0177 59.8143C22.0588 61.4567 21.2598 62.7957 20.7009 63.7237C20.6296 63.842 20.5623 63.9536 20.499 64.0582Z" fill="#FF0000" stroke="white" stroke-width="1.58537"/>
<path d="M20.4991 4.56006C11.3862 4.56006 4 12.0378 4 21.2626C4 30.4865 20.4992 57.5796 20.4992 57.5796C20.4992 57.5796 37 30.4866 37 21.2626C36.9999 12.0369 29.6146 4.56006 20.4991 4.56006Z" fill="white"/>
<path d="M26.2634 29.6274H21.6569L24.2419 19.2316H17.111L18.9531 20.1247L16.5762 29.6274H12L14.4662 19.6781L13.7528 19.2316L14.6743 15.5645H29.7993L26.2634 29.6274Z" fill="#D70000"/>
</svg>
