<svg width="137" height="39" viewBox="0 0 137 39" fill="none" xmlns="http://www.w3.org/2000/svg">
    <path d="M49.6366 31.0811H50.117V32.3658H50.4788L51.5581 31.0811H52.0945L50.8781 32.5467L52.1631 34.1125H51.608L50.4851 32.7524H50.117V34.1125H49.6366V31.0811Z"
          fill="white"/>
    <path d="M54.1058 31.0059C55.0039 31.0059 55.6465 31.6608 55.6465 32.5964C55.6465 33.5324 55.0039 34.1873 54.1058 34.1873C53.2013 34.1873 52.5588 33.5324 52.5588 32.5964C52.5588 31.6608 53.2013 31.0059 54.1058 31.0059ZM54.1058 33.788C54.7108 33.788 55.1413 33.3013 55.1413 32.5964C55.1413 31.898 54.7108 31.4052 54.1058 31.4052C53.4944 31.4052 53.0703 31.898 53.0703 32.5964C53.0703 33.3013 53.4944 33.788 54.1058 33.788Z"
          fill="white"/>
    <path d="M56.5604 31.0811H57.0344L58.0762 32.5031L59.1368 31.0811H59.6172V34.1128H59.1556V31.7547L58.2072 33.015H57.9452L57.022 31.7547V34.1128H56.5604V31.0811Z"
          fill="white"/>
    <path d="M60.7195 31.0811H61.1812V33.4391L62.8967 31.0811H63.3771V34.1128H62.9155V31.7547L61.1936 34.1128H60.7195V31.0811Z"
          fill="white"/>
    <path d="M65.8161 31.0059C66.1843 31.0059 66.5461 31.1184 66.8891 31.3489L66.6831 31.6919C66.4211 31.511 66.1588 31.4176 65.8784 31.4176C65.2419 31.4176 64.7991 31.898 64.7991 32.5964C64.7991 33.2952 65.2419 33.7817 65.8784 33.7817C66.1591 33.7817 66.4211 33.6822 66.6831 33.5013L66.8891 33.8443C66.5457 34.0751 66.1839 34.1873 65.8161 34.1873C64.924 34.1873 64.2878 33.5324 64.2878 32.5964C64.2878 31.6668 64.924 31.0059 65.8161 31.0059Z"
          fill="white"/>
    <path d="M68.9071 31.0059C69.2753 31.0059 69.6371 31.1184 69.9801 31.3489L69.7741 31.6919C69.5121 31.511 69.2498 31.4176 68.9694 31.4176C68.3329 31.4176 67.8901 31.898 67.8901 32.5964C67.8901 33.2952 68.3329 33.7817 68.9694 33.7817C69.2501 33.7817 69.5121 33.6822 69.7741 33.5013L69.9801 33.8443C69.6368 34.0751 69.275 34.1873 68.9071 34.1873C68.015 34.1873 67.3788 33.5324 67.3788 32.5964C67.3788 31.6668 68.015 31.0059 68.9071 31.0059Z"
          fill="white"/>
    <path d="M70.7681 31.0811H71.2297V33.4391L72.9452 31.0811H73.4256V34.1128H72.964V31.7547L71.2421 34.1128H70.7681V31.0811Z"
          fill="white"/>
    <path d="M75.8834 31.0059C76.7819 31.0059 77.4244 31.6608 77.4244 32.5964C77.4244 33.5324 76.7819 34.1873 75.8834 34.1873C74.979 34.1873 74.3364 33.5324 74.3364 32.5964C74.3364 31.6608 74.979 31.0059 75.8834 31.0059ZM75.8834 33.788C76.4885 33.788 76.9193 33.3013 76.9193 32.5964C76.9193 31.898 76.4885 31.4052 75.8834 31.4052C75.2724 31.4052 74.848 31.898 74.848 32.5964C74.848 33.3013 75.2724 33.788 75.8834 33.788Z"
          fill="white"/>
    <path d="M78.338 31.0811H78.8311V32.3721H80.4967V31.0811H80.9959V34.1128H80.4967V32.7651H78.8311V34.1128H78.338V31.0811Z"
          fill="white"/>
    <path d="M82.0948 31.0811H82.5879V32.3721H84.2536V31.0811H84.7527V34.1128H84.2536V32.7651H82.5879V34.1128H82.0948V31.0811Z"
          fill="white"/>
    <path d="M85.852 31.0811H86.3136V32.2539H87.2369C87.8171 32.2539 88.2349 32.6281 88.2349 33.1835C88.2349 33.7322 87.8231 34.1128 87.2429 34.1128H85.8517V31.0811H85.852ZM86.3136 33.7383H87.1682C87.524 33.7383 87.7672 33.5138 87.7672 33.1832C87.7672 32.8525 87.5179 32.6281 87.1682 32.6281H86.3136V33.7383ZM88.9524 31.0811H89.4328V34.1128H88.9524V31.0811Z"
          fill="white"/>
    <path d="M90.5379 31.081H90.9995V33.439L92.7151 31.081H93.1958V34.1127H92.7341V31.7547L91.0122 34.1127H90.5382V31.081H90.5379ZM91.2491 29.7832C91.2739 30.1075 91.5114 30.3259 91.842 30.3259C92.1724 30.3259 92.4098 30.1075 92.4346 29.7832H92.765C92.7465 30.3259 92.3596 30.6753 91.842 30.6753C91.3241 30.6753 90.9372 30.3259 90.9188 29.7832H91.2491Z"
          fill="white"/>
    <path d="M95.9818 31.0811H96.4558L97.4977 32.5031L98.558 31.0811H99.0387V34.1128H98.577V31.7547L97.6287 33.015H97.3667L96.4434 31.7547V34.1128H95.9818V31.0811Z"
          fill="white"/>
    <path d="M101.304 32.2722C101.516 32.2722 101.747 32.2973 101.984 32.3596V32.0477C101.984 31.6611 101.684 31.3861 101.242 31.3861C100.918 31.3861 100.587 31.4611 100.238 31.6109L100.1 31.2491C100.524 31.0866 100.911 31.0059 101.298 31.0059C101.984 31.0059 102.458 31.43 102.458 32.0601V33.5257C102.458 33.6945 102.558 33.8004 102.733 33.8004C102.783 33.8004 102.858 33.788 102.895 33.7817L102.933 34.1559C102.833 34.1746 102.721 34.1873 102.608 34.1873C102.278 34.1873 102.066 33.994 102.028 33.6822C101.785 34.0001 101.392 34.1873 100.974 34.1873C100.375 34.1873 99.9197 33.7941 99.9197 33.2765C99.919 32.6403 100.443 32.2722 101.304 32.2722ZM101.092 33.8255C101.616 33.8255 101.984 33.4513 101.984 32.9147V32.6588C101.772 32.6088 101.566 32.5837 101.36 32.5837C100.762 32.5837 100.406 32.8333 100.406 33.2453C100.406 33.5756 100.699 33.8255 101.092 33.8255Z"
          fill="white"/>
    <path d="M103.679 31.0811H105.676V31.474H104.172V34.1128H103.679V31.0811Z" fill="white"/>
    <path d="M107.656 32.2722C107.868 32.2722 108.099 32.2973 108.336 32.3596V32.0477C108.336 31.6611 108.036 31.3861 107.594 31.3861C107.269 31.3861 106.939 31.4611 106.589 31.6109L106.452 31.2491C106.876 31.0866 107.263 31.0059 107.65 31.0059C108.336 31.0059 108.81 31.43 108.81 32.0601V33.5257C108.81 33.6945 108.91 33.8004 109.085 33.8004C109.135 33.8004 109.209 33.788 109.247 33.7817L109.284 34.1559C109.185 34.1746 109.072 34.1873 108.96 34.1873C108.629 34.1873 108.417 33.994 108.38 33.6822C108.137 34.0001 107.744 34.1873 107.326 34.1873C106.727 34.1873 106.271 33.7941 106.271 33.2765C106.271 32.6403 106.795 32.2722 107.656 32.2722ZM107.444 33.8255C107.968 33.8255 108.336 33.4513 108.336 32.9147V32.6588C108.124 32.6088 107.918 32.5837 107.712 32.5837C107.114 32.5837 106.758 32.8333 106.758 33.2453C106.757 33.5756 107.051 33.8255 107.444 33.8255Z"
          fill="white"/>
    <path d="M110.589 32.4038H110.876C111.3 32.4038 111.575 32.1917 111.575 31.8926C111.575 31.5995 111.338 31.3995 110.957 31.3995C110.689 31.3995 110.383 31.4745 110.078 31.6118L109.928 31.25C110.321 31.0876 110.67 31.0068 111.013 31.0068C111.643 31.0068 112.055 31.3435 112.055 31.8363C112.055 32.1669 111.843 32.4604 111.494 32.5539C111.887 32.6537 112.136 32.9716 112.136 33.3274C112.136 33.8325 111.675 34.1883 111.013 34.1883C110.645 34.1883 110.252 34.0948 109.853 33.92L110.003 33.5642C110.321 33.72 110.651 33.8014 110.951 33.8014C111.362 33.8014 111.649 33.589 111.649 33.2771C111.649 32.9589 111.344 32.722 110.876 32.722H110.589V32.4038H110.589Z"
          fill="white"/>
    <path d="M113.066 31.0811H113.527V33.4391L115.243 31.0811H115.724V34.1128H115.262V31.7547L113.54 34.1128H113.066V31.0811H113.066Z"
          fill="white"/>
    <path d="M116.823 31.0811H117.316V32.3721H118.981V31.0811H119.48V34.1128H118.981V32.7651H117.316V34.1128H116.823V31.0811Z"
          fill="white"/>
    <path d="M98.1741 16.5338L99.5695 17.3413L99.3526 18.1492H106.611L105.853 20.9704H98.6004L98.0596 22.9826H106.104L105.346 25.8026L93.2701 25.8064L93.2723 25.8026H93.2701L95.6475 16.9404L94.9494 16.5335L95.7029 13.7135H107.797L107.043 16.5335H98.1741V16.5338ZM51.5752 13.7135L50.8185 16.5335L51.5167 16.9503L49.1405 25.8064H53.1727L55.4402 17.3413L54.0461 16.5338H60.5038L58.0176 25.8064H62.0479L65.2889 13.7138H51.5752V13.7135ZM92.8266 21.9833C92.2575 24.0928 89.2763 25.8064 86.1699 25.8064H86.1638V25.8026L79.7208 25.8064L82.2053 16.5338L81.5043 16.1303L82.1548 13.7135H93.4437L92.6876 16.5335H84.6238L86.0154 17.362L85.8036 18.1488H88.2329L88.2351 18.1536C91.3419 18.1536 93.396 19.8688 92.8266 21.9833ZM87.6527 20.9701H85.0463L84.5081 22.9823H87.2041C87.9258 22.8951 88.5651 22.4822 88.7002 21.983C88.8427 21.4581 88.3817 21.0318 87.6527 20.9701ZM133.774 25.8064L128.579 22.727L126.522 25.8064H122.489L125.691 21.0172L124.255 20.1626H126.263L130.561 13.7434H134.595L137 25.8067H133.774V25.8064ZM132.969 21.7497L132.114 17.4434L130.292 20.1626L132.969 21.7497ZM121.268 22.9826H122.029L121.274 25.8026H106.811L107.567 22.9826H108.34C109.928 21.1682 111.088 18.9665 111.655 16.5338L110.946 16.144L111.597 13.7135H123.748L121.268 22.9826ZM117.234 22.9826L118.963 16.5338H114.083L115.576 17.3413C115.548 17.4777 115.516 17.6131 115.479 17.7444C114.996 19.6278 114.218 21.3882 113.199 22.9826H117.234ZM79.8438 19.7703C78.8849 23.3466 74.8149 26.2451 70.7584 26.2451C66.6979 26.2451 64.1895 23.3466 65.1461 19.7703C66.1075 16.1981 70.1763 13.3018 74.2356 13.3018C78.2923 13.3018 80.8052 16.1981 79.8438 19.7703ZM73.3534 16.5827C71.3523 16.5827 69.3475 18.0125 68.8735 19.7703C68.4004 21.5319 69.6394 22.9641 71.6375 22.9641C73.6408 22.9641 75.6456 21.5319 76.1203 19.7703C76.5911 18.0125 75.3547 16.5827 73.3534 16.5827Z"
          fill="white"/>
    <path d="M37.1331 8.95996H10.1747C9.54393 8.95996 9.03144 9.4715 9.02731 10.1019C9.02731 10.1045 9.02667 10.1058 9.02667 10.1083C9.02667 10.1105 9.02731 10.1121 9.02731 10.1121V37.0712C9.03144 37.7029 9.54425 38.2141 10.1747 38.2141H37.1331C37.7661 38.2141 38.2809 37.7004 38.2809 37.0674V10.1083C38.2809 9.475 37.7661 8.95996 37.1331 8.95996ZM29.8924 30.9413H24.5443L27.5665 19.6623H19.2639L21.4083 20.6434L18.6471 30.9413H13.2996L16.1848 20.1662L15.3416 19.6623L16.4067 15.6733H33.9803L29.8924 30.9413Z"
          fill="white"/>
    <path opacity="0.2"
          d="M19.0167 13.0039C19.0167 13.0039 20.4696 13.2297 20.7812 11.8022C20.7812 11.8022 22.5202 11.8753 22.3454 9.95504C22.9357 9.37833 22.9466 8.43218 22.3698 7.84211C22.2907 7.76104 22.2023 7.68919 22.1069 7.62783C22.1069 7.62783 22.3263 5.99688 20.7716 5.86653C20.7716 5.86653 20.5713 5.44369 20.3424 5.35467C20.3424 5.35467 20.3679 3.88903 18.8832 3.8636C17.3984 3.83816 17.3635 5.35467 17.3635 5.35467C17.3635 5.35467 16.6291 5.25611 16.1331 6.34977C16.1331 6.34977 14.9663 6.03185 14.3877 7.45615C13.5964 7.55248 13.0184 8.25033 13.0715 9.04578C12.7303 9.02988 12.4057 9.19393 12.2163 9.47816C12.2163 9.47816 10.4009 8.58161 9.99079 10.7785C9.72214 10.8058 9.47925 10.9501 9.32633 11.1727C9.32633 11.1727 8.66504 10.6449 7.99422 10.9088C7.34565 11.1546 6.92027 11.7796 6.92917 12.473C6.92917 12.473 5.89274 12.899 5.93407 13.8878C5.93343 14.4378 6.23673 14.943 6.72252 15.2008C6.72252 15.2008 6.68755 16.2595 7.59363 16.4534C7.59363 16.4534 7.7971 16.8763 7.7208 16.9812C7.7208 16.9812 7.64768 17.935 8.35665 18.2243C9.06563 18.5136 9.94628 18.4436 10.3691 17.8809C10.3691 17.8809 11.8157 18.1321 12.1527 17.2451C12.1527 17.2451 13.7042 17.8555 14.181 16.4693C14.181 16.4693 15.6149 16.3644 15.8184 15.3979C15.8184 15.3979 17.5987 15.3661 17.7927 13.9323C17.8022 13.9196 18.9372 13.9068 19.0167 13.0039Z"
          fill="#1E1E1C"/>
    <g opacity="0.15">
        <path opacity="0.15"
              d="M16.4119 5.53715C16.5562 5.71583 16.6236 5.94473 16.5994 6.173C16.4913 7.25077 15.6107 10.5031 9.20769 13.6156C8.77213 13.8267 8.25359 13.766 7.87876 13.4598C7.06487 12.7954 5.63421 11.5237 4.75355 10.1471C4.75355 10.1471 4.92524 8.3349 5.19229 7.05048C5.21296 6.95606 5.19706 6.85718 5.14778 6.77388C4.99518 6.52272 4.61367 6.0204 4.05094 6.13803C3.30382 6.28746 4.75355 10.1534 4.75355 10.1534C4.79075 10.7791 4.69856 11.4057 4.48332 11.9942C4.16349 12.7887 4.10976 13.6655 4.33072 14.4931C4.52147 15.183 4.56916 16.7949 4.27031 16.5692C4.27031 16.5692 0.773133 13.072 1.49482 5.00304C1.52216 4.63679 1.68018 4.2928 1.93992 4.03337C2.64889 3.35937 4.41974 2.27525 8.50189 2.31658C13.4075 2.36427 15.7538 4.7328 16.4119 5.53715Z"
              fill="#1E1E1C"/>
        <path opacity="0.15"
              d="M5.14787 6.77427C5.19714 6.85756 5.21304 6.95644 5.19238 7.05086C4.92532 8.32256 4.75364 10.1475 4.75364 10.1475C4.75364 10.1475 3.3039 6.28149 4.05103 6.13206C4.61375 6.02079 4.99526 6.52311 5.14787 6.77427Z"
              fill="#1E1E1C"/>
    </g>
    <path opacity="0.15"
          d="M1.23205 15.4186C1.23205 15.4186 0.443595 17.1259 2.22398 17.6949C2.22398 17.6949 3.85175 19.9204 5.12345 17.7808C5.12345 17.7808 7.56512 17.0495 5.79427 14.9353C5.79427 14.9353 5.86422 12.9133 3.60377 13.1327C3.60059 13.1327 0.380012 12.4428 1.23205 15.4186Z"
          fill="#1E1E1C"/>
    <path d="M16.0279 4.22173C16.1741 4.40294 16.2377 4.62867 16.2154 4.85758C16.1073 5.93534 15.233 9.19407 8.82367 12.3002C8.38812 12.51 7.8699 12.4528 7.49474 12.1444C6.68086 11.48 5.2502 10.2083 4.36955 8.83164C4.36955 8.83164 4.54122 7.01947 4.80828 5.73505C4.82735 5.63967 4.81464 5.54111 4.76377 5.45845C4.61117 5.20729 4.22966 4.70497 3.66693 4.81625C2.91981 4.96567 4.36955 8.83164 4.36955 8.83164C4.36955 8.83164 4.44266 9.84582 4.08659 10.6788C3.72733 11.5117 3.74323 12.4846 3.93398 13.1777C4.12474 13.8676 4.17243 15.4795 3.87358 15.2537C3.87358 15.2537 0.376404 11.7597 1.09809 3.68761C1.12989 3.322 1.29203 2.97546 1.55908 2.71794C2.26488 2.04394 4.03572 0.959818 8.11788 1.00115C13.0235 1.04884 15.3698 3.41737 16.0279 4.22173Z"
          fill="#FF2001" stroke="white"/>
    <path d="M4.76408 5.45884C4.81494 5.5415 4.82766 5.64006 4.80859 5.73543C4.54153 7.01985 4.36985 8.83202 4.36985 8.83202C4.36985 8.83202 2.92011 4.96606 3.66724 4.81663C4.22996 4.70536 4.61147 5.20768 4.76408 5.45884Z"
          fill="#BC3523"/>
    <path d="M18.5555 11.7675C18.5555 11.7675 19.9747 11.9881 20.277 10.5924C20.277 10.5924 21.9757 10.6652 21.804 8.7885C21.804 8.7885 22.9632 7.60868 21.5726 6.51502C21.5726 6.51502 21.7875 4.92349 20.2694 4.79505C20.2694 4.79505 20.0729 4.38174 19.8491 4.29559C19.8491 4.29559 19.8739 2.86365 18.4232 2.84108C16.9725 2.8185 16.9388 4.29622 16.9388 4.29622C16.9388 4.29622 16.2225 4.20116 15.7383 5.26844C15.7383 5.26844 14.6005 4.9486 14.033 6.34747C14.033 6.34747 12.7228 6.48545 12.7463 7.90086C12.7463 7.90086 12.244 7.84458 11.9108 8.32211C11.9108 8.32211 10.1375 7.44559 9.74481 9.59317C9.74481 9.59317 9.25298 9.65167 9.09402 9.99058C9.09402 9.99058 8.44832 9.47522 7.79244 9.73369C7.79244 9.73369 6.72548 10.1053 6.75219 11.2607C6.75219 11.2607 5.74087 11.6667 5.78315 12.6325C5.82543 13.5984 6.55221 13.916 6.55221 13.916C6.55221 13.916 6.5166 14.9483 7.40298 15.1378C7.40298 15.1378 7.60041 15.5498 7.5276 15.6522C7.5276 15.6522 7.4548 16.5691 8.16028 16.8673C8.86575 17.1655 9.69712 17.0803 10.1257 16.5316C10.1257 16.5316 11.5379 16.7773 11.8657 15.8983C11.8657 15.8983 13.3806 16.4928 13.8451 15.14C13.8451 15.14 15.2436 15.0389 15.4424 14.0953C15.4424 14.0953 17.1811 14.0654 17.3696 12.6646C17.3702 12.6643 18.4792 12.6491 18.5555 11.7675Z"
          fill="white"/>
    <path d="M1.88037 15.0497L1.88267 15.0444L1.95925 14.8783L1.90834 14.7C1.72772 14.0675 1.79192 13.7273 1.88328 13.5501C1.97098 13.3801 2.13357 13.2642 2.38019 13.1937C2.63145 13.1218 2.92112 13.1132 3.16525 13.1284C3.28388 13.1359 3.3844 13.1484 3.45415 13.1589C3.48887 13.1642 3.51557 13.1688 3.53261 13.172L3.5506 13.1754L3.55332 13.1759L3.55361 13.176L3.55371 13.176C3.55388 13.1761 3.55389 13.1761 3.55371 13.176L3.62824 13.192L3.70517 13.1845C4.16269 13.1404 4.45787 13.2133 4.64902 13.3108C4.8388 13.4076 4.96282 13.5474 5.04785 13.7007C5.13544 13.8586 5.17987 14.0287 5.20113 14.1659C5.21153 14.2331 5.21578 14.2884 5.21745 14.3249C5.21829 14.3431 5.21847 14.3562 5.21849 14.3635L5.21847 14.3692L5.21201 14.5577L5.33516 14.7046C5.71015 15.1517 5.81247 15.4676 5.82346 15.6672C5.83376 15.8545 5.76747 16.0037 5.65047 16.138C5.52608 16.2809 5.35337 16.3939 5.19462 16.474C5.118 16.5126 5.05091 16.5405 5.00433 16.5583C4.98119 16.5671 4.96354 16.5732 4.95282 16.5768L4.94225 16.5803C4.94206 16.5804 4.9419 16.5804 4.94176 16.5805C4.94131 16.5806 4.94114 16.5807 4.94129 16.5806L4.75667 16.6359L4.65707 16.8035C4.40068 17.2349 4.17227 17.3705 4.02342 17.412C3.87221 17.454 3.70099 17.4273 3.50314 17.3266C3.30342 17.225 3.11771 17.0676 2.97481 16.9229C2.90535 16.8526 2.85037 16.7897 2.81351 16.7454C2.79517 16.7234 2.78155 16.7062 2.77311 16.6954L2.76446 16.6841L2.76364 16.683L2.76336 16.6827L2.76336 16.6827L2.7632 16.6824L2.66805 16.5528L2.51356 16.5033C2.17731 16.3956 2.00512 16.2493 1.91196 16.1225C1.81697 15.9932 1.77423 15.8431 1.76591 15.6815C1.75743 15.5168 1.78595 15.3547 1.82047 15.2279C1.8373 15.1661 1.85451 15.1165 1.86677 15.084C1.87287 15.0678 1.87764 15.0562 1.88037 15.0497Z"
          fill="white" stroke="white"/>
</svg>
