<svg width="128" height="29" viewBox="0 0 128 29" fill="none" xmlns="http://www.w3.org/2000/svg">
<path d="M40.9697 21.5674H41.4445V22.8201H41.8022L42.8689 21.5674H43.399L42.1967 22.9964L43.467 24.5231H42.9184L41.8083 23.1968H41.4445V24.5231H40.9697V21.5674Z" fill="white"/>
<path d="M45.3876 21.4945C46.2754 21.4945 46.9104 22.1334 46.9104 23.0455C46.9104 23.9579 46.2754 24.5964 45.3876 24.5964C44.4934 24.5964 43.8584 23.9576 43.8584 23.0455C43.8584 22.1334 44.4934 21.4945 45.3876 21.4945ZM45.3876 24.2073C45.9858 24.2073 46.4114 23.7328 46.4114 23.0455C46.4114 22.3642 45.9858 21.884 45.3876 21.884C44.7834 21.884 44.3639 22.3645 44.3639 23.0455C44.3639 23.7328 44.7834 24.2073 45.3876 24.2073Z" fill="white"/>
<path d="M47.8135 21.5674H48.2821L49.312 22.9539L50.3603 21.5674H50.8351V24.5231H50.3791V22.2244L49.4418 23.4529H49.1829L48.2702 22.2244V24.5234H47.8142V21.5674H47.8135Z" fill="white"/>
<path d="M51.9243 21.5674H52.3807V23.8664L54.0763 21.5674H54.5511V24.5231H54.0947V22.2244L52.393 24.5234H51.9243V21.5674Z" fill="white"/>
<path d="M56.9626 21.4945C57.3264 21.4945 57.684 21.604 58.0232 21.8288L57.8196 22.1633C57.5607 21.9871 57.3015 21.8958 57.0241 21.8958C56.3953 21.8958 55.9573 22.3642 55.9573 23.0451C55.9573 23.7264 56.3953 24.2008 57.0241 24.2008C57.3015 24.2008 57.5604 24.1038 57.8196 23.9273L58.0232 24.2615C57.684 24.4866 57.3264 24.5961 56.9626 24.5961C56.0807 24.5961 55.4521 23.9572 55.4521 23.0451C55.4521 22.1394 56.0807 21.4945 56.9626 21.4945Z" fill="white"/>
<path d="M60.0188 21.4945C60.3825 21.4945 60.7402 21.604 61.0794 21.8288L60.8758 22.1633C60.6169 21.9871 60.3576 21.8958 60.0802 21.8958C59.4514 21.8958 59.0135 22.3642 59.0135 23.0451C59.0135 23.7264 59.4514 24.2008 60.0802 24.2008C60.3576 24.2008 60.6165 24.1038 60.8758 23.9273L61.0794 24.2615C60.7402 24.4866 60.3825 24.5961 60.0188 24.5961C59.1368 24.5961 58.5083 23.9572 58.5083 23.0451C58.508 22.1394 59.1368 21.4945 60.0188 21.4945Z" fill="white"/>
<path d="M61.8573 21.5674H62.3133V23.8664L64.0089 21.5674H64.4837V24.5231H64.0273V22.2244L62.3256 24.5234H61.8569V21.5674H61.8573Z" fill="white"/>
<path d="M66.9116 21.4945C67.7997 21.4945 68.4347 22.1334 68.4347 23.0455C68.4347 23.9579 67.7997 24.5964 66.9116 24.5964C66.0177 24.5964 65.3823 23.9576 65.3823 23.0455C65.3827 22.1334 66.0177 21.4945 66.9116 21.4945ZM66.9116 24.2073C67.5097 24.2073 67.9353 23.7328 67.9353 23.0455C67.9353 22.3642 67.5097 21.884 66.9116 21.884C66.3077 21.884 65.8882 22.3645 65.8882 23.0455C65.8882 23.7328 66.3077 24.2073 66.9116 24.2073Z" fill="white"/>
<path d="M69.3389 21.5674H69.8263V22.8262H71.4724V21.5674H71.9656V24.5231H71.4724V23.2093H69.8263V24.5231H69.3389V21.5674Z" fill="white"/>
<path d="M73.0513 21.5674H73.5387V22.8262H75.1848V21.5674H75.678V24.5231H75.1848V23.2093H73.5387V24.5231H73.0513V21.5674Z" fill="white"/>
<path d="M76.7656 21.5674H77.222V22.711H78.1347C78.7082 22.711 79.1212 23.0759 79.1212 23.617C79.1212 24.1521 78.7143 24.5231 78.1408 24.5231H76.766V21.5674H76.7656ZM77.222 24.1585H78.0667C78.4182 24.1585 78.6587 23.9398 78.6587 23.6174C78.6587 23.2949 78.412 23.0762 78.0667 23.0762H77.222V24.1585ZM79.8303 21.5674H80.3051V24.5231H79.8303V21.5674Z" fill="white"/>
<path d="M81.397 21.5676H81.8533V23.8666L83.5489 21.5676H84.024V24.5233H83.5677V22.2246L81.866 24.5236H81.3973V21.5676H81.397ZM82.0996 20.3024C82.1242 20.6184 82.3589 20.8314 82.6857 20.8314C83.0123 20.8314 83.247 20.6184 83.2716 20.3024H83.5981C83.5797 20.8314 83.1974 21.172 82.6857 21.172C82.1737 21.172 81.7915 20.8314 81.7731 20.3024H82.0996Z" fill="white"/>
<path d="M86.7778 21.5674H87.2465L88.2763 22.9539L89.3243 21.5674H89.7994V24.5231H89.3431V22.2244L88.4058 23.4529H88.1469L87.2342 22.2244V24.5234H86.7778V21.5674Z" fill="white"/>
<path d="M92.037 22.7291C92.2464 22.7291 92.4746 22.7533 92.7092 22.8143V22.5104C92.7092 22.1334 92.4131 21.8655 91.9755 21.8655C91.6548 21.8655 91.3279 21.9386 90.9829 22.0845L90.8473 21.7317C91.2668 21.5734 91.649 21.4945 92.0312 21.4945C92.7096 21.4945 93.1779 21.9083 93.1779 22.5225V23.9515C93.1779 24.1159 93.2766 24.2194 93.4495 24.2194C93.499 24.2194 93.5724 24.2072 93.6097 24.2008L93.6465 24.5658C93.5482 24.5843 93.4372 24.5964 93.3258 24.5964C92.9989 24.5964 92.7895 24.4077 92.7523 24.1038C92.5118 24.4138 92.1234 24.5964 91.7101 24.5964C91.1185 24.5964 90.668 24.213 90.668 23.7082C90.668 23.0883 91.1861 22.7291 92.037 22.7291ZM91.8273 24.244C92.3455 24.244 92.7092 23.8791 92.7092 23.3558V23.1065C92.4995 23.0576 92.2959 23.0333 92.0924 23.0333C91.5004 23.0333 91.1489 23.2769 91.1489 23.6782C91.1489 24.0004 91.4389 24.244 91.8273 24.244Z" fill="white"/>
<path d="M94.3871 21.5674H96.36V21.9505H94.8742V24.5234H94.3867V21.5674H94.3871Z" fill="white"/>
<path d="M98.3158 22.7291C98.5252 22.7291 98.7534 22.7533 98.9881 22.8143V22.5104C98.9881 22.1334 98.6919 21.8655 98.2543 21.8655C97.9336 21.8655 97.6067 21.9386 97.2617 22.0845L97.1261 21.7317C97.5452 21.5734 97.9278 21.4945 98.31 21.4945C98.9884 21.4945 99.4567 21.9083 99.4567 22.5225V23.9515C99.4567 24.1159 99.5554 24.2194 99.7283 24.2194C99.7778 24.2194 99.8512 24.2072 99.8885 24.2008L99.9254 24.5658C99.827 24.5843 99.716 24.5964 99.6046 24.5964C99.2777 24.5964 99.0683 24.4077 99.0311 24.1038C98.7906 24.4138 98.4022 24.5964 97.9889 24.5964C97.3973 24.5964 96.9468 24.213 96.9468 23.7082C96.9468 23.0883 97.465 22.7291 98.3158 22.7291ZM98.1061 24.244C98.6243 24.244 98.9881 23.8791 98.9881 23.3558V23.1065C98.7783 23.0576 98.5747 23.0333 98.3712 23.0333C97.7795 23.0333 97.4277 23.2769 97.4277 23.6782C97.4277 24.0004 97.7177 24.244 98.1061 24.244Z" fill="white"/>
<path d="M101.215 22.8568H101.499C101.918 22.8568 102.189 22.6502 102.189 22.3584C102.189 22.0724 101.955 21.8776 101.579 21.8776C101.314 21.8776 101.011 21.9507 100.709 22.0845L100.561 21.7317C100.949 21.5734 101.295 21.4945 101.634 21.4945C102.257 21.4945 102.664 21.823 102.664 22.3032C102.664 22.6256 102.454 22.9117 102.109 23.0027C102.497 23.1 102.744 23.41 102.744 23.7568C102.744 24.2494 102.288 24.5961 101.634 24.5961C101.271 24.5961 100.882 24.5048 100.487 24.3346L100.636 23.9879C100.95 24.1399 101.277 24.2194 101.572 24.2194C101.979 24.2194 102.263 24.0125 102.263 23.7082C102.263 23.3979 101.961 23.1671 101.499 23.1671H101.215V22.8568Z" fill="white"/>
<path d="M103.663 21.5674H104.119V23.8664L105.815 21.5674H106.29V24.5231H105.834V22.2244L104.132 24.5234H103.663V21.5674H103.663Z" fill="white"/>
<path d="M107.376 21.5674H107.864V22.8262H109.51V21.5674H110.003V24.5231H109.51V23.2093H107.864V24.5231H107.376V21.5674Z" fill="white"/>
<path d="M88.9448 7.38439L90.3241 8.17183L90.1099 8.95927H97.2837L96.5353 11.7101H89.3666L88.8321 13.6721H96.7833L96.0336 16.4216L84.0981 16.4253L84.1005 16.4216H84.0981L86.4482 7.78097L85.7578 7.38439L86.5028 4.63491H98.4564L97.7114 7.38439H88.9448ZM42.8866 4.63491L42.1388 7.38439L42.8292 7.79074L40.4805 16.4253H44.4657L46.7068 8.17183L45.3288 7.38439H51.7116L49.2543 16.4253H53.2378L56.4411 4.63491H42.8866ZM83.6595 12.6977C83.0973 14.7544 80.1505 16.425 77.08 16.425H77.0739V16.4213L70.7055 16.425L73.1611 7.38405L72.4683 6.99084L73.1112 4.63458H84.2692L83.5219 7.38405H75.5514L76.9266 8.19171L76.7176 8.95893H79.1186L79.1209 8.96365C82.1917 8.96399 84.2221 10.6359 83.6595 12.6977ZM78.5454 11.7101H75.9692L75.437 13.6721H78.1017C78.8149 13.5872 79.4468 13.1846 79.5804 12.6977C79.7214 12.1859 79.2658 11.7701 78.5454 11.7101ZM124.132 16.4253L118.997 13.4228L116.963 16.4253H112.978L116.142 11.7559L114.723 10.9226H116.708L120.956 4.66389H124.943L127.321 16.4253H124.132ZM123.336 12.4699L122.491 8.27123L120.69 10.9223L123.336 12.4699ZM111.771 13.6721H112.523L111.777 16.4216H97.4819L98.2292 13.6721H98.9923C100.562 11.9032 101.709 9.75648 102.269 7.38439L101.568 7.00465L102.211 4.63491H114.222L111.771 13.6721ZM107.784 13.6721L109.493 7.38439H104.669L106.145 8.17183C106.118 8.30492 106.086 8.43667 106.05 8.56504C105.572 10.4014 104.803 12.1178 103.796 13.6721H107.784ZM70.8271 10.5402C69.8795 14.0269 65.8564 16.8529 61.8473 16.8529C57.8337 16.8529 55.3545 14.0269 56.3 10.5402C57.2503 7.05721 61.2721 4.23328 65.2843 4.23328C69.2937 4.23328 71.7777 7.05721 70.8271 10.5402ZM64.4119 7.43223C62.4341 7.43223 60.4523 8.82618 59.984 10.5402C59.5163 12.258 60.7409 13.6543 62.7159 13.6543C64.6957 13.6543 66.6776 12.258 67.1465 10.5402C67.6121 8.82618 66.3899 7.43223 64.4119 7.43223Z" fill="white"/>
<path d="M28.4608 0H1.8149C1.19152 0 0.684958 0.498679 0.680859 1.1136C0.680859 1.1136 0.680176 1.11697 0.680176 1.11967L0.680859 1.12304V27.4078C0.684958 28.0237 1.19186 28.5224 1.8149 28.5224H28.4608C29.0866 28.5224 29.5952 28.0217 29.5952 27.4044V1.11967C29.5949 0.502385 29.0866 0 28.4608 0ZM21.304 21.4317H16.0178L19.0049 10.4349H10.7988L12.9186 11.3914L10.1894 21.4317H4.9038L7.75565 10.9261L6.9222 10.4349L7.97494 6.5455H25.3449L21.304 21.4317Z" fill="white"/>
</svg>
