<svg width="100" height="23" viewBox="0 0 100 23" fill="none" xmlns="http://www.w3.org/2000/svg">
<path d="M31.8145 17.0304H32.1894V18.0196H32.4718L33.3141 17.0304H33.7327L32.7833 18.1588L33.7864 19.3643H33.3532L32.4766 18.3171H32.1894V19.3643H31.8145V17.0304Z" fill="#868685"/>
<path d="M35.3028 16.973C36.0038 16.973 36.5052 17.4775 36.5052 18.1977C36.5052 18.9182 36.0038 19.4224 35.3028 19.4224C34.5966 19.4224 34.0952 18.918 34.0952 18.1977C34.0952 17.4775 34.5966 16.973 35.3028 16.973ZM35.3028 19.1151C35.7751 19.1151 36.1111 18.7405 36.1111 18.1977C36.1111 17.6597 35.7751 17.2806 35.3028 17.2806C34.8256 17.2806 34.4944 17.66 34.4944 18.1977C34.4944 18.7405 34.8256 19.1151 35.3028 19.1151Z" fill="#868685"/>
<path d="M37.2185 17.0304H37.5886L38.4018 18.1253L39.2296 17.0304H39.6045V19.3643H39.2444V17.5492L38.5043 18.5193H38.2998L37.5791 17.5492V19.3646H37.219V17.0304H37.2185Z" fill="#868685"/>
<path d="M40.4644 17.0304H40.8247V18.8458L42.1636 17.0304H42.5385V19.3643H42.1782V17.5492L40.8344 19.3646H40.4644V17.0304Z" fill="#868685"/>
<path d="M44.4422 16.973C44.7295 16.973 45.0119 17.0595 45.2797 17.237L45.119 17.5012C44.9145 17.362 44.7098 17.2899 44.4908 17.2899C43.9942 17.2899 43.6484 17.6597 43.6484 18.1975C43.6484 18.7354 43.9942 19.1101 44.4908 19.1101C44.7098 19.1101 44.9143 19.0334 45.119 18.894L45.2797 19.158C45.0119 19.3357 44.7295 19.4222 44.4422 19.4222C43.7458 19.4222 43.2495 18.9177 43.2495 18.1975C43.2495 17.4823 43.7458 16.973 44.4422 16.973Z" fill="#868685"/>
<path d="M46.8556 16.973C47.1428 16.973 47.4252 17.0595 47.6931 17.237L47.5323 17.5012C47.3278 17.362 47.1231 17.2899 46.9041 17.2899C46.4076 17.2899 46.0618 17.6597 46.0618 18.1975C46.0618 18.7354 46.4076 19.1101 46.9041 19.1101C47.1231 19.1101 47.3276 19.0334 47.5323 18.894L47.6931 19.158C47.4252 19.3357 47.1428 19.4222 46.8556 19.4222C46.1591 19.4222 45.6628 18.9177 45.6628 18.1975C45.6626 17.4823 46.1591 16.973 46.8556 16.973Z" fill="#868685"/>
<path d="M48.3076 17.0304H48.6677V18.8458L50.0066 17.0304H50.3816V19.3643H50.0212V17.5492L48.6774 19.3646H48.3074V17.0304H48.3076Z" fill="#868685"/>
<path d="M52.2996 16.973C53.0009 16.973 53.5023 17.4775 53.5023 18.1977C53.5023 18.9182 53.0009 19.4224 52.2996 19.4224C51.5937 19.4224 51.092 18.918 51.092 18.1977C51.0923 17.4775 51.5937 16.973 52.2996 16.973ZM52.2996 19.1151C52.7719 19.1151 53.108 18.7405 53.108 18.1977C53.108 17.6597 52.7719 17.2806 52.2996 17.2806C51.8227 17.2806 51.4915 17.66 51.4915 18.1977C51.4915 18.7405 51.8227 19.1151 52.2996 19.1151Z" fill="#868685"/>
<path d="M54.2158 17.0304H54.6007V18.0244H55.9005V17.0304H56.29V19.3643H55.9005V18.3269H54.6007V19.3643H54.2158V17.0304Z" fill="#868685"/>
<path d="M57.1477 17.0304H57.5326V18.0244H58.8324V17.0304H59.2219V19.3643H58.8324V18.3269H57.5326V19.3643H57.1477V17.0304Z" fill="#868685"/>
<path d="M60.0798 17.0304H60.4402V17.9334H61.1609C61.6138 17.9334 61.9399 18.2216 61.9399 18.6489C61.9399 19.0714 61.6186 19.3643 61.1657 19.3643H60.0801V17.0304H60.0798ZM60.4402 19.0764H61.1072C61.3848 19.0764 61.5746 18.9038 61.5746 18.6491C61.5746 18.3945 61.3799 18.2218 61.1072 18.2218H60.4402V19.0764ZM62.4998 17.0304H62.8747V19.3643H62.4998V17.0304Z" fill="#868685"/>
<path d="M63.7368 17.0306H64.0972V18.8459L65.4361 17.0306H65.8113V19.3645H65.4509V17.5494L64.1071 19.3648H63.7371V17.0306H63.7368ZM64.2916 16.0315C64.3111 16.2811 64.4964 16.4492 64.7545 16.4492C65.0123 16.4492 65.1976 16.2811 65.2171 16.0315H65.4749C65.4603 16.4492 65.1585 16.7182 64.7545 16.7182C64.3502 16.7182 64.0484 16.4492 64.0338 16.0315H64.2916Z" fill="#868685"/>
<path d="M67.9861 17.0304H68.3561L69.1694 18.1253L69.9969 17.0304H70.3721V19.3643H70.0117V17.5492L69.2716 18.5193H69.0671L68.3464 17.5492V19.3646H67.9861V17.0304Z" fill="#868685"/>
<path d="M72.1401 17.9479C72.3055 17.9479 72.4857 17.967 72.671 18.0152V17.7752C72.671 17.4775 72.4371 17.266 72.0916 17.266C71.8383 17.266 71.5802 17.3237 71.3078 17.4389L71.2007 17.1603C71.5319 17.0353 71.8337 16.973 72.1356 16.973C72.6712 16.973 73.041 17.2998 73.041 17.7848V18.9132C73.041 19.043 73.119 19.1247 73.2555 19.1247C73.2946 19.1247 73.3526 19.1151 73.382 19.1101L73.4111 19.3982C73.3334 19.4128 73.2457 19.4224 73.1578 19.4224C72.8997 19.4224 72.7343 19.2734 72.7049 19.0334C72.5151 19.2782 72.2084 19.4224 71.882 19.4224C71.4148 19.4224 71.0591 19.1196 71.0591 18.7211C71.0591 18.2315 71.4683 17.9479 72.1401 17.9479ZM71.9745 19.1441C72.3837 19.1441 72.671 18.856 72.671 18.4428V18.2459C72.5053 18.2073 72.3446 18.1881 72.1838 18.1881C71.7164 18.1881 71.4389 18.3805 71.4389 18.6974C71.4389 18.9518 71.6678 19.1441 71.9745 19.1441Z" fill="#868685"/>
<path d="M73.9942 17.0304H75.5521V17.3329H74.3788V19.3646H73.9939V17.0304H73.9942Z" fill="#868685"/>
<path d="M77.0977 17.9479C77.263 17.9479 77.4432 17.967 77.6285 18.0152V17.7752C77.6285 17.4775 77.3946 17.266 77.0491 17.266C76.7958 17.266 76.5377 17.3237 76.2653 17.4389L76.1582 17.1603C76.4892 17.0353 76.7913 16.973 77.0931 16.973C77.6287 16.973 77.9985 17.2998 77.9985 17.7848V18.9132C77.9985 19.043 78.0765 19.1247 78.213 19.1247C78.2521 19.1247 78.3101 19.1151 78.3395 19.1101L78.3686 19.3982C78.2909 19.4128 78.2033 19.4224 78.1153 19.4224C77.8572 19.4224 77.6919 19.2734 77.6625 19.0334C77.4726 19.2782 77.1659 19.4224 76.8395 19.4224C76.3724 19.4224 76.0166 19.1196 76.0166 18.7211C76.0166 18.2315 76.4258 17.9479 77.0977 17.9479ZM76.932 19.1441C77.3412 19.1441 77.6285 18.856 77.6285 18.4428V18.2459C77.4629 18.2073 77.3021 18.1881 77.1414 18.1881C76.6742 18.1881 76.3964 18.3805 76.3964 18.6974C76.3964 18.9518 76.6254 19.1441 76.932 19.1441Z" fill="#868685"/>
<path d="M79.386 18.0487H79.6102C79.9414 18.0487 80.1553 17.8856 80.1553 17.6552C80.1553 17.4293 79.9703 17.2755 79.6733 17.2755C79.464 17.2755 79.2253 17.3333 78.9868 17.4389L78.8698 17.1603C79.1765 17.0353 79.4492 16.973 79.717 16.973C80.2087 16.973 80.5302 17.2324 80.5302 17.6116C80.5302 17.8662 80.3649 18.0921 80.0922 18.1639C80.3988 18.2408 80.5933 18.4856 80.5933 18.7594C80.5933 19.1484 80.2332 19.4222 79.717 19.4222C79.43 19.4222 79.1231 19.3501 78.8115 19.2157L78.9286 18.9419C79.1767 19.0619 79.4349 19.1247 79.6684 19.1247C79.9897 19.1247 80.2138 18.9613 80.2138 18.7211C80.2138 18.476 79.9751 18.2938 79.6102 18.2938H79.386V18.0487Z" fill="#868685"/>
<path d="M81.3193 17.0304H81.6797V18.8458L83.0186 17.0304H83.3938V19.3643H83.0334V17.5492L81.6897 19.3646H81.3196V17.0304H81.3193Z" fill="#868685"/>
<path d="M84.2515 17.0304H84.6364V18.0244H85.9362V17.0304H86.3256V19.3643H85.9362V18.3269H84.6364V19.3643H84.2515V17.0304Z" fill="#868685"/>
<path d="M69.6969 5.83102L70.786 6.45281L70.6169 7.07461H76.2816L75.6907 9.24677H70.03L69.6078 10.7961H75.8865L75.2945 12.9672L65.8697 12.9701L65.8716 12.9672H65.8697L67.7254 6.14418L67.1803 5.83102L67.7686 3.65992H77.2076L76.6193 5.83102H69.6969ZM33.3274 3.65992L32.737 5.83102L33.2821 6.15189L31.4275 12.9701H34.5744L36.344 6.45281L35.256 5.83102H40.296L38.3556 12.9701H41.5012L44.0307 3.65992H33.3274ZM65.5234 10.0266C65.0794 11.6507 62.7525 12.9698 60.328 12.9698H60.3231V12.9669L55.2944 12.9698L57.2334 5.83075L56.6864 5.52025L57.194 3.65966H66.0049L65.4147 5.83075H59.1209L60.2069 6.46851L60.0418 7.07434H61.9377L61.9396 7.07807C64.3644 7.07833 65.9676 8.39855 65.5234 10.0266ZM61.4851 9.24677H59.4508L59.0306 10.7961H61.1347C61.6979 10.729 62.1969 10.4111 62.3024 10.0266C62.4137 9.62245 62.0539 9.29413 61.4851 9.24677ZM97.482 12.9701L93.4275 10.5992L91.8213 12.9701H88.6742L91.1729 9.28295L90.0522 8.62497H91.6198L94.9741 3.68281H98.1223L99.9999 12.9701H97.482ZM96.8536 9.84674L96.1865 6.5313L94.764 8.6247L96.8536 9.84674ZM87.7215 10.7961H88.3154L87.7261 12.9672H76.4381L77.0282 10.7961H77.6308C78.8705 9.39922 79.7759 7.70412 80.2186 5.83102L79.6648 5.53116L80.1724 3.65992H89.6565L87.7215 10.7961ZM84.5727 10.7961L85.9224 5.83102H82.1136L83.2791 6.45281C83.2573 6.55791 83.2322 6.66194 83.2036 6.76331C82.8265 8.21337 82.2191 9.56871 81.4237 10.7961H84.5727ZM55.3904 8.32299C54.6422 11.0762 51.4653 13.3077 48.2996 13.3077C45.1303 13.3077 43.1727 11.0762 43.9193 8.32299C44.6696 5.57267 47.8454 3.34277 51.0136 3.34277C54.1796 3.34277 56.141 5.57267 55.3904 8.32299ZM50.3247 5.8688C48.763 5.8688 47.198 6.96951 46.8282 8.32299C46.459 9.67939 47.426 10.782 48.9855 10.782C50.5488 10.782 52.1138 9.67939 52.4841 8.32299C52.8517 6.96951 51.8867 5.8688 50.3247 5.8688Z" fill="#FF0400"/>
<path d="M21.9367 0H0.896026C0.403778 0 0.00377615 0.393777 0.00053945 0.879346C0.00053945 0.879346 0 0.882007 0 0.884136L0.00053945 0.886796V21.6423C0.00377615 22.1287 0.404048 22.5224 0.896026 22.5224H21.9367C22.4308 22.5224 22.8325 22.1271 22.8325 21.6396V0.884136C22.8322 0.396704 22.4308 0 21.9367 0ZM16.2854 16.9234H12.1112L14.4699 8.23978H7.99006L9.66397 8.99514L7.50887 16.9234H3.33515L5.58708 8.6277L4.92895 8.23978L5.76024 5.16859H19.4763L16.2854 16.9234Z" fill="#FF0400"/>
</svg>
