<svg width="150" height="32" viewBox="0 0 150 32" fill="none" xmlns="http://www.w3.org/2000/svg">
<path d="M47.881 24.162H48.439V25.5654H48.8593L50.113 24.162H50.736L49.3229 25.7628L50.8159 27.4732H50.1712L48.8665 25.9878H48.439V27.4732H47.881V24.162Z" fill="#868685"/>
<path d="M53.0727 24.0802C54.116 24.0802 54.8623 24.7959 54.8623 25.8177C54.8623 26.8399 54.116 27.5552 53.0727 27.5552C52.0217 27.5552 51.2754 26.8399 51.2754 25.8177C51.2754 24.7955 52.0217 24.0802 53.0727 24.0802ZM53.0727 27.1188C53.7756 27.1188 54.2758 26.5874 54.2758 25.8173C54.2758 25.0541 53.7756 24.5162 53.0727 24.5162C52.3625 24.5162 51.8695 25.0544 51.8695 25.8173C51.8695 26.5874 52.3625 27.1188 53.0727 27.1188Z" fill="#868685"/>
<path d="M55.924 24.1624H56.4747L57.6851 25.7156L58.9171 24.1624H59.4751V27.4735H58.9388V24.898L57.8372 26.2743H57.5329L56.4603 24.898V27.4735H55.924V24.1624Z" fill="#868685"/>
<path d="M60.7549 24.1624H61.2912V26.7378L63.284 24.1624H63.842V27.4735H63.3057V24.898L61.3057 27.4735H60.7549V24.1624Z" fill="#868685"/>
<path d="M66.6753 24.0802C67.1028 24.0802 67.5231 24.2029 67.9218 24.4547L67.6825 24.8295C67.3782 24.6321 67.0735 24.5298 66.7475 24.5298C66.0085 24.5298 65.4938 25.0544 65.4938 25.8173C65.4938 26.5806 66.0085 27.112 66.7475 27.112C67.0735 27.112 67.3778 27.0033 67.6825 26.8059L67.9218 27.1804C67.5231 27.4325 67.1028 27.5552 66.6753 27.5552C65.6387 27.5552 64.9001 26.8399 64.9001 25.8177C64.9001 24.8023 65.6387 24.0802 66.6753 24.0802Z" fill="#868685"/>
<path d="M70.2672 24.0802C70.6947 24.0802 71.115 24.2029 71.5137 24.4547L71.2744 24.8295C70.9701 24.6321 70.6654 24.5298 70.3395 24.5298C69.6004 24.5298 69.0857 25.0544 69.0857 25.8173C69.0857 26.5806 69.6004 27.112 70.3395 27.112C70.6654 27.112 70.9697 27.0033 71.2744 26.8059L71.5137 27.1804C71.115 27.4325 70.6947 27.5552 70.2672 27.5552C69.2307 27.5552 68.492 26.8399 68.492 25.8177C68.4916 24.8023 69.2307 24.0802 70.2672 24.0802Z" fill="#868685"/>
<path d="M72.4282 24.1624H72.9641V26.7378L74.9569 24.1624H75.5149V27.4735H74.9786V24.898L72.9782 27.4735H72.4278V24.1624H72.4282Z" fill="#868685"/>
<path d="M78.3699 24.0802C79.4137 24.0802 80.16 24.7959 80.16 25.8177C80.16 26.8399 79.4137 27.5552 78.3699 27.5552C77.3194 27.5552 76.5727 26.8399 76.5727 25.8177C76.5731 24.7955 77.3194 24.0802 78.3699 24.0802ZM78.3699 27.1188C79.0729 27.1188 79.5731 26.5874 79.5731 25.8173C79.5731 25.0541 79.0729 24.5162 78.3699 24.5162C77.6598 24.5162 77.1672 25.0544 77.1672 25.8173C77.1672 26.5874 77.6602 27.1188 78.3699 27.1188Z" fill="#868685"/>
<path d="M81.2219 24.1624H81.7948V25.5726H83.7294V24.1624H84.3091V27.4735H83.7294V26.0018H81.7948V27.4735H81.2219V24.1624Z" fill="#868685"/>
<path d="M85.5856 24.1624H86.1585V25.5726H88.0931V24.1624H88.6727V27.4735H88.0931V26.0018H86.1585V27.4735H85.5856V24.1624Z" fill="#868685"/>
<path d="M89.9496 24.1624H90.486V25.4431H91.5586C92.2326 25.4431 92.718 25.8519 92.718 26.4585C92.718 27.0579 92.2399 27.4735 91.5658 27.4735H89.95V24.1624H89.9496ZM90.486 27.0651H91.4787C91.8918 27.0651 92.1744 26.8201 92.1744 26.4589C92.1744 26.0976 91.8846 25.8523 91.4787 25.8523H90.486V27.0651ZM93.5514 24.1624H94.1094V27.4735H93.5514V24.1624Z" fill="#868685"/>
<path d="M95.3929 24.1621H95.9292V26.7376L97.922 24.1621H98.4804V27.4733H97.9441V24.8978L95.9441 27.4733H95.3933V24.1621H95.3929ZM96.2187 22.7451C96.2476 23.0992 96.5234 23.3377 96.9076 23.3377C97.2914 23.3377 97.5671 23.0992 97.596 22.7451H97.9798C97.9581 23.3377 97.5089 23.7194 96.9076 23.7194C96.3058 23.7194 95.8566 23.3377 95.8349 22.7451H96.2187Z" fill="#868685"/>
<path d="M101.717 24.1624H102.268L103.478 25.7156L104.71 24.1624H105.268V27.4735H104.732V24.898L103.631 26.2743H103.326L102.254 24.898V27.4735H101.717V24.1624Z" fill="#868685"/>
<path d="M107.9 25.4633C108.146 25.4633 108.414 25.4904 108.69 25.5587V25.2183C108.69 24.7959 108.342 24.4958 107.827 24.4958C107.45 24.4958 107.066 24.5777 106.661 24.7412L106.501 24.3459C106.994 24.1685 107.444 24.0802 107.893 24.0802C108.69 24.0802 109.24 24.5437 109.24 25.2319V26.8327C109.24 27.0169 109.356 27.1328 109.56 27.1328C109.618 27.1328 109.704 27.1192 109.748 27.112L109.791 27.5208C109.676 27.5416 109.545 27.5552 109.414 27.5552C109.03 27.5552 108.784 27.3438 108.74 27.0033C108.458 27.3506 108.001 27.5552 107.515 27.5552C106.82 27.5552 106.291 27.1256 106.291 26.5602C106.291 25.8653 106.9 25.4633 107.9 25.4633ZM107.653 27.16C108.262 27.16 108.69 26.7512 108.69 26.165V25.8856C108.443 25.8309 108.204 25.8037 107.965 25.8037C107.269 25.8037 106.856 26.0766 106.856 26.5262C106.856 26.8871 107.197 27.16 107.653 27.16Z" fill="#868685"/>
<path d="M110.659 24.1624H112.978V24.5915H111.231V27.4739H110.659V24.1624H110.659Z" fill="#868685"/>
<path d="M115.278 25.4633C115.524 25.4633 115.792 25.4904 116.068 25.5587V25.2183C116.068 24.7959 115.72 24.4958 115.206 24.4958C114.829 24.4958 114.445 24.5777 114.039 24.7412L113.88 24.3459C114.373 24.1685 114.822 24.0802 115.271 24.0802C116.069 24.0802 116.619 24.5437 116.619 25.2319V26.8327C116.619 27.0169 116.735 27.1328 116.938 27.1328C116.996 27.1328 117.083 27.1192 117.126 27.112L117.17 27.5208C117.054 27.5416 116.924 27.5552 116.793 27.5552C116.409 27.5552 116.163 27.3438 116.119 27.0033C115.837 27.3506 115.38 27.5552 114.894 27.5552C114.199 27.5552 113.67 27.1256 113.67 26.5602C113.669 25.8653 114.278 25.4633 115.278 25.4633ZM115.032 27.16C115.641 27.16 116.068 26.7512 116.068 26.165V25.8856C115.822 25.8309 115.582 25.8037 115.343 25.8037C114.648 25.8037 114.234 26.0766 114.234 26.5262C114.234 26.8871 114.575 27.16 115.032 27.16Z" fill="#868685"/>
<path d="M118.684 25.6063H119.018C119.511 25.6063 119.829 25.3749 119.829 25.048C119.829 24.7276 119.554 24.5094 119.112 24.5094C118.8 24.5094 118.445 24.5913 118.09 24.7412L117.916 24.3459C118.373 24.1685 118.778 24.0802 119.177 24.0802C119.909 24.0802 120.387 24.4482 120.387 24.9861C120.387 25.3474 120.141 25.6678 119.735 25.7698C120.192 25.8788 120.481 26.2261 120.481 26.6145C120.481 27.1664 119.945 27.5548 119.177 27.5548C118.75 27.5548 118.293 27.4529 117.829 27.2619L118.004 26.8735C118.373 27.0437 118.757 27.1328 119.105 27.1328C119.583 27.1328 119.917 26.901 119.917 26.5602C119.917 26.2125 119.561 25.9536 119.018 25.9536H118.684V25.6063Z" fill="#868685"/>
<path d="M121.562 24.1624H122.098V26.7378L124.091 24.1624H124.649V27.4735H124.113V24.898L122.113 27.4735H121.562V24.1624H121.562Z" fill="#868685"/>
<path d="M125.926 24.1624H126.499V25.5726H128.433V24.1624H129.013V27.4735H128.433V26.0018H126.499V27.4735H125.926V24.1624Z" fill="#868685"/>
<path d="M104.264 8.27204L105.885 9.15419L105.633 10.0363H114.064L113.184 13.118H104.759L104.131 15.316H113.476L112.595 18.3962L98.5678 18.4003L98.5707 18.3962H98.5678L101.33 8.71669L100.519 8.27241L101.394 5.19226H115.443L114.567 8.27241H104.264V8.27204ZM50.1331 5.19189L49.2539 8.27204L50.0652 8.72727L47.3049 18.4003H51.989L54.6228 9.15419L53.0034 8.27204H60.5048L57.6168 18.4003H62.2985L66.0632 5.19189H50.1331ZM98.052 14.2244C97.3912 16.5284 93.9279 18.3999 90.3194 18.3999H90.3121V18.3958L82.8276 18.3999L85.7136 8.27166L84.8994 7.83116L85.655 5.19151H98.7686L97.8902 8.27166H88.5225L90.1387 9.17684L89.893 10.0363H92.7148L92.7176 10.0416C96.327 10.0416 98.7132 11.915 98.052 14.2244ZM92.0416 13.118H89.0139L88.3884 15.316H91.5201C92.3583 15.2205 93.101 14.7698 93.2579 14.2244C93.4237 13.651 92.8882 13.1852 92.0416 13.118ZM145.618 18.4003L139.583 15.0367L137.192 18.4003H132.508L136.227 13.1693L134.559 12.2358H136.893L141.885 5.22435H146.571L149.365 18.4003H145.618ZM144.682 13.9696L143.689 9.26592L141.572 12.2358L144.682 13.9696ZM131.091 15.316H131.975L131.097 18.3962H114.297L115.175 15.316H116.072C117.917 13.3343 119.264 10.9294 119.923 8.27204L119.099 7.84663L119.854 5.19189H133.97L131.091 15.316ZM126.404 15.316L128.413 8.27204H122.744L124.479 9.15419C124.446 9.30329 124.409 9.45088 124.366 9.5947C123.805 11.6519 122.901 13.5747 121.717 15.316H126.404ZM82.9705 11.8074C81.8569 15.7135 77.1287 18.8793 72.4169 18.8793C67.6999 18.8793 64.7862 15.7135 65.8974 11.8074C67.0143 7.90552 71.7409 4.74194 76.4562 4.74194C81.1684 4.74194 84.0877 7.90552 82.9705 11.8074ZM75.431 8.32564C73.1066 8.32564 70.7774 9.88724 70.227 11.8074C69.6774 13.7318 71.1166 15.296 73.4382 15.296C75.765 15.296 78.0941 13.7318 78.6453 11.8074C79.1921 9.88724 77.7557 8.32564 75.431 8.32564Z" fill="#FF2001"/>
<path d="M33.1797 0H1.86412C1.13148 0 0.536137 0.558658 0.53132 1.24754C0.53132 1.25018 0.530518 1.2517 0.530518 1.25434C0.530518 1.25698 0.53132 1.25848 0.53132 1.25848V30.7045C0.536137 31.3946 1.13188 31.9532 1.86412 31.9532H33.1797C33.9151 31.9532 34.5129 31.3923 34.5129 30.7008V1.25434C34.5125 0.562813 33.9151 0 33.1797 0ZM24.7686 24.0094H18.5562L22.0669 11.6899H12.4221L14.9131 12.7615L11.7055 24.0094H5.49358L8.84525 12.2402L7.86572 11.6895L9.10298 7.33236H29.5169L24.7686 24.0094Z" fill="#FF2001"/>
</svg>
