<svg width="187" height="51" viewBox="0 0 187 51" fill="none" xmlns="http://www.w3.org/2000/svg">
    <path d="M66.6523 41.2246H67.3107V42.9853H67.8065L69.2857 41.2246H70.0207L68.3537 43.2332L70.1148 45.379H69.3541L67.8152 43.5151H67.3107V45.379H66.6523V41.2246Z"
          fill="#878787"/>
    <path d="M72.7771 41.1221C74.0079 41.1221 74.8885 42.0196 74.8885 43.3019C74.8885 44.5846 74.0079 45.4821 72.7771 45.4821C71.5375 45.4821 70.657 44.5846 70.657 43.3019C70.657 42.0196 71.5375 41.1221 72.7771 41.1221ZM72.7771 44.9349C73.6062 44.9349 74.1962 44.2678 74.1962 43.3019C74.1962 42.3446 73.6062 41.6693 72.7771 41.6693C71.9392 41.6693 71.358 42.3446 71.358 43.3019C71.358 44.2678 71.9392 44.9349 72.7771 44.9349Z"
          fill="#878787"/>
    <path d="M76.1414 41.2246H76.791L78.2188 43.1735L79.6723 41.2246H80.3306V45.3794H79.698V42.1479L78.3983 43.875H78.0392L76.774 42.1479V45.3794H76.1414V41.2246Z"
          fill="#878787"/>
    <path d="M81.8408 41.2246H82.4735V44.4562L84.8245 41.2246H85.4828V45.3794H84.8502V42.1479L82.4904 45.3794H81.8408V41.2246Z"
          fill="#878787"/>
    <path d="M88.8254 41.1221C89.3299 41.1221 89.8257 41.2763 90.2958 41.5922L90.0135 42.0623C89.6545 41.8144 89.295 41.6863 88.9107 41.6863C88.0385 41.6863 87.4316 42.3446 87.4316 43.3019C87.4316 44.2595 88.0385 44.9261 88.9107 44.9261C89.2955 44.9261 89.6545 44.7898 90.0135 44.5419L90.2958 45.012C89.8253 45.3283 89.3295 45.4821 88.8254 45.4821C87.6028 45.4821 86.731 44.5846 86.731 43.3019C86.731 42.0279 87.6028 41.1221 88.8254 41.1221Z"
          fill="#878787"/>
    <path d="M93.0627 41.1221C93.5672 41.1221 94.063 41.2763 94.5331 41.5922L94.2508 42.0623C93.8918 41.8144 93.5323 41.6863 93.1481 41.6863C92.2758 41.6863 91.6689 42.3446 91.6689 43.3019C91.6689 44.2595 92.2758 44.9261 93.1481 44.9261C93.5328 44.9261 93.8918 44.7898 94.2508 44.5419L94.5331 45.012C94.0626 45.3283 93.5668 45.4821 93.0627 45.4821C91.8401 45.4821 90.9683 44.5846 90.9683 43.3019C90.9683 42.0279 91.8401 41.1221 93.0627 41.1221Z"
          fill="#878787"/>
    <path d="M95.6123 41.2246H96.2449V44.4562L98.596 41.2246H99.2543V45.3794H98.6217V42.1479L96.2619 45.3794H95.6123V41.2246Z"
          fill="#878787"/>
    <path d="M102.622 41.1221C103.854 41.1221 104.734 42.0196 104.734 43.3019C104.734 44.5846 103.854 45.4821 102.622 45.4821C101.383 45.4821 100.502 44.5846 100.502 43.3019C100.502 42.0196 101.383 41.1221 102.622 41.1221ZM102.622 44.9349C103.451 44.9349 104.042 44.2678 104.042 43.3019C104.042 42.3446 103.451 41.6693 102.622 41.6693C101.785 41.6693 101.203 42.3446 101.203 43.3019C101.203 44.2678 101.785 44.9349 102.622 44.9349Z"
          fill="#878787"/>
    <path d="M105.987 41.2246H106.662V42.994H108.945V41.2246H109.629V45.3794H108.945V43.5325H106.662V45.3794H105.987V41.2246Z"
          fill="#878787"/>
    <path d="M111.135 41.2246H111.811V42.994H114.093V41.2246H114.777V45.3794H114.093V43.5325H111.811V45.3794H111.135V41.2246Z"
          fill="#878787"/>
    <path d="M116.284 41.2246H116.916V42.8319H118.182C118.977 42.8319 119.549 43.3447 119.549 44.1059C119.549 44.8579 118.985 45.3794 118.19 45.3794H116.283V41.2246H116.284ZM116.916 44.8662H118.087C118.575 44.8662 118.908 44.5586 118.908 44.1054C118.908 43.6523 118.567 43.3447 118.087 43.3447H116.916V44.8662ZM120.533 41.2246H121.191V45.3794H120.533V41.2246Z"
          fill="#878787"/>
    <path d="M122.705 41.2248H123.337V44.4564L125.688 41.2248H126.347V45.3796H125.715V42.1481L123.355 45.3796H122.705V41.2248H122.705ZM123.679 39.4463C123.713 39.8907 124.039 40.19 124.492 40.19C124.945 40.19 125.27 39.8907 125.304 39.4463H125.757C125.732 40.19 125.201 40.6689 124.492 40.6689C123.782 40.6689 123.252 40.19 123.227 39.4463H123.679Z"
          fill="#878787"/>
    <path d="M130.166 41.2246H130.816L132.244 43.1735L133.697 41.2246H134.355V45.3794H133.723V42.1479L132.423 43.875H132.064L130.799 42.1479V45.3794H130.166V41.2246Z"
          fill="#878787"/>
    <path d="M137.46 42.8575C137.75 42.8575 138.067 42.8919 138.392 42.9773V42.5499C138.392 42.02 137.981 41.6432 137.374 41.6432C136.93 41.6432 136.477 41.746 135.998 41.9512L135.81 41.4554C136.391 41.2327 136.921 41.1221 137.451 41.1221C138.392 41.1221 139.041 41.7033 139.041 42.5668V44.5754C139.041 44.8068 139.178 44.9519 139.418 44.9519C139.486 44.9519 139.589 44.9349 139.64 44.9261L139.691 45.439C139.555 45.4647 139.401 45.4821 139.247 45.4821C138.794 45.4821 138.503 45.2172 138.452 44.7898C138.118 45.2255 137.58 45.4821 137.007 45.4821C136.187 45.4821 135.562 44.9431 135.562 44.2338C135.561 43.362 136.28 42.8575 137.46 42.8575ZM137.169 44.9863C137.887 44.9863 138.392 44.4735 138.392 43.738V43.3873C138.101 43.3189 137.819 43.2844 137.536 43.2844C136.716 43.2844 136.228 43.6265 136.228 44.1911C136.228 44.6438 136.631 44.9863 137.169 44.9863Z"
          fill="#878787"/>
    <path d="M140.715 41.2246H143.451V41.7631H141.391V45.3794H140.715V41.2246Z" fill="#878787"/>
    <path d="M146.165 42.8575C146.455 42.8575 146.771 42.8919 147.096 42.9773V42.5499C147.096 42.02 146.686 41.6432 146.079 41.6432C145.635 41.6432 145.182 41.746 144.703 41.9512L144.515 41.4554C145.096 41.2327 145.626 41.1221 146.156 41.1221C147.096 41.1221 147.746 41.7033 147.746 42.5668V44.5754C147.746 44.8068 147.883 44.9519 148.123 44.9519C148.191 44.9519 148.293 44.9349 148.345 44.9261L148.396 45.439C148.26 45.4647 148.106 45.4821 147.952 45.4821C147.499 45.4821 147.208 45.2172 147.157 44.7898C146.823 45.2255 146.285 45.4821 145.712 45.4821C144.891 45.4821 144.267 44.9431 144.267 44.2338C144.267 43.362 144.985 42.8575 146.165 42.8575ZM145.874 44.9863C146.592 44.9863 147.097 44.4735 147.097 43.738V43.3873C146.806 43.3189 146.524 43.2844 146.242 43.2844C145.421 43.2844 144.934 43.6265 144.934 44.1911C144.933 44.6438 145.335 44.9863 145.874 44.9863Z"
          fill="#878787"/>
    <path d="M150.183 43.0375H150.577C151.158 43.0375 151.534 42.7469 151.534 42.3369C151.534 41.9352 151.209 41.6611 150.687 41.6611C150.32 41.6611 149.901 41.764 149.482 41.9522L149.277 41.4563C149.816 41.2337 150.294 41.123 150.765 41.123C151.628 41.123 152.192 41.5845 152.192 42.2598C152.192 42.7129 151.902 43.1151 151.423 43.2431C151.962 43.38 152.303 43.8156 152.303 44.3032C152.303 44.9955 151.671 45.4831 150.765 45.4831C150.26 45.4831 149.722 45.355 149.174 45.1153L149.38 44.6278C149.815 44.8413 150.268 44.9528 150.679 44.9528C151.243 44.9528 151.636 44.6618 151.636 44.2344C151.636 43.7982 151.217 43.4736 150.576 43.4736H150.183V43.0375H150.183Z"
          fill="#878787"/>
    <path d="M153.578 41.2246H154.21V44.4562L156.562 41.2246H157.22V45.3794H156.588V42.1479L154.228 45.3794H153.578V41.2246H153.578Z"
          fill="#878787"/>
    <path d="M158.727 41.2246H159.402V42.994H161.685V41.2246H162.369V45.3794H161.685V43.5325H159.402V45.3794H158.727V41.2246Z"
          fill="#878787"/>
    <path d="M133.17 21.2887L135.083 22.3953L134.785 23.5024H144.732L143.694 27.3688H133.755L133.013 30.1264H144.038L142.999 33.991L126.45 33.9962L126.453 33.991H126.45L129.708 21.8459L128.751 21.2882L129.784 17.4236H146.357L145.325 21.2882H133.17V21.2887ZM69.3092 17.4236L68.2723 21.2882L69.2291 21.8594L65.9727 33.9962H71.4986L74.606 22.3953L72.6955 21.2887H81.5453L78.1382 33.9962H83.6615L88.103 17.424H69.3092V17.4236ZM125.842 28.757C125.062 31.6478 120.976 33.9962 116.719 33.9962H116.711V33.991L107.881 33.9962L111.286 21.2887L110.325 20.7358L111.217 17.4236H126.688L125.651 21.2882H114.6L116.507 22.4237L116.217 23.502H119.546L119.549 23.5086C123.807 23.5086 126.622 25.8591 125.842 28.757ZM118.751 27.3684H115.179L114.442 30.1259H118.137C119.126 30.0065 120.002 29.4406 120.187 28.7565C120.382 28.0372 119.75 27.4529 118.751 27.3684ZM181.958 33.9962L174.839 29.7761L172.019 33.9962H166.493L170.88 27.4329L168.912 26.2617H171.665L177.555 17.4646H183.082L186.379 33.9967H181.958V33.9962ZM180.855 28.4367L179.684 22.5352L177.186 26.2617L180.855 28.4367ZM164.819 30.1264H165.862L164.828 33.991H145.007L146.043 30.1264H147.102C149.278 27.6398 150.868 24.6226 151.646 21.2887L150.674 20.7545L151.565 17.4236H168.218L164.819 30.1264ZM159.291 30.1264L161.66 21.2887H154.973L157.019 22.3953C156.981 22.5823 156.937 22.7679 156.886 22.9478C156.224 25.5289 155.157 27.9413 153.761 30.1264H159.291ZM108.05 25.7241C106.736 30.6252 101.158 34.5975 95.5988 34.5975C90.034 34.5975 86.5964 30.6252 87.9074 25.7241C89.2249 20.8286 94.801 16.8594 100.364 16.8594C105.923 16.8594 109.367 20.8286 108.05 25.7241ZM99.1549 21.3558C96.4126 21.3558 93.6651 23.3151 93.0155 25.7241C92.3672 28.1383 94.0651 30.1011 96.8035 30.1011C99.5488 30.1011 102.296 28.1383 102.947 25.7241C103.592 23.3151 101.898 21.3558 99.1549 21.3558Z"
          fill="#FF2001"/>
    <path d="M49.5182 10.9092H12.5733C11.7089 10.9092 11.0065 11.6102 11.0009 12.4742C11.0009 12.4777 11 12.4794 11 12.4829C11 12.486 11.0009 12.4881 11.0009 12.4881V49.434C11.0065 50.2997 11.7093 51.0003 12.5733 51.0003H49.5182C50.3857 51.0003 51.0911 50.2962 51.0911 49.4287V12.4829C51.0911 11.615 50.3857 10.9092 49.5182 10.9092ZM39.5952 41.0333H32.266L36.4077 25.5761H25.0295L27.9682 26.9206L24.1842 41.0333H16.8558L20.8097 26.2666L19.6543 25.5761L21.1138 20.1094H45.1974L39.5952 41.0333Z"
          fill="#FF2001"/>
    <path opacity="0.15"
          d="M24.6899 16.4515C24.6899 16.4515 26.681 16.7609 27.108 14.8046C27.108 14.8046 29.4913 14.9048 29.2516 12.2732C30.0607 11.4828 30.0755 10.1862 29.2852 9.37756C29.1767 9.26645 29.0556 9.16798 28.9249 9.08389C28.9249 9.08389 29.2255 6.84877 27.0949 6.67013C27.0949 6.67013 26.8204 6.09065 26.5067 5.96866C26.5067 5.96866 26.5416 3.96009 24.5069 3.92524C22.4722 3.89038 22.4242 5.96866 22.4242 5.96866C22.4242 5.96866 21.4178 5.8336 20.7381 7.33239C20.7381 7.33239 19.1391 6.89669 18.3461 8.84862C17.2617 8.98064 16.4696 9.93699 16.5423 11.0271C16.0748 11.0053 15.63 11.2301 15.3703 11.6197C15.3703 11.6197 12.8825 10.391 12.3204 13.4017C11.9523 13.4391 11.6194 13.6369 11.4098 13.9419C11.4098 13.9419 10.5036 13.2187 9.58424 13.5803C8.69542 13.9171 8.11246 14.7737 8.12466 15.7239C8.12466 15.7239 6.70429 16.3078 6.76093 17.6628C6.76006 18.4165 7.17571 19.1089 7.84145 19.4622C7.84145 19.4622 7.79353 20.9131 9.03527 21.1789C9.03527 21.1789 9.31411 21.7583 9.20954 21.9021C9.20954 21.9021 9.10933 23.2092 10.0809 23.6057C11.0525 24.0022 12.2594 23.9063 12.8389 23.1351C12.8389 23.1351 14.8213 23.4793 15.2832 22.2637C15.2832 22.2637 17.4094 23.1003 18.0629 21.2006C18.0629 21.2006 20.0279 21.0569 20.3068 19.7323C20.3068 19.7323 22.7467 19.6888 23.0124 17.7238C23.0255 17.7063 24.581 17.6889 24.6899 16.4515Z"
          fill="#1E1E1C"/>
    <g opacity="0.15">
        <path opacity="0.15"
              d="M21.1206 6.21792C21.3184 6.46278 21.4107 6.77648 21.3776 7.08931C21.2295 8.56633 20.0226 13.0235 11.2477 17.289C10.6508 17.5783 9.94013 17.4951 9.42645 17.0755C8.31106 16.1649 6.35042 14.4221 5.14354 12.5355C5.14354 12.5355 5.37882 10.0521 5.74481 8.29184C5.77313 8.16244 5.75134 8.02693 5.68381 7.91278C5.47467 7.56858 4.95184 6.88018 4.18065 7.04138C3.15677 7.24616 5.14354 12.5442 5.14354 12.5442C5.19452 13.4017 5.06817 14.2605 4.7732 15.0669C4.33489 16.1557 4.26126 17.3574 4.56407 18.4915C4.82549 19.437 4.89084 21.646 4.48129 21.3366C4.48129 21.3366 -0.311388 16.5439 0.677645 5.48595C0.715115 4.98403 0.93166 4.5126 1.28762 4.15707C2.25923 3.23339 4.68606 1.74767 10.2804 1.80431C17.0032 1.86966 20.2187 5.1156 21.1206 6.21792Z"
              fill="#1E1E1C"/>
        <path opacity="0.15"
              d="M5.68378 7.91257C5.75131 8.02672 5.7731 8.16223 5.74478 8.29163C5.37879 10.0344 5.14351 12.5353 5.14351 12.5353C5.14351 12.5353 3.15674 7.23724 4.18063 7.03246C4.95181 6.87997 5.47465 7.56837 5.68378 7.91257Z"
              fill="#1E1E1C"/>
    </g>
    <path opacity="0.15"
          d="M0.316995 19.7598C0.316995 19.7598 -0.763536 22.0995 1.67637 22.8794C1.67637 22.8794 3.90714 25.9292 5.64993 22.997C5.64993 22.997 8.99608 21.9949 6.56925 19.0975C6.56925 19.0975 6.6651 16.3265 3.56729 16.6271C3.56294 16.6271 -0.850673 15.6816 0.316995 19.7598Z"
          fill="#1E1E1C"/>
    <path d="M20.5948 4.41518C20.7952 4.66353 20.8823 4.97288 20.8518 5.28658C20.7037 6.76359 19.5055 11.2295 10.7219 15.4863C10.125 15.7738 9.41478 15.6954 8.90066 15.2728C7.78527 14.3622 5.82464 12.6194 4.61776 10.7328C4.61776 10.7328 4.85303 8.24932 5.21902 6.48911C5.24516 6.3584 5.22773 6.22333 5.15802 6.11004C4.94889 5.76584 4.42605 5.07745 3.65487 5.22994C2.63098 5.43472 4.61776 10.7328 4.61776 10.7328C4.61776 10.7328 4.71797 12.1227 4.22998 13.2642C3.73765 14.4057 3.75943 15.739 4.02085 16.6888C4.28227 17.6342 4.34762 19.8432 3.93807 19.5339C3.93807 19.5339 -0.854601 14.7456 0.134432 3.68321C0.178002 3.18216 0.400206 2.70725 0.766192 2.35434C1.73344 1.43066 4.16028 -0.0550673 9.75463 0.0015733C16.4774 0.0669279 19.6929 3.31287 20.5948 4.41518Z"
          fill="#FF2001"/>
    <path d="M5.15815 6.10983C5.22786 6.22311 5.24529 6.35819 5.21914 6.48889C4.85316 8.24911 4.61789 10.7326 4.61789 10.7326C4.61789 10.7326 2.6311 5.43451 3.65499 5.22973C4.42618 5.07724 4.94901 5.76563 5.15815 6.10983Z"
          fill="#BC3523"/>
    <path d="M24.0582 14.7559C24.0582 14.7559 26.0032 15.0583 26.4175 13.1456C26.4175 13.1456 28.7454 13.2453 28.5102 10.6734C28.5102 10.6734 30.0987 9.05653 28.193 7.55773C28.193 7.55773 28.4875 5.37663 26.407 5.20061C26.407 5.20061 26.1378 4.63421 25.8311 4.51613C25.8311 4.51613 25.865 2.55375 23.877 2.52281C21.8889 2.49188 21.8427 4.517 21.8427 4.517C21.8427 4.517 20.8611 4.38673 20.1975 5.84936C20.1975 5.84936 18.6381 5.41105 17.8604 7.32812C17.8604 7.32812 16.0649 7.51721 16.0971 9.45694C16.0971 9.45694 15.4087 9.37982 14.9521 10.0342C14.9521 10.0342 12.5218 8.83302 11.9837 11.7762C11.9837 11.7762 11.3097 11.8563 11.0919 12.3208C11.0919 12.3208 10.207 11.6145 9.30811 11.9687C9.30811 11.9687 7.84591 12.4781 7.88251 14.0614C7.88251 14.0614 6.49655 14.6178 6.5545 15.9414C6.61245 17.2651 7.60846 17.7003 7.60846 17.7003C7.60846 17.7003 7.55966 19.115 8.77438 19.3747C8.77438 19.3747 9.04495 19.9394 8.94517 20.0797C8.94517 20.0797 8.8454 21.3362 9.81221 21.7449C10.779 22.1536 11.9184 22.0368 12.5057 21.2848C12.5057 21.2848 14.4411 21.6216 14.8903 20.4169C14.8903 20.4169 16.9664 21.2317 17.6029 19.3778C17.6029 19.3778 19.5195 19.2392 19.7919 17.9461C19.7919 17.9461 22.1747 17.9051 22.4331 15.9854C22.4339 15.985 23.9536 15.9641 24.0582 14.7559Z"
          fill="white"/>
    <path d="M0.585413 18.9626C0.585413 18.9626 -0.429324 21.1633 1.86462 21.8983C1.86462 21.8983 3.96468 24.7591 5.60029 22.0072C5.60029 22.0072 8.74951 21.064 6.46559 18.3404C6.46559 18.3404 6.5549 15.7345 3.64096 16.0155C3.64096 16.0155 -0.509494 15.1285 0.585413 18.9626Z"
          fill="white"/>
</svg>
