<svg width="75" height="11" viewBox="0 0 75 11" fill="none" xmlns="http://www.w3.org/2000/svg">
<path d="M41.5449 2.57481L42.7272 3.21823L42.5436 3.86165H48.6932L48.0517 6.10938H41.9065L41.4485 7.71257H48.2645L47.6218 9.9592L37.3905 9.96223L37.3925 9.9592H37.3905L39.405 2.89913L38.8135 2.57508L39.4522 0.328456H49.699L49.0604 2.57508H41.5449V2.57481ZM2.06283 0.328183L1.42158 2.57481L2.01335 2.90684L0 9.96223H3.41649L5.33761 3.21823L4.15642 2.57481H9.62784L7.52137 9.96223H10.9361L13.6821 0.328183H2.06283ZM37.0142 6.91634C36.5323 8.5969 34.0062 9.96195 31.3742 9.96195H31.3689V9.95892L25.9098 9.96195L28.0148 2.57453L27.4209 2.25323L27.972 0.327906H37.5369L36.8962 2.57453H30.0635L31.2424 3.23475L31.0632 3.86165H33.1213L33.1234 3.86551C35.756 3.86551 37.4965 5.23193 37.0142 6.91634ZM32.6303 6.10938H30.4219L29.9657 7.71257H32.2499C32.8613 7.64292 33.403 7.31418 33.5175 6.91634C33.6384 6.49813 33.2478 6.15838 32.6303 6.10938ZM71.708 9.96223L67.3065 7.50884L65.5628 9.96223H62.1463L64.8589 6.14683L63.6423 5.46595H65.3441L68.9854 0.351861H72.4031L74.4413 9.96223H71.708ZM71.0257 6.7305L70.3016 3.29973L68.7573 5.46595L71.0257 6.7305ZM61.1121 7.71257H61.7569L61.1171 9.9592H48.863L49.5034 7.71257H50.1575C51.5033 6.26714 52.4862 4.51307 52.9667 2.57481L52.3656 2.26452L52.9167 0.328183H63.2124L61.1121 7.71257ZM57.6939 7.71257L59.1591 2.57481H55.0243L56.2895 3.21823C56.2658 3.32699 56.2386 3.43463 56.2076 3.53953C55.7982 5.04003 55.1388 6.44252 54.2753 7.71257H57.6939ZM26.014 5.15347C25.2017 8.00249 21.753 10.3116 18.3164 10.3116C14.8758 10.3116 12.7506 8.00249 13.5611 5.15347C14.3757 2.30747 17.8233 0 21.2626 0C24.6996 0 26.8289 2.30747 26.014 5.15347ZM20.5148 2.6139C18.8194 2.6139 17.1205 3.75291 16.7191 5.15347C16.3182 6.55705 17.3679 7.69799 19.0613 7.69799C20.7584 7.69799 22.4573 6.55705 22.8593 5.15347C23.2581 3.75291 22.2104 2.6139 20.5148 2.6139Z" fill="#FF2001"/>
</svg>
