<svg width="177" height="38" viewBox="0 0 177 38" fill="none" xmlns="http://www.w3.org/2000/svg">
<path d="M56.311 28.7344H56.9746V30.4034H57.4745L58.9655 28.7344H59.7064L58.0259 30.6382L59.8014 32.6721H59.0347L57.4831 30.9057H56.9746V32.6721H56.311V28.7344Z" fill="#868685"/>
<path d="M62.4851 28.6371C63.7259 28.6371 64.6134 29.4882 64.6134 30.7034C64.6134 31.919 63.7259 32.7697 62.4851 32.7697C61.2352 32.7697 60.3477 31.919 60.3477 30.7034C60.3477 29.4878 61.2352 28.6371 62.4851 28.6371ZM62.4851 32.2507C63.321 32.2507 63.9159 31.6187 63.9159 30.7029C63.9159 29.7952 63.321 29.1556 62.4851 29.1556C61.6405 29.1556 61.0542 29.7957 61.0542 30.7029C61.0542 31.6187 61.6405 32.2507 62.4851 32.2507Z" fill="#868685"/>
<path d="M65.8762 28.7349H66.5312L67.9706 30.5821L69.4358 28.7349H70.0994V32.6726H69.4616V29.6098L68.1516 31.2465H67.7897L66.514 29.6098V32.6726H65.8762V28.7349Z" fill="#868685"/>
<path d="M71.6213 28.7349H72.2592V31.7977L74.629 28.7349H75.2927V32.6726H74.6548V29.6098L72.2764 32.6726H71.6213V28.7349Z" fill="#868685"/>
<path d="M78.6619 28.6371C79.1704 28.6371 79.6702 28.783 80.1443 29.0824L79.8597 29.5281C79.4979 29.2934 79.1355 29.1717 78.7479 29.1717C77.8689 29.1717 77.2569 29.7957 77.2569 30.7029C77.2569 31.6106 77.8689 32.2427 78.7479 32.2427C79.1355 32.2427 79.4974 32.1134 79.8597 31.8786L80.1443 32.3239C79.6702 32.6238 79.1704 32.7697 78.6619 32.7697C77.4292 32.7697 76.5508 31.919 76.5508 30.7034C76.5508 29.4958 77.4292 28.6371 78.6619 28.6371Z" fill="#868685"/>
<path d="M82.9336 28.6371C83.4421 28.6371 83.9419 28.783 84.416 29.0824L84.1315 29.5281C83.7696 29.2934 83.4072 29.1717 83.0196 29.1717C82.1406 29.1717 81.5286 29.7957 81.5286 30.7029C81.5286 31.6106 82.1406 32.2427 83.0196 32.2427C83.4072 32.2427 83.7691 32.1134 84.1315 31.8786L84.416 32.3239C83.9419 32.6238 83.4421 32.7697 82.9336 32.7697C81.701 32.7697 80.8225 31.919 80.8225 30.7034C80.822 29.4958 81.701 28.6371 82.9336 28.6371Z" fill="#868685"/>
<path d="M85.5034 28.7349H86.1408V31.7977L88.5106 28.7349H89.1742V32.6726H88.5364V29.6098L86.1575 32.6726H85.5029V28.7349H85.5034Z" fill="#868685"/>
<path d="M92.5698 28.6371C93.811 28.6371 94.6985 29.4882 94.6985 30.7034C94.6985 31.919 93.811 32.7697 92.5698 32.7697C91.3204 32.7697 90.4324 31.919 90.4324 30.7034C90.4329 29.4878 91.3204 28.6371 92.5698 28.6371ZM92.5698 32.2507C93.4057 32.2507 94.0006 31.6187 94.0006 30.7029C94.0006 29.7952 93.4057 29.1556 92.5698 29.1556C91.7252 29.1556 91.1394 29.7957 91.1394 30.7029C91.1394 31.6187 91.7257 32.2507 92.5698 32.2507Z" fill="#868685"/>
<path d="M95.9614 28.7349H96.6427V30.412H98.9434V28.7349H99.6327V32.6726H98.9434V30.9224H96.6427V32.6726H95.9614V28.7349Z" fill="#868685"/>
<path d="M101.151 28.7349H101.832V30.412H104.133V28.7349H104.822V32.6726H104.133V30.9224H101.832V32.6726H101.151V28.7349Z" fill="#868685"/>
<path d="M106.341 28.7349H106.979V30.258H108.254C109.056 30.258 109.633 30.7442 109.633 31.4655C109.633 32.1784 109.064 32.6726 108.263 32.6726H106.341V28.7349H106.341ZM106.979 32.1869H108.159C108.651 32.1869 108.987 31.8956 108.987 31.466C108.987 31.0364 108.642 30.7446 108.159 30.7446H106.979V32.1869ZM110.624 28.7349H111.288V32.6726H110.624V28.7349Z" fill="#868685"/>
<path d="M112.814 28.7346H113.452V31.7975L115.822 28.7346H116.486V32.6724H115.848V29.6095L113.469 32.6724H112.814V28.7346H112.814ZM113.796 27.0494C113.83 27.4705 114.158 27.7542 114.615 27.7542C115.072 27.7542 115.4 27.4705 115.434 27.0494H115.89C115.865 27.7542 115.33 28.2081 114.615 28.2081C113.9 28.2081 113.365 27.7542 113.34 27.0494H113.796Z" fill="#868685"/>
<path d="M120.335 28.7349H120.99L122.43 30.5821L123.894 28.7349H124.558V32.6726H123.921V29.6098L122.611 31.2465H122.249L120.973 29.6098V32.6726H120.335V28.7349Z" fill="#868685"/>
<path d="M127.688 30.2819C127.98 30.2819 128.299 30.3142 128.627 30.3954V29.9905C128.627 29.4882 128.213 29.1313 127.602 29.1313C127.153 29.1313 126.697 29.2287 126.214 29.4231L126.025 28.9531C126.611 28.7421 127.145 28.6371 127.68 28.6371C128.628 28.6371 129.282 29.1883 129.282 30.0067V31.9105C129.282 32.1295 129.42 32.2674 129.662 32.2674C129.731 32.2674 129.834 32.2512 129.886 32.2427L129.937 32.7288C129.8 32.7535 129.645 32.7697 129.489 32.7697C129.032 32.7697 128.739 32.5183 128.687 32.1134C128.351 32.5264 127.808 32.7697 127.231 32.7697C126.404 32.7697 125.774 32.2588 125.774 31.5864C125.774 30.7599 126.498 30.2819 127.688 30.2819ZM127.395 32.2997C128.119 32.2997 128.627 31.8135 128.627 31.1164V30.7842C128.334 30.7191 128.05 30.6868 127.765 30.6868C126.938 30.6868 126.446 31.0113 126.446 31.546C126.446 31.9751 126.852 32.2997 127.395 32.2997Z" fill="#868685"/>
<path d="M130.969 28.7349H133.727V29.2453H131.65V32.6731H130.969V28.7349H130.969Z" fill="#868685"/>
<path d="M136.463 30.2819C136.755 30.2819 137.074 30.3142 137.402 30.3954V29.9905C137.402 29.4882 136.988 29.1313 136.377 29.1313C135.929 29.1313 135.472 29.2287 134.989 29.4231L134.8 28.9531C135.386 28.7421 135.92 28.6371 136.454 28.6371C137.403 28.6371 138.057 29.1883 138.057 30.0067V31.9105C138.057 32.1295 138.195 32.2674 138.437 32.2674C138.506 32.2674 138.609 32.2512 138.661 32.2427L138.712 32.7288C138.575 32.7535 138.419 32.7697 138.264 32.7697C137.807 32.7697 137.515 32.5183 137.463 32.1134C137.127 32.5264 136.584 32.7697 136.006 32.7697C135.179 32.7697 134.55 32.2588 134.55 31.5864C134.549 30.7599 135.273 30.2819 136.463 30.2819ZM136.169 32.2997C136.894 32.2997 137.402 31.8135 137.402 31.1164V30.7842C137.109 30.7191 136.824 30.6868 136.54 30.6868C135.713 30.6868 135.221 31.0113 135.221 31.546C135.221 31.9751 135.627 32.2997 136.169 32.2997Z" fill="#868685"/>
<path d="M140.513 30.452H140.91C141.496 30.452 141.875 30.1768 141.875 29.7881C141.875 29.4069 141.547 29.1475 141.022 29.1475C140.651 29.1475 140.229 29.2449 139.807 29.4231L139.599 28.9531C140.142 28.7421 140.625 28.6371 141.099 28.6371C141.969 28.6371 142.538 29.0748 142.538 29.7144C142.538 30.144 142.246 30.5252 141.763 30.6464C142.306 30.7761 142.65 31.1891 142.65 31.651C142.65 32.3073 142.013 32.7692 141.099 32.7692C140.591 32.7692 140.048 32.648 139.496 32.4209L139.704 31.959C140.143 32.1614 140.6 32.2674 141.013 32.2674C141.582 32.2674 141.978 31.9917 141.978 31.5864C141.978 31.1729 141.556 30.865 140.91 30.865H140.513V30.452Z" fill="#868685"/>
<path d="M143.935 28.7349H144.573V31.7977L146.943 28.7349H147.607V32.6726H146.969V29.6098L144.591 32.6726H143.936V28.7349H143.935Z" fill="#868685"/>
<path d="M149.125 28.7349H149.806V30.412H152.107V28.7349H152.796V32.6726H152.107V30.9224H149.806V32.6726H149.125V28.7349Z" fill="#868685"/>
<path d="M123.363 9.83754L125.291 10.8866L124.992 11.9357H135.019L133.973 15.6005H123.953L123.206 18.2145H134.32L133.272 21.8775L116.59 21.8825L116.593 21.8775H116.59L119.875 10.3663L118.91 9.83798L119.951 6.17494H136.658L135.617 9.83798H123.363V9.83754ZM58.9894 6.1745L57.9438 9.83754L58.9087 10.3789L55.626 21.8825H61.1964L64.3288 10.8866L62.4029 9.83754H71.3238L67.8893 21.8825H73.4569L77.9341 6.1745H58.9894ZM115.976 16.9163C115.191 19.6564 111.072 21.882 106.78 21.882H106.772V21.8771L97.871 21.882L101.303 9.83709L100.335 9.31322L101.233 6.17404H116.829L115.784 9.83709H104.644L106.566 10.9136L106.273 11.9357H109.629L109.633 11.942C113.925 11.942 116.763 14.1699 115.976 16.9163ZM108.829 15.6005H105.228L104.484 18.2145H108.208C109.205 18.1009 110.088 17.5649 110.275 16.9163C110.472 16.2344 109.835 15.6804 108.829 15.6005ZM172.543 21.8825L165.367 17.8823L162.524 21.8825H156.953L161.376 15.6616L159.393 14.5514H162.167L168.104 6.2131H173.677L177 21.8825H172.543ZM171.431 16.6133L170.25 11.0195L167.732 14.5514L171.431 16.6133ZM155.267 18.2145H156.318L155.275 21.8775H135.295L136.34 18.2145H137.406C139.6 15.8578 141.203 12.9978 141.986 9.83754L141.006 9.33162L141.905 6.1745H158.692L155.267 18.2145ZM149.694 18.2145L152.083 9.83754H145.341L147.404 10.8866C147.365 11.0639 147.321 11.2395 147.27 11.4105C146.603 13.857 145.528 16.1437 144.12 18.2145H149.694ZM98.0409 14.042C96.7166 18.6872 91.0936 22.4521 85.4902 22.4521C79.8805 22.4521 76.4155 18.6872 77.7369 14.042C79.0651 9.40165 84.6862 5.6394 90.2939 5.6394C95.8978 5.6394 99.3695 9.40165 98.0409 14.042ZM89.0746 9.90128C86.3104 9.90128 83.5404 11.7584 82.8859 14.042C82.2323 16.3305 83.9438 18.1907 86.7047 18.1907C89.4718 18.1907 92.2418 16.3305 92.8972 14.042C93.5475 11.7584 91.8393 9.90128 89.0746 9.90128Z" fill="#FF2001"/>
<path d="M38.8276 0H1.58597C0.714685 0 0.00668328 0.664378 0.000954305 1.48362C0.000954305 1.48677 0 1.48856 0 1.49171C0 1.49485 0.000954305 1.49664 0.000954305 1.49664V36.515C0.00668328 37.3356 0.715163 38 1.58597 38H38.8276C39.7023 38 40.4131 37.3329 40.4131 36.5105V1.49171C40.4127 0.669319 39.7023 0 38.8276 0ZM28.8249 28.5529H21.4369L25.6119 13.902H14.142L17.1043 15.1765L13.2898 28.5529H5.90227L9.8882 14.5565L8.72331 13.9016L10.1947 8.71993H34.4717L28.8249 28.5529Z" fill="#FF2001"/>
</svg>
