<svg width="99" height="94" viewBox="0 0 99 94" fill="none" xmlns="http://www.w3.org/2000/svg">
    <g opacity="0.6">
        <g clip-path="url(#clip0)">
            <path d="M17.1535 77.1794C26.6271 77.1794 34.3069 69.4269 34.3069 59.8636C34.3069 50.3004 26.6271 42.5479 17.1535 42.5479C7.67987 42.5479 0 50.3004 0 59.8636C0 69.4269 7.67987 77.1794 17.1535 77.1794Z"
                  fill="#F2F1F0"/>
            <path d="M49.9901 29.6842C58.1103 29.6842 64.693 23.0392 64.693 14.8421C64.693 6.64504 58.1103 0 49.9901 0C41.8699 0 35.2871 6.64504 35.2871 14.8421C35.2871 23.0392 41.8699 29.6842 49.9901 29.6842Z"
                  fill="#F2F1F0"/>
            <path d="M74.4952 94.0001C88.0289 94.0001 99.0001 82.925 99.0001 69.2632C99.0001 55.6014 88.0289 44.5264 74.4952 44.5264C60.9615 44.5264 49.9902 55.6014 49.9902 69.2632C49.9902 82.925 60.9615 94.0001 74.4952 94.0001Z"
                  fill="#F2F1F0"/>
            <path d="M64.7474 59.2494L58.4229 65.6338L64.7474 72.0182L71.0719 65.6338L64.7474 59.2494Z" fill="white"/>
            <path d="M71.0651 65.6761L64.8164 59.3682L62.9785 61.2234L66.5317 64.8103C67.0218 65.305 67.0218 66.0471 66.5317 66.5418L62.9785 70.1287L64.8164 71.9839L71.0651 65.6761Z"
                  fill="#C8C8C8"/>
            <path d="M64.8158 72.8496C64.5707 72.8496 64.3257 72.7259 64.2032 72.6022L57.9544 66.2944C57.5868 65.9233 57.5868 65.3049 57.9544 64.9338L64.2032 58.6259C64.5707 58.2549 65.1833 58.2549 65.5509 58.6259L71.7997 64.9338C71.9222 65.0575 72.0447 65.3049 72.0447 65.5522C72.0447 65.7996 71.9222 66.047 71.7997 66.1707L65.5509 72.4786C65.1833 72.8496 65.0608 72.8496 64.8158 72.8496ZM59.7923 65.6759L64.8158 70.747L69.8393 65.6759L64.8158 60.6049L59.7923 65.6759Z"
                  fill="#A4A4A4"/>
            <path d="M73.1084 63.5071L62.7119 74.002L73.3683 84.7592L83.7648 74.2643L73.1084 63.5071Z" fill="white"/>
            <path d="M83.8078 74.3338L73.1481 63.5732L70.085 66.6653L76.8238 73.468C77.3139 73.9627 77.3139 74.7048 76.8238 75.1995L70.33 81.7548L73.3931 84.8469L83.8078 74.3338Z"
                  fill="#C8C8C8"/>
            <path d="M73.3927 85.7126C73.1476 85.7126 72.9026 85.5889 72.7801 85.4652L62.1204 74.7047C61.7528 74.3337 61.7528 73.7152 62.1204 73.3442L72.535 62.831C72.9026 62.46 73.5152 62.46 73.8828 62.831L84.5424 73.5916C84.91 73.9626 84.91 74.581 84.5424 74.9521L74.1278 85.4652C73.8828 85.5889 73.6377 85.7126 73.3927 85.7126ZM63.9583 74.0863L73.2702 83.4863L82.337 74.3337L73.0251 64.9337L63.9583 74.0863Z"
                  fill="#A4A4A4"/>
            <path d="M85.6455 83.2393L82.0923 86.7024C80.1319 88.6814 77.0688 88.6814 75.1084 86.7024L73.2705 84.8471L83.6851 74.334L85.523 76.1892C87.4834 78.1682 87.4834 81.2603 85.6455 83.2393Z"
                  fill="white"/>
            <path d="M85.6455 76.1892L83.8076 74.334L80.1318 78.0445L81.9697 79.8998C83.8076 81.755 83.9301 84.8471 82.0922 86.8261C82.0922 86.8261 82.2148 86.8261 82.2148 86.7024L85.6455 83.2392C87.4833 81.2603 87.4833 78.1682 85.6455 76.1892Z"
                  fill="#C8C8C8"/>
            <path d="M78.6618 89.0527C77.069 89.0527 75.5987 88.4342 74.496 87.3211L72.6581 85.4658C72.5356 85.3421 72.4131 85.0948 72.4131 84.8474C72.4131 84.6 72.5356 84.3526 72.6581 84.229L83.0727 73.7158C83.4403 73.3447 84.0529 73.3447 84.4205 73.7158L86.2584 75.5711C88.5864 77.9211 88.5864 81.6316 86.2584 83.8579L82.8277 87.3211C81.725 88.4342 80.2547 89.0527 78.6618 89.0527ZM74.6185 84.8474L75.8438 86.0842C77.3141 87.5684 80.0096 87.5684 81.4799 86.0842L84.9106 82.6211C86.5034 81.0132 86.5034 78.5395 84.9106 76.9316L83.6854 75.6947L74.6185 84.8474Z"
                  fill="#A4A4A4"/>
            <path d="M40.5566 73.3451C58.1505 73.3451 72.4131 58.9475 72.4131 41.1872C72.4131 23.4269 58.1505 9.0293 40.5566 9.0293C22.9628 9.0293 8.7002 23.4269 8.7002 41.1872C8.7002 58.9475 22.9628 73.3451 40.5566 73.3451Z"
                  fill="white"/>
            <path d="M60.4056 16.0781C64.8165 21.6439 67.3895 28.5702 67.3895 36.2386C67.3895 54.0492 53.1766 68.3965 35.5331 68.3965C27.9365 68.3965 21.0751 65.7992 15.5615 61.3465C21.4427 68.6439 30.387 73.3439 40.434 73.3439C58.0776 73.3439 72.2905 58.9965 72.2905 41.186C72.413 31.0439 67.7571 21.8913 60.4056 16.0781Z"
                  fill="#C8C8C8"/>
            <path d="M40.5564 74.2101C22.4227 74.2101 7.71973 59.368 7.71973 41.1864C7.71973 23.0049 22.4227 8.03906 40.5564 8.03906C58.69 8.03906 73.393 22.8812 73.393 41.1864C73.393 59.4917 58.5675 74.2101 40.5564 74.2101ZM40.5564 9.89433C23.4029 9.89433 9.5576 23.8706 9.5576 41.1864C9.5576 58.3785 23.4029 72.4785 40.5564 72.4785C57.5873 72.4785 71.5551 58.5022 71.5551 41.1864C71.4326 23.8706 57.5873 9.89433 40.5564 9.89433Z"
                  fill="#A4A4A4"/>
            <path d="M84.5423 40.9396C85.8957 40.9396 86.9928 39.8321 86.9928 38.4659C86.9928 37.0997 85.8957 35.9922 84.5423 35.9922C83.1889 35.9922 82.0918 37.0997 82.0918 38.4659C82.0918 39.8321 83.1889 40.9396 84.5423 40.9396Z"
                  fill="white"/>
            <path d="M72.0452 13.9767C73.3986 13.9767 74.4957 12.8692 74.4957 11.503C74.4957 10.1368 73.3986 9.0293 72.0452 9.0293C70.6918 9.0293 69.5947 10.1368 69.5947 11.503C69.5947 12.8692 70.6918 13.9767 72.0452 13.9767Z"
                  fill="white"/>
            <path d="M28.3033 58.5025H52.8083C55.5038 58.5025 57.7093 56.2762 57.7093 53.5552V32.5288C57.7093 31.7867 57.2192 31.292 56.484 31.292H24.6276C23.8924 31.292 23.4023 31.7867 23.4023 32.5288V53.5552C23.4023 56.2762 25.4853 58.5025 28.3033 58.5025Z"
                  fill="#C8C8C8"/>
            <path d="M23.4023 52.3183H51.583C52.9308 52.3183 54.0335 51.2052 54.0335 49.8446V31.292H24.6276C23.8924 31.292 23.4023 31.7867 23.4023 32.5288V52.3183Z"
                  fill="white"/>
            <path d="M52.809 59.3682H28.304C25.1184 59.3682 22.4229 56.7708 22.4229 53.4313V32.405C22.4229 31.1682 23.4031 30.1787 24.6283 30.1787H56.4847C57.71 30.1787 58.6902 31.1682 58.6902 32.405V53.4313C58.5677 56.7708 55.9946 59.3682 52.809 59.3682ZM24.6283 32.1577C24.5058 32.1577 24.2607 32.2813 24.2607 32.5287V53.555C24.2607 55.7813 26.0986 57.6366 28.304 57.6366H52.809C55.0144 57.6366 56.8523 55.7813 56.8523 53.555V32.5287C56.8523 32.405 56.7298 32.1577 56.4847 32.1577H24.6283Z"
                  fill="#A4A4A4"/>
            <path d="M50.3585 38.3421C49.8684 38.3421 49.3783 37.971 49.3783 37.3526V31.1684C49.3783 26.221 45.335 22.1394 40.434 22.1394C35.533 22.1394 31.4897 26.221 31.4897 31.1684V37.3526C31.4897 37.8473 31.1221 38.3421 30.5095 38.3421C30.0194 38.3421 29.5293 37.971 29.5293 37.3526V31.1684C29.5293 25.2315 34.3078 20.2842 40.3115 20.2842C46.3152 20.2842 51.0936 25.1079 51.0936 31.1684V37.3526C51.2162 37.971 50.8486 38.3421 50.3585 38.3421Z"
                  fill="#A4A4A4"/>
        </g>
    </g>
    <defs>
        <clipPath id="clip0">
            <rect width="99" height="94" fill="white"/>
        </clipPath>
    </defs>
</svg>
