<svg width="149" height="140" viewBox="0 0 149 140" fill="none" xmlns="http://www.w3.org/2000/svg">
    <g opacity="0.6">
        <path d="M25.8168 114.948C40.0751 114.948 51.6337 103.402 51.6337 89.1586C51.6337 74.9155 40.0751 63.3691 25.8168 63.3691C11.5586 63.3691 0 74.9155 0 89.1586C0 103.402 11.5586 114.948 25.8168 114.948Z"
              fill="#F2F1F0"/>
        <path d="M75.2376 44.2105C87.4589 44.2105 97.3663 34.3137 97.3663 22.1053C97.3663 9.89686 87.4589 0 75.2376 0C63.0162 0 53.1089 9.89686 53.1089 22.1053C53.1089 34.3137 63.0162 44.2105 75.2376 44.2105Z"
              fill="#F2F1F0"/>
        <path d="M112.118 140C132.487 140 149 123.505 149 103.158C149 82.8102 132.487 66.3154 112.118 66.3154C91.7496 66.3154 75.2373 82.8102 75.2373 103.158C75.2373 123.505 91.7496 140 112.118 140Z"
              fill="#F2F1F0"/>
        <path d="M97.4469 88.2443L87.9282 97.7529L97.4469 107.262L106.966 97.7529L97.4469 88.2443Z" fill="white"/>
        <path d="M106.956 97.8156L97.5512 88.4209L94.7852 91.1841L100.133 96.5262C100.871 97.263 100.871 98.3683 100.133 99.1051L94.7852 104.447L97.5512 107.21L106.956 97.8156Z"
              fill="#C8C8C8"/>
        <path d="M97.5507 108.501C97.1819 108.501 96.8131 108.317 96.6287 108.133L87.224 98.7379C86.6708 98.1852 86.6708 97.2642 87.224 96.7115L96.6287 87.3168C97.1819 86.7642 98.1039 86.7642 98.6572 87.3168L108.062 96.7115C108.246 96.8958 108.431 97.2642 108.431 97.6326C108.431 98.001 108.246 98.3694 108.062 98.5536L98.6572 107.948C98.1039 108.501 97.9195 108.501 97.5507 108.501ZM89.9901 97.8168L97.5507 105.369L105.111 97.8168L97.5507 90.2642L89.9901 97.8168Z"
              fill="#A4A4A4"/>
        <path d="M110.031 94.5862L94.3843 110.217L110.423 126.238L126.07 110.608L110.031 94.5862Z" fill="white"/>
        <path d="M126.134 110.711L110.091 94.6846L105.48 99.2898L115.623 109.421C116.36 110.158 116.36 111.264 115.623 112L105.849 121.763L110.459 126.369L126.134 110.711Z"
              fill="#C8C8C8"/>
        <path d="M110.459 127.658C110.09 127.658 109.721 127.474 109.537 127.29L93.4935 111.264C92.9403 110.711 92.9403 109.79 93.4935 109.237L109.168 93.5795C109.721 93.0269 110.643 93.0269 111.197 93.5795L127.24 109.606C127.793 110.158 127.793 111.08 127.24 111.632L111.565 127.29C111.197 127.474 110.828 127.658 110.459 127.658ZM96.2596 110.343L110.274 124.343L123.921 110.711L109.906 96.7111L96.2596 110.343Z"
              fill="#A4A4A4"/>
        <path d="M128.9 123.974L123.552 129.132C120.602 132.079 115.991 132.079 113.041 129.132L110.275 126.369L125.949 110.711L128.716 113.474C131.666 116.421 131.666 121.027 128.9 123.974Z"
              fill="white"/>
        <path d="M128.9 113.474L126.134 110.711L120.602 116.237L123.368 119C126.134 121.764 126.318 126.369 123.552 129.316C123.552 129.316 123.736 129.316 123.736 129.132L128.9 123.974C131.666 121.027 131.666 116.421 128.9 113.474Z"
              fill="#C8C8C8"/>
        <path d="M118.389 132.632C115.991 132.632 113.778 131.711 112.119 130.053L109.353 127.289C109.168 127.105 108.984 126.737 108.984 126.368C108.984 126 109.168 125.632 109.353 125.447L125.027 109.789C125.58 109.237 126.502 109.237 127.056 109.789L129.822 112.553C133.325 116.053 133.325 121.579 129.822 124.895L124.658 130.053C122.999 131.711 120.786 132.632 118.389 132.632ZM112.303 126.368L114.147 128.211C116.36 130.421 120.417 130.421 122.63 128.211L127.793 123.053C130.191 120.658 130.191 116.974 127.793 114.579L125.949 112.737L112.303 126.368Z"
              fill="#A4A4A4"/>
        <path d="M61.0383 109.238C87.5179 109.238 108.984 87.7945 108.984 61.343C108.984 34.8914 87.5179 13.4482 61.0383 13.4482C34.5587 13.4482 13.0928 34.8914 13.0928 61.343C13.0928 87.7945 34.5587 109.238 61.0383 109.238Z"
              fill="white"/>
        <path d="M90.912 23.9473C97.5506 32.2367 101.423 42.5525 101.423 53.9736C101.423 80.4999 80.0321 101.868 53.4776 101.868C42.0444 101.868 31.7177 97.9999 23.4194 91.3683C32.2709 102.237 45.7325 109.237 60.8538 109.237C87.4083 109.237 108.799 87.8683 108.799 61.342C108.984 46.2367 101.976 32.6052 90.912 23.9473Z"
              fill="#C8C8C8"/>
        <path d="M61.0385 110.526C33.7464 110.526 11.6177 88.421 11.6177 61.3421C11.6177 34.2631 33.7464 11.9736 61.0385 11.9736C88.3305 11.9736 110.459 34.0789 110.459 61.3421C110.459 88.6052 88.1461 110.526 61.0385 110.526ZM61.0385 14.7368C35.2216 14.7368 14.3838 35.5526 14.3838 61.3421C14.3838 86.9473 35.2216 107.947 61.0385 107.947C86.6709 107.947 107.693 87.1315 107.693 61.3421C107.509 35.5526 86.6709 14.7368 61.0385 14.7368Z"
              fill="#A4A4A4"/>
        <path d="M127.24 60.9739C129.277 60.9739 130.928 59.3244 130.928 57.2897C130.928 55.2549 129.277 53.6055 127.24 53.6055C125.203 53.6055 123.552 55.2549 123.552 57.2897C123.552 59.3244 125.203 60.9739 127.24 60.9739Z"
              fill="white"/>
        <path d="M108.431 20.8167C110.468 20.8167 112.119 19.1672 112.119 17.1325C112.119 15.0977 110.468 13.4482 108.431 13.4482C106.394 13.4482 104.743 15.0977 104.743 17.1325C104.743 19.1672 106.394 20.8167 108.431 20.8167Z"
              fill="white"/>
        <path d="M42.5979 87.1328H79.4791C83.536 87.1328 86.8553 83.817 86.8553 79.7643V48.4486C86.8553 47.3433 86.1177 46.6064 85.0113 46.6064H37.0657C35.9593 46.6064 35.2217 47.3433 35.2217 48.4486V79.7643C35.2217 83.817 38.3566 87.1328 42.5979 87.1328Z"
              fill="#C8C8C8"/>
        <path d="M35.2217 77.9222H77.635C79.6635 77.9222 81.3232 76.2643 81.3232 74.238V46.6064H37.0657C35.9593 46.6064 35.2217 47.3433 35.2217 48.4486V77.9222Z"
              fill="white"/>
        <path d="M79.4792 88.421H42.5981C37.8035 88.421 33.7466 84.5525 33.7466 79.5788V48.2631C33.7466 46.421 35.2218 44.9473 37.0659 44.9473H85.0114C86.8555 44.9473 88.3307 46.421 88.3307 48.2631V79.5788C88.1463 84.5525 84.2738 88.421 79.4792 88.421ZM37.0659 47.8946C36.8815 47.8946 36.5127 48.0788 36.5127 48.4473V79.7631C36.5127 83.0788 39.2788 85.842 42.5981 85.842H79.4792C82.7986 85.842 85.5647 83.0788 85.5647 79.7631V48.4473C85.5647 48.2631 85.3802 47.8946 85.0114 47.8946H37.0659Z"
              fill="#A4A4A4"/>
        <path d="M75.7909 57.1057C75.0533 57.1057 74.3156 56.553 74.3156 55.632V46.4215C74.3156 39.053 68.2302 32.9741 60.854 32.9741C53.4778 32.9741 47.3924 39.053 47.3924 46.4215V55.632C47.3924 56.3688 46.8392 57.1057 45.9171 57.1057C45.1795 57.1057 44.4419 56.553 44.4419 55.632V46.4215C44.4419 37.5794 51.6337 30.2109 60.6696 30.2109C69.7055 30.2109 76.8973 37.3952 76.8973 46.4215V55.632C77.0817 56.553 76.5285 57.1057 75.7909 57.1057Z"
              fill="#A4A4A4"/>
    </g>
</svg>
