<svg width="47" height="39" viewBox="0 0 47 39" fill="none" xmlns="http://www.w3.org/2000/svg">
    <g clip-path="url(#clip0)">
        <path d="M40.875 38.9799H6.54038C3.3698 38.9799 0.791504 36.4857 0.791504 33.4178V11.1694C0.791504 8.10142 3.3698 5.60725 6.54038 5.60725H13.9721C15.1038 0.337891 16.6491 0.337891 17.4235 0.337891H30.2774C31.4761 0.337891 32.7734 1.003 33.522 5.60725H40.8762C44.0444 5.60725 46.6227 8.10142 46.6227 11.1694V33.4178C46.6227 36.4857 44.0444 38.9799 40.875 38.9799Z"
              fill="#C6C4BF"/>
        <path d="M23.7072 31.8334C29.5062 31.8334 34.2072 27.1492 34.2072 21.3708C34.2072 15.5925 29.5062 10.9082 23.7072 10.9082C17.9082 10.9082 13.2072 15.5925 13.2072 21.3708C13.2072 27.1492 17.9082 31.8334 23.7072 31.8334Z"
              fill="#F0F0F0"/>
        <path d="M18.051 22.2842V20.468H22.7799V15.7233H24.6354V20.468H29.3643V22.2842H24.6354V27.0184H22.7787V22.2842H18.051Z" fill="#C6C4BF"/>
    </g>
    <defs>
        <clipPath id="clip0">
            <rect x="0.791504" y="0.337891" width="45.8312" height="38.642" fill="white"/>
        </clipPath>
    </defs>
</svg>
