<svg width="20" height="20" viewBox="0 0 20 20" fill="none" xmlns="http://www.w3.org/2000/svg">
    <path d="M10.1481 0.629883H10.1435C5.05833 0.629883 0.923096 4.76627 0.923096 9.8526C0.923096 11.8701 1.5733 13.74 2.67887 15.2583L1.52949 18.6845L5.07447 17.5513C6.53281 18.5173 8.27245 19.0753 10.1481 19.0753C15.2333 19.0753 19.3685 14.9378 19.3685 9.8526C19.3685 4.76743 15.2333 0.629883 10.1481 0.629883Z"
          fill="#4CAF50"/>
    <path d="M16.2479 13.7602C16.0106 14.42 15.0687 14.9673 14.3174 15.1271C13.8035 15.2349 13.1321 15.3208 10.8721 14.3982C7.98125 13.219 6.11962 10.3266 5.97453 10.1389C5.83558 9.95126 4.8064 8.60736 4.8064 7.21745C4.8064 5.82754 5.52326 5.15075 5.81222 4.86017C6.04953 4.62166 6.44178 4.5127 6.81804 4.5127C6.93977 4.5127 7.0492 4.51875 7.14757 4.52359C7.43653 4.5357 7.58163 4.55265 7.77222 5.00183C8.00953 5.56481 8.58745 6.95472 8.6563 7.09759C8.72639 7.24045 8.79648 7.43417 8.69811 7.62183C8.60589 7.81555 8.52474 7.90151 8.37964 8.06617C8.23455 8.23082 8.09683 8.35674 7.95174 8.5335C7.81894 8.68727 7.66893 8.85192 7.83616 9.13644C8.00338 9.41491 8.5813 10.3435 9.43219 11.0893C10.5302 12.0519 11.4205 12.3594 11.7389 12.4901C11.9763 12.587 12.2591 12.564 12.4324 12.3824C12.6525 12.1487 12.9243 11.7613 13.2009 11.3799C13.3977 11.1063 13.6461 11.0724 13.9067 11.1692C14.1723 11.2601 15.5778 11.9441 15.8667 12.0858C16.1557 12.2286 16.3463 12.2964 16.4164 12.4163C16.4852 12.5362 16.4852 13.0991 16.2479 13.7602Z"
          fill="#FAFAFA"/>
</svg>
