<svg width="35" height="35" viewBox="0 0 35 35" fill="none" xmlns="http://www.w3.org/2000/svg">
<rect width="35" height="35" rx="5" fill="#507299"/>
<path fill-rule="evenodd" clip-rule="evenodd" d="M17.2747 23.9495H18.5301C18.5301 23.9495 18.909 23.9079 19.1025 23.6992C19.2812 23.5069 19.2753 23.1467 19.2753 23.1467C19.2753 23.1467 19.2508 21.4599 20.0323 21.2111C20.8027 20.966 21.7926 22.8414 22.8411 23.5626C23.6345 24.1085 24.2373 23.9889 24.2373 23.9889L27.0417 23.9495C27.0417 23.9495 28.5083 23.8589 27.8128 22.704C27.7557 22.6097 27.4072 21.8491 25.7277 20.2872C23.9689 18.6524 24.2047 18.9168 26.3232 16.0885C27.6126 14.3669 28.1287 13.3152 27.967 12.8651C27.8136 12.4358 26.8652 12.5495 26.8652 12.5495L23.7072 12.5688C23.7072 12.5688 23.4729 12.5368 23.2993 12.6408C23.1303 12.7426 23.0213 12.9802 23.0213 12.9802C23.0213 12.9802 22.5208 14.3127 21.8549 15.4461C20.449 17.8377 19.8863 17.9639 19.6564 17.8154C19.1218 17.4693 19.2552 16.4257 19.2552 15.6838C19.2552 13.3657 19.6067 12.3994 18.5723 12.1491C18.229 12.0667 17.9762 12.0117 17.0982 12.0028C15.9719 11.9909 15.0184 12.0058 14.4785 12.2709C14.1189 12.447 13.8416 12.8399 14.0107 12.8621C14.219 12.8904 14.6921 12.9899 14.9427 13.3315C15.266 13.7727 15.2549 14.7628 15.2549 14.7628C15.2549 14.7628 15.441 17.4908 14.8204 17.8302C14.3948 18.062 13.8112 17.5881 12.5573 15.4179C11.9152 14.3067 11.4303 13.0783 11.4303 13.0783C11.4303 13.0783 11.3368 12.8488 11.17 12.7255C10.9676 12.5769 10.6851 12.5294 10.6851 12.5294L7.68424 12.5495C7.68424 12.5495 7.23416 12.5621 7.0688 12.7582C6.92125 12.9327 7.05694 13.2937 7.05694 13.2937C7.05694 13.2937 9.40599 18.7987 12.0657 21.5728C14.5052 24.1167 17.2747 23.9495 17.2747 23.9495" fill="white"/>
</svg>
