<svg width="24" height="26" viewBox="0 0 24 26" fill="none" xmlns="http://www.w3.org/2000/svg">
    <path d="M13.6362 1.53906L3.17561 3.4917L1.0835 14.0917L2.61771 18.1365L5.82561 20.0891L6.52298 24.5523H7.35983L11.1256 21.0654L19.0756 20.0891L22.9809 13.1154L21.1678 4.74697L13.6362 1.53906Z" fill="#7D3DAF"/>
    <path d="M23.3943 6.77234L23.3872 6.74414C22.8169 4.43837 20.2455 1.96416 17.8841 1.44942L17.8575 1.44393C14.038 0.715303 10.1653 0.715303 6.34667 1.44393L6.31924 1.44942C3.95863 1.96416 1.38727 4.43837 0.816119 6.74414L0.809851 6.77234C0.104724 9.99242 0.104724 13.2579 0.809851 16.478L0.816119 16.5062C1.36291 18.7136 3.74279 21.0741 6.01604 21.7233V24.2972C6.01604 25.2287 7.15129 25.6863 7.79688 25.0141L10.4047 22.3033C10.9703 22.335 11.5362 22.3526 12.1021 22.3526C14.0247 22.3526 15.9481 22.1708 17.8575 21.8065L17.8841 21.801C20.2455 21.2863 22.8169 18.8121 23.3872 16.5063L23.3943 16.4781C24.0994 13.2579 24.0994 9.99242 23.3943 6.77234ZM21.3306 16.0111C20.9498 17.5153 18.9974 19.3855 17.4461 19.731C15.4153 20.1172 13.3684 20.2823 11.3235 20.2256C11.2829 20.2245 11.2438 20.2403 11.2154 20.2694C10.9252 20.5673 9.31133 22.224 9.31133 22.224L7.28605 24.3026C7.13797 24.4569 6.87786 24.3519 6.87786 24.1388V19.875C6.87786 19.8046 6.82756 19.7447 6.75838 19.7312C6.75799 19.7311 6.7576 19.731 6.75721 19.7309C5.20593 19.3854 3.25429 17.5153 2.87274 16.011C2.23813 13.1004 2.23813 10.1498 2.87274 7.23922C3.25429 5.73495 5.20593 3.86479 6.75721 3.51928C10.304 2.84471 13.9001 2.84471 17.4461 3.51928C18.9982 3.86479 20.9498 5.73495 21.3306 7.23922C21.9659 10.1499 21.9659 13.1005 21.3306 16.0111Z"
          fill="white"/>
    <path d="M15.4763 17.9788C15.2378 17.9064 15.0105 17.8578 14.7994 17.7702C12.6123 16.8628 10.5994 15.6921 9.00495 13.8975C8.09823 12.8771 7.38856 11.725 6.78866 10.5057C6.50418 9.92752 6.26443 9.32668 6.02007 8.72975C5.79725 8.18539 6.12545 7.62301 6.47104 7.21286C6.79532 6.82794 7.21259 6.53336 7.6645 6.31625C8.01722 6.14679 8.36516 6.24449 8.62277 6.54346C9.17966 7.18983 9.69119 7.86926 10.1054 8.61849C10.3601 9.07933 10.2902 9.64265 9.82862 9.95628C9.71642 10.0325 9.61418 10.122 9.50966 10.2081C9.418 10.2835 9.33174 10.3598 9.2689 10.4619C9.15404 10.6489 9.14856 10.8693 9.22252 11.0726C9.79179 12.637 10.7513 13.8535 12.3259 14.5087C12.5779 14.6136 12.831 14.7356 13.1212 14.7018C13.6074 14.645 13.7648 14.1117 14.1054 13.8331C14.4384 13.5609 14.8639 13.5573 15.2226 13.7843C15.5814 14.0113 15.9291 14.255 16.2748 14.5014C16.6141 14.7432 16.952 14.9797 17.265 15.2553C17.5659 15.5204 17.6696 15.8681 17.5001 16.2278C17.1898 16.8865 16.7384 17.4345 16.0872 17.7844C15.9033 17.883 15.6837 17.915 15.4763 17.9788C15.2378 17.9064 15.6837 17.915 15.4763 17.9788Z"
          fill="white"/>
    <path d="M12.1078 5.56369C14.9687 5.64384 17.3184 7.54243 17.8219 10.3708C17.9077 10.8527 17.9383 11.3454 17.9764 11.8345C17.9925 12.0403 17.876 12.2358 17.654 12.2384C17.4246 12.2412 17.3214 12.0493 17.3066 11.8436C17.2771 11.4365 17.2567 11.0276 17.2006 10.6239C16.9044 8.49279 15.205 6.72966 13.0838 6.35132C12.7646 6.29436 12.4379 6.27939 12.1146 6.24547C11.9101 6.224 11.6424 6.21162 11.5972 5.95754C11.5592 5.74452 11.739 5.57489 11.9418 5.564C11.997 5.56095 12.0524 5.56345 12.1078 5.56369C14.9687 5.64384 12.0524 5.56345 12.1078 5.56369Z"
          fill="white"/>
    <path d="M16.4554 11.199C16.4507 11.2347 16.4482 11.3187 16.4273 11.3979C16.3514 11.6851 15.9159 11.721 15.8156 11.4312C15.7859 11.3451 15.7815 11.2473 15.7813 11.1547C15.7803 10.5487 15.6486 9.94342 15.343 9.41622C15.0289 8.87437 14.549 8.41886 13.9862 8.14323C13.6459 7.97659 13.2778 7.87301 12.9048 7.81127C12.7417 7.78432 12.577 7.76795 12.4131 7.74515C12.2146 7.71757 12.1086 7.59104 12.118 7.3954C12.1268 7.21207 12.2608 7.08021 12.4605 7.09149C13.1171 7.12879 13.7512 7.27067 14.3349 7.57976C15.5219 8.20834 16.1999 9.20053 16.3978 10.5254C16.4067 10.5854 16.4212 10.6449 16.4257 10.7051C16.4369 10.8539 16.444 11.0028 16.4554 11.199C16.4507 11.2347 16.444 11.0028 16.4554 11.199Z"
          fill="white"/>
    <path d="M14.6762 11.1299C14.4368 11.1342 14.3087 11.0017 14.2841 10.7822C14.2669 10.6292 14.2534 10.4742 14.2168 10.3253C14.1449 10.0321 13.9891 9.76043 13.7425 9.58078C13.626 9.49593 13.4941 9.43411 13.3559 9.39423C13.1803 9.34354 12.998 9.35749 12.8228 9.31456C12.6326 9.26794 12.5274 9.11391 12.5573 8.93543C12.5845 8.77302 12.7425 8.64625 12.92 8.6591C14.0291 8.73917 14.8218 9.3126 14.935 10.6183C14.943 10.7105 14.9524 10.8079 14.9319 10.896C14.8969 11.0469 14.7852 11.1225 14.6762 11.1299C14.4368 11.1342 14.7852 11.1225 14.6762 11.1299Z"
          fill="white"/>
</svg>
