<svg width="25" height="25" viewBox="0 0 25 25" fill="none" xmlns="http://www.w3.org/2000/svg">
    <path fill-rule="evenodd" clip-rule="evenodd"
          d="M12.5 0C5.56818 0 0 5.625 0 12.5C0 19.4318 5.56818 25 12.5 25C19.4318 25 25 19.4318 25 12.5C25 5.625 19.4318 0 12.5 0ZM1.15188 13.0952H1.78571C2.11446 13.0952 2.38095 12.8287 2.38095 12.5C2.38095 12.1713 2.11445 11.9048 1.78571 11.9048H1.15188C1.45386 6.12574 6.12574 1.45386 11.9048 1.15188V1.78571C11.9048 2.11446 12.1713 2.38095 12.5 2.38095C12.8287 2.38095 13.0952 2.11445 13.0952 1.78571V1.15188C18.8743 1.45386 23.5461 6.12574 23.8481 11.9048H23.2143C22.8855 11.9048 22.619 12.1713 22.619 12.5C22.619 12.8287 22.8855 13.0952 23.2143 13.0952H23.8481C23.5461 18.8743 18.8743 23.5461 13.0952 23.8481V23.2143C13.0952 22.8855 12.8287 22.619 12.5 22.619C12.1713 22.619 11.9048 22.8855 11.9048 23.2143V23.8481C6.12574 23.5461 1.45386 18.8743 1.15188 13.0952Z"
          fill="#ADADAD"/>
    <path d="M6.00439 10.1618H7.02381C7.02381 9.15997 7.69756 8.49794 8.71111 8.49794C9.70709 8.49794 10.3105 9.16583 10.3105 10.0622C10.3105 10.8063 9.99417 11.2457 8.91617 12.4116L6.05712 15.5049V16.2314H11.5291V15.2823H7.5218V15.1886L9.44345 13.2025C10.9667 11.6265 11.3885 10.9234 11.3885 9.9509C11.3885 8.57996 10.2578 7.57812 8.78142 7.57812C7.16442 7.57812 6.00439 8.65613 6.00439 10.1618Z"
          fill="#ADADAD"/>
    <path d="M16.8153 16.2314H17.8465V14.4797H19.0475V13.5364H17.8465V7.77732H16.3173C15.1339 9.54079 13.8391 11.6031 12.6967 13.5188V14.4797H16.8153V16.2314ZM13.7747 13.472C14.6945 11.9194 15.8018 10.1735 16.7509 8.75572H16.8212V13.5423H13.7747V13.472Z"
          fill="#ADADAD"/>
</svg>
