<svg width="19" height="20" viewBox="0 0 19 20" fill="none" xmlns="http://www.w3.org/2000/svg">
<path d="M18.9894 4.88158C18.9871 4.87338 18.9828 4.86603 18.9797 4.85812C18.974 4.84285 18.9683 4.82759 18.9599 4.81359C18.9549 4.80511 18.9479 4.7979 18.9418 4.78985C18.9329 4.77783 18.9242 4.76596 18.9133 4.75536C18.9057 4.74801 18.8967 4.74221 18.8882 4.73571C18.8791 4.72864 18.8711 4.72044 18.861 4.71436C18.8579 4.71253 18.8546 4.71196 18.8516 4.71027C18.8488 4.70871 18.8468 4.70645 18.844 4.70503L9.63332 0.0318041C9.5497 -0.0106014 9.45016 -0.0106014 9.36654 0.0318041L0.155957 4.70532C0.153208 4.70673 0.151183 4.70899 0.148434 4.71055C0.145396 4.71224 0.142069 4.71281 0.13903 4.71465C0.128903 4.72058 0.120946 4.72892 0.111832 4.73585C0.103441 4.74235 0.0944712 4.74815 0.0868036 4.7555C0.0759531 4.76596 0.0672728 4.77797 0.0583031 4.78985C0.0522268 4.7979 0.0454272 4.80511 0.040219 4.81359C0.031828 4.82759 0.0261857 4.84271 0.0203988 4.85798C0.0173607 4.86603 0.0128759 4.87338 0.0105611 4.88158C0.00376149 4.90575 0 4.93063 0 4.95622V14.4972C0 14.598 0.0549756 14.6911 0.144239 14.7417L9.35482 19.9618C9.35497 19.962 9.35511 19.962 9.35526 19.962C9.3554 19.9621 9.3554 19.9621 9.35555 19.9623C9.36915 19.9699 9.38376 19.9741 9.39822 19.9794C9.40748 19.9828 9.41616 19.988 9.42557 19.9904C9.44987 19.9968 9.4749 19.9999 9.49993 19.9999C9.52496 19.9999 9.54984 19.9966 9.57429 19.9904C9.5837 19.988 9.59252 19.9828 9.60163 19.9794C9.61596 19.974 9.63071 19.9698 9.64431 19.9623C9.64431 19.9623 9.64446 19.9621 9.6446 19.962C9.64475 19.9618 9.64489 19.9618 9.64504 19.9618L18.8556 14.7417C18.9449 14.6911 18.9999 14.5978 18.9999 14.4972V4.95622C19 4.93063 18.9961 4.90561 18.9894 4.88158ZM15.0211 10.5648L14.5772 10.801L14.4888 10.848L13.6386 11.3004C13.6269 11.3066 13.6154 11.3096 13.6037 11.3096C13.5738 11.3096 13.5296 11.2865 13.5296 11.237V10.1892V8.02086C13.5296 7.98454 13.526 7.94906 13.5204 7.914C13.5201 7.91216 13.5202 7.91033 13.5199 7.90849L15.2715 7.01967V10.1519C15.2715 10.324 15.1756 10.4821 15.0211 10.5648ZM3.96143 3.41152L12.5657 7.75555L9.50007 9.31112L0.91708 4.95622L3.96143 3.41152ZM13.1911 7.43821C13.1781 7.43058 13.1658 7.42196 13.1522 7.41517L4.59683 3.09589L6.35041 2.20608L14.9266 6.55773L13.1911 7.43821ZM9.50007 0.601169L18.0829 4.95622L15.5468 6.24308C15.5195 6.22414 15.4907 6.20676 15.4603 6.19149L6.97149 1.88422L9.50007 0.601169ZM0.578691 5.42155L9.21073 9.80147V19.2264L0.578691 14.3342V5.42155ZM18.4213 14.3342L9.78942 19.2262V9.80147L12.9511 8.19727V10.5659V11.2372C12.9511 11.5889 13.2439 11.8751 13.6039 11.8751C13.7116 11.8751 13.8194 11.8482 13.9155 11.7971L14.8441 11.3029L15.297 11.062C15.2974 11.0619 15.2977 11.0616 15.298 11.0613L15.4011 11.0065C15.6783 10.8591 15.8503 10.5761 15.8503 10.2678V10.1519V6.81867C15.8503 6.78856 15.8479 6.75873 15.8441 6.72933L16.6352 6.32789L18.4215 5.42155V14.3342H18.4213Z" fill="#A3A2A1"/>
</svg>
