<svg width="19" height="21" viewBox="0 0 19 21" fill="none" xmlns="http://www.w3.org/2000/svg">
<g clip-path="url(#clip0)">
<path d="M18.9894 5.04931C18.9871 5.04111 18.9828 5.03376 18.9797 5.02584C18.974 5.01058 18.9683 4.99531 18.9599 4.98132C18.9549 4.97284 18.9479 4.96563 18.9418 4.95757C18.9329 4.94556 18.9242 4.93368 18.9133 4.92308C18.9057 4.91573 18.8967 4.90993 18.8882 4.90343C18.8791 4.89636 18.8711 4.88817 18.861 4.88209C18.8579 4.88025 18.8546 4.87969 18.8516 4.87799C18.8488 4.87643 18.8468 4.87417 18.844 4.87276L9.63332 0.199529C9.5497 0.157123 9.45016 0.157123 9.36654 0.199529L0.155957 4.87304C0.153208 4.87446 0.151183 4.87672 0.148434 4.87827C0.145396 4.87997 0.142069 4.88053 0.13903 4.88237C0.128903 4.88831 0.120946 4.89665 0.111832 4.90357C0.103441 4.91008 0.0944712 4.91587 0.0868036 4.92322C0.0759531 4.93368 0.0672728 4.9457 0.0583031 4.95757C0.0522268 4.96563 0.0454272 4.97284 0.040219 4.98132C0.031828 4.99531 0.0261857 5.01044 0.0203988 5.0257C0.0173607 5.03376 0.0128759 5.04111 0.0105611 5.04931C0.00376149 5.07348 0 5.09836 0 5.12394V14.6649C0 14.7657 0.0549756 14.8588 0.144239 14.9094L9.35482 20.1296C9.35497 20.1297 9.35511 20.1297 9.35526 20.1297C9.3554 20.1298 9.3554 20.1298 9.35555 20.13C9.36915 20.1376 9.38376 20.1419 9.39822 20.1471C9.40748 20.1505 9.41616 20.1557 9.42557 20.1581C9.44987 20.1645 9.4749 20.1676 9.49993 20.1676C9.52496 20.1676 9.54984 20.1643 9.57429 20.1581C9.5837 20.1557 9.59252 20.1505 9.60163 20.1471C9.61596 20.1417 9.63071 20.1375 9.64431 20.13C9.64431 20.13 9.64446 20.1298 9.6446 20.1297C9.64475 20.1296 9.64489 20.1296 9.64504 20.1296L18.8556 14.9094C18.9449 14.8588 18.9999 14.7655 18.9999 14.6649V5.12394C19 5.09836 18.9961 5.07334 18.9894 5.04931ZM15.0211 10.7325L14.5772 10.9687L14.4888 11.0158L13.6386 11.4681C13.6269 11.4743 13.6154 11.4773 13.6037 11.4773C13.5738 11.4773 13.5296 11.4542 13.5296 11.4048V10.3569V8.18859C13.5296 8.15226 13.526 8.11678 13.5204 8.08173C13.5201 8.07989 13.5202 8.07805 13.5199 8.07621L15.2715 7.18739V10.3196C15.2715 10.4918 15.1756 10.6498 15.0211 10.7325ZM3.96143 3.57925L12.5657 7.92327L9.50007 9.47885L0.91708 5.12394L3.96143 3.57925ZM13.1911 7.60594C13.1781 7.5983 13.1658 7.58968 13.1522 7.5829L4.59683 3.26361L6.35041 2.3738L14.9266 6.72546L13.1911 7.60594ZM9.50007 0.768894L18.0829 5.12394L15.5468 6.41081C15.5195 6.39187 15.4907 6.37448 15.4603 6.35921L6.97149 2.05194L9.50007 0.768894ZM0.578691 5.58927L9.21073 9.9692V19.3941L0.578691 14.5019V5.58927ZM18.4213 14.5019L9.78942 19.394V9.9692L12.9511 8.365V10.7336V11.4049C12.9511 11.7566 13.2439 12.0428 13.6039 12.0428C13.7116 12.0428 13.8194 12.016 13.9155 11.9648L14.8441 11.4706L15.297 11.2298C15.2974 11.2296 15.2977 11.2293 15.298 11.2291L15.4011 11.1742C15.6783 11.0268 15.8503 10.7438 15.8503 10.4355V10.3196V6.98639C15.8503 6.95628 15.8479 6.92646 15.8441 6.89706L16.6352 6.49562L18.4215 5.58927V14.5019H18.4213Z" fill="black"/>
</g>
<defs>
<clipPath id="clip0">
<rect width="19" height="20" fill="white" transform="translate(0 0.167725)"/>
</clipPath>
</defs>
</svg>
