<svg width="16" height="16" viewBox="0 0 16 16" fill="none" xmlns="http://www.w3.org/2000/svg">
<path d="M7.99995 0.431641C3.81995 0.431641 0.431152 3.82044 0.431152 8.00044C0.431152 12.1804 3.81995 15.5692 7.99995 15.5692C12.18 15.5692 15.5688 12.1804 15.5688 8.00044C15.5688 3.82044 12.18 0.431641 7.99995 0.431641ZM7.99995 14.7236C4.28715 14.7236 1.27675 11.7132 1.27675 8.00044C1.27675 4.28764 4.28715 1.27724 7.99995 1.27724C11.7128 1.27724 14.7232 4.28764 14.7232 8.00044C14.7232 11.7132 11.7128 14.7236 7.99995 14.7236Z" fill="#A3A2A1"/>
<path d="M7.99995 0.431641C3.81995 0.431641 0.431152 3.82044 0.431152 8.00044C0.431152 12.1804 3.81995 15.5692 7.99995 15.5692C12.18 15.5692 15.5688 12.1804 15.5688 8.00044C15.5688 3.82044 12.18 0.431641 7.99995 0.431641ZM7.99995 14.7236C4.28715 14.7236 1.27675 11.7132 1.27675 8.00044C1.27675 4.28764 4.28715 1.27724 7.99995 1.27724C11.7128 1.27724 14.7232 4.28764 14.7232 8.00044C14.7232 11.7132 11.7128 14.7236 7.99995 14.7236Z" stroke="#A3A2A1" stroke-width="0.5" stroke-miterlimit="10"/>
<path d="M5.64014 5.12988H9.84494V6.12428H6.84654V7.40508H8.28094C8.36734 7.40508 8.47854 7.40748 8.61534 7.41308C8.75134 7.41868 8.89614 7.43708 9.04974 7.46988C9.20334 7.50268 9.35774 7.55468 9.51374 7.62508C9.66974 7.69548 9.81054 7.79628 9.93614 7.92588C10.0617 8.05548 10.1641 8.22028 10.2425 8.42108C10.3209 8.62188 10.3601 8.86828 10.3601 9.16188C10.3601 9.45228 10.3209 9.69788 10.2425 9.89708C10.1641 10.0963 10.0641 10.2603 9.94174 10.3899C9.82014 10.5195 9.68414 10.6195 9.53534 10.6883C9.38574 10.7579 9.24094 10.8091 9.10094 10.8419C8.96094 10.8747 8.83214 10.8939 8.71614 10.8987C8.59934 10.9043 8.51374 10.9067 8.45854 10.9067H5.64014V5.12988ZM6.84654 9.90828H8.15134C8.26174 9.90828 8.37454 9.90028 8.49134 9.88508C8.60814 9.86908 8.71534 9.83548 8.81374 9.78268C8.91214 9.73068 8.99214 9.65228 9.05534 9.54908C9.11854 9.44588 9.14974 9.30748 9.14974 9.13468C9.14974 8.95388 9.11934 8.81148 9.05774 8.70828C8.99614 8.60508 8.91534 8.52668 8.81614 8.47468C8.71694 8.42268 8.60494 8.38988 8.48014 8.37628C8.35534 8.36348 8.23054 8.35628 8.10494 8.35628H6.84654V9.90828Z" fill="#A3A2A1"/>
<path d="M7.99999 4.08398H7.50879V11.9152H7.99999V4.08398Z" fill="#A3A2A1"/>
</svg>
