<svg width="22" height="18" viewBox="0 0 22 18" fill="none" xmlns="http://www.w3.org/2000/svg">
<path d="M20.6182 6H19.2844L11.1569 0.1565L11.1549 0.1585C11.0656 0.062 10.9409 0 10.8 0C10.6591 0 10.5344 0.062 10.4451 0.1585L10.4431 0.1565L2.31562 6H0.981818C0.439364 6 0 6.448 0 7V8C0 8.552 0.439364 9 0.981818 9H1.17818L2.95969 17.621L2.96902 17.619C3.02253 17.836 3.20662 18 3.43636 18H18.1636C18.3934 18 18.5775 17.836 18.631 17.619L18.6403 17.621L20.4218 9H20.6182C21.1601 9 21.6 8.552 21.6 8V7C21.6 6.448 21.1601 6 20.6182 6ZM10.8 1.1L17.6158 6H3.98422L10.8 1.1ZM2.18062 9H5.55513L5.86489 11H2.59396L2.18062 9ZM2.80064 12H6.02051L6.33027 14H3.21398L2.80064 12ZM3.834 17L3.42065 15H6.48491L6.79467 17H3.834ZM10.3091 17H7.77698L7.46722 15H10.3091V17ZM10.3091 14H7.3116L7.00184 12H10.3091V14ZM10.3091 11H6.84671L6.53695 9H10.3091V11ZM13.823 17H11.2909V15H14.1328L13.823 17ZM14.2884 14H11.2909V12H14.5977L14.2884 14ZM11.2909 11V9H15.0631L14.7533 11H11.2909ZM17.7655 17H14.8048L15.1146 15H18.1789L17.7655 17ZM18.386 14H15.2697L15.5795 12H18.7994L18.386 14ZM19.006 11H15.7351L16.0449 9H19.4194L19.006 11ZM20.6182 8H0.981818V7H20.6182V8Z" fill="#FF0000"/>
</svg>
