<svg width="19" height="12" viewBox="0 0 19 12" fill="none" xmlns="http://www.w3.org/2000/svg">
    <path d="M17.0481 0H2.79808C1.7646 0 0.923096 0.8415 0.923096 1.87502V10.125C0.923096 11.1585 1.7646 12 2.79808 12H17.0481C18.0816 12 18.9231 11.1585 18.9231 10.125V1.87502C18.9231 0.8415 18.0816 0 17.0481 0ZM18.1731 10.125C18.1731 10.7453 17.6684 11.25 17.0481 11.25H2.79808C2.17782 11.25 1.67308 10.7453 1.67308 10.125V1.87502C1.67308 1.25476 2.17782 0.750023 2.79808 0.750023H17.0481C17.6683 0.750023 18.1731 1.25476 18.1731 1.87502V10.125H18.1731Z"
          fill="#C4C4C4"/>
    <path d="M18.5481 2.25H1.29811C1.09111 2.25 0.923096 2.41801 0.923096 2.62501V4.87501C0.923096 5.08201 1.09111 5.25002 1.29811 5.25002H18.5481C18.7551 5.25002 18.9231 5.08201 18.9231 4.87501V2.62501C18.9231 2.41801 18.7551 2.25 18.5481 2.25ZM18.1731 4.5H1.67308V2.99999H18.1731V4.5H18.1731Z"
          fill="#C4C4C4"/>
    <path d="M8.04811 7.5H3.54811C3.34111 7.5 3.1731 7.66801 3.1731 7.87501C3.1731 8.08201 3.34111 8.24999 3.54811 8.24999H8.04811C8.25511 8.24999 8.42312 8.08198 8.42312 7.87498C8.42312 7.66798 8.25511 7.5 8.04811 7.5Z" fill="#C4C4C4"/>
    <path d="M8.04811 9H3.54811C3.34111 9 3.1731 9.16801 3.1731 9.37501C3.1731 9.58201 3.34111 9.75002 3.54811 9.75002H8.04811C8.25511 9.75002 8.42312 9.58201 8.42312 9.37501C8.42308 9.16801 8.25511 9 8.04811 9Z" fill="#C4C4C4"/>
    <path d="M15.5481 6.75H14.7981C14.1778 6.75 13.6731 7.25474 13.6731 7.875V8.62499C13.6731 9.24525 14.1778 9.74999 14.7981 9.74999H15.5481C16.1683 9.74999 16.6731 9.24525 16.6731 8.62499V7.875C16.6731 7.25477 16.1683 6.75 15.5481 6.75ZM15.9231 8.62502C15.9231 8.83202 15.7551 9.00004 15.5481 9.00004H14.7981C14.5911 9.00004 14.4231 8.83202 14.4231 8.62502V7.87504C14.4231 7.66804 14.5911 7.50002 14.7981 7.50002H15.5481C15.7551 7.50002 15.9231 7.66804 15.9231 7.87504V8.62502Z"
          fill="#C4C4C4"/>
</svg>
