<svg width="14" height="11" viewBox="0 0 14 11" fill="none" xmlns="http://www.w3.org/2000/svg">
    <path d="M1.59043 4.71985L1.4458 5.65112L3.97601 5.99078L4.12064 5.0595L1.59043 4.71985Z" fill="#FF2001"/>
    <path d="M12.0451 4.72268L9.51514 5.1936L9.71381 6.11622L12.2438 5.6453L12.0451 4.72268Z" fill="#FF2001"/>
    <path d="M13.4326 4.00347C13.2514 3.67272 12.8613 3.28645 12.5931 3.04133L13.3228 2.80655L12.9918 1.91734L11.9271 2.25985C11.6493 1.67833 11.1777 0.756181 11.085 0.636678C10.6235 0.0396326 7.49668 0.00952148 6.87425 0.00952148C6.24473 0.00952148 3.08194 0.0396326 2.62549 0.637148C2.53238 0.757593 2.05416 1.69245 1.77685 2.27302L0.671649 1.91734L0.340695 2.80655L1.04966 3.03474C0.778425 3.2394 0.446965 3.53016 0.27744 3.83974C-0.0024033 4.34927 -0.00088518 5.16368 0.000126911 5.88258C0.000126911 5.88258 0.045671 9.16892 0.067937 9.48368C0.10336 9.97533 0.547162 10.3602 1.078 10.3602H2.53035C3.08852 10.3602 3.54244 9.93816 3.54244 9.41922V8.94874H10.1205V9.41922C10.1205 9.93816 10.5744 10.3602 11.1326 10.3602H12.6508C13.2089 10.3602 13.6628 9.93816 13.6628 9.41922C13.6628 9.41922 13.6649 5.9381 13.6664 5.8186C13.6765 5.15427 13.6866 4.46784 13.4326 4.00347ZM3.40682 1.25819C3.70084 1.16362 4.7443 0.950491 6.87425 0.950491C8.98091 0.950491 10.0097 1.16174 10.3007 1.25584C10.4525 1.53107 10.8401 2.29937 11.039 2.71387C10.2314 2.85313 8.57709 3.09731 6.90461 3.09731C5.15673 3.09731 3.43516 2.82961 2.67913 2.69505C2.88307 2.27208 3.26665 1.51319 3.40682 1.25819ZM12.7044 8.35639L12.6508 9.41922H11.1326L11.1331 8.47825L10.6271 8.00776H3.0364L2.53035 8.47825V9.41922L1.078 9.4211C1.05574 9.1134 1.0274 8.69561 1.01171 8.35545C1.00918 8.26982 0.840668 4.91997 1.17921 4.26647C1.29459 4.04393 1.73333 3.71318 2.01064 3.54239C2.02937 3.53016 2.02937 3.53016 2.02937 3.53016C2.12602 3.55039 4.46446 4.03781 6.90461 4.03781C9.14437 4.03781 11.29 3.6332 11.7024 3.55086C11.9742 3.78328 12.3957 4.19072 12.5298 4.42973C12.7803 4.87622 12.7074 8.25336 12.7044 8.35639Z"
          fill="#FF2001"/>
</svg>
