<svg width="23" height="23" viewBox="0 0 23 23" fill="none" xmlns="http://www.w3.org/2000/svg">
    <g clip-path="url(#clip0)">
        <path d="M19.9712 19.45C19.9606 19.3884 19.9837 19.3259 20.0286 19.2849C21.5214 17.9214 22.6098 16.0819 22.6098 13.9833C22.6098 10.476 19.8403 7.55401 16.1698 6.90253C16.2967 7.41316 16.3656 7.94313 16.3656 8.48848C16.3656 12.4747 12.7892 15.7059 8.37756 15.7059C7.84785 15.7059 7.33061 15.6584 6.82959 15.5696C7.62992 18.7923 10.8135 21.2007 14.6218 21.2007C15.2927 21.2007 15.9444 21.126 16.567 20.9855C16.6452 20.9678 16.7244 20.9822 16.7918 21.0278C17.2083 21.3108 18.8981 22.3448 21.4756 22.4519C21.6196 22.4578 21.6966 22.276 21.5906 22.1732C21.0964 21.6927 20.177 20.6593 19.9712 19.45Z"
              stroke="white" stroke-miterlimit="10"/>
        <path d="M16.1702 6.90251C15.3698 3.67949 12.1863 1.27075 8.37765 1.27075C3.96603 1.27075 0.389648 4.50195 0.389648 8.48814C0.389648 10.5893 1.48055 12.4304 2.97583 13.7943C3.01761 13.8323 3.03881 13.8909 3.02945 13.9479C2.82711 15.1549 1.91236 16.1873 1.41539 16.6714C1.30752 16.7766 1.38608 16.9623 1.53293 16.9561C4.22106 16.8424 5.94144 15.7203 6.25633 15.4992C6.29125 15.4746 6.3324 15.4671 6.37356 15.4769C6.52383 15.5119 6.67629 15.5424 6.83 15.5696"
              stroke="white" stroke-miterlimit="10"/>
    </g>
    <defs>
        <clipPath id="clip0">
            <rect width="23" height="22" fill="white" transform="translate(0 0.861328)"/>
        </clipPath>
    </defs>
</svg>
