<svg width="16" height="16" viewBox="0 0 16 16" fill="none" xmlns="http://www.w3.org/2000/svg">
<path d="M9.58333 12H5.25C5.03333 12 4.88889 12.1455 4.88889 12.3636C4.88889 12.5818 5.03333 12.7273 5.25 12.7273H9.58333C9.8 12.7273 9.94444 12.5818 9.94444 12.3636C9.94444 12.1455 9.8 12 9.58333 12ZM5.25 4H7.05556C7.27222 4 7.41667 3.85455 7.41667 3.63636C7.41667 3.41818 7.27222 3.27273 7.05556 3.27273H5.25C5.03333 3.27273 4.88889 3.41818 4.88889 3.63636C4.88889 3.85455 5.03333 4 5.25 4ZM11.75 9.09091H5.25C5.03333 9.09091 4.88889 9.23636 4.88889 9.45455C4.88889 9.67273 5.03333 9.81818 5.25 9.81818H11.75C11.9667 9.81818 12.1111 9.67273 12.1111 9.45455C12.1111 9.23636 11.9667 9.09091 11.75 9.09091ZM4.88889 6.54545C4.88889 6.76364 5.03333 6.90909 5.25 6.90909H11.75C11.9667 6.90909 12.1111 6.76364 12.1111 6.54545C12.1111 6.32727 11.9667 6.18182 11.75 6.18182H5.25C5.03333 6.18182 4.88889 6.32727 4.88889 6.54545ZM11.3889 0H3.44444C2.65 0 2 0.654545 2 1.45455V14.5455C2 15.3455 2.65 16 3.44444 16H13.5556C14.35 16 15 15.3455 15 14.5455V4L11.3889 0ZM14.2778 14.5455C14.2778 14.9455 13.9528 15.2727 13.5556 15.2727H3.44444C3.04722 15.2727 2.72222 14.9455 2.72222 14.5455V1.45455C2.72222 1.05455 3.04722 0.727273 3.44444 0.727273H9.94444V4.36364C9.94444 4.76364 10.2694 5.09091 10.6667 5.09091H14.2778V14.5455ZM10.6667 4.36364V0.727273H11.0278L14.2778 4.36364H10.6667Z" fill="#2E2E2E"/>
</svg>
