<svg width="19" height="16" viewBox="0 0 19 16" fill="none" xmlns="http://www.w3.org/2000/svg">
    <path d="M14.9757 15.2213C13.8571 15.2213 12.9463 14.2148 12.9463 12.9788C12.9463 11.7428 13.8571 10.7363 14.9757 10.7363C16.0562 10.7363 16.9467 11.6693 17.0024 12.8618C17.0038 12.9008 17.0051 12.9398 17.0051 12.9788C17.0051 14.2148 16.0956 15.2213 14.9757 15.2213ZM14.9757 11.6483C14.3119 11.6483 13.7716 12.2453 13.7716 12.9788C13.7716 13.7123 14.3119 14.3093 14.9757 14.3093C15.6395 14.3093 16.1798 13.7123 16.1798 12.9788C16.1798 12.9548 16.1798 12.9323 16.1784 12.9083C16.1458 12.2018 15.6178 11.6483 14.9757 11.6483Z"
          fill="#C4C4C4"/>
    <path d="M5.26428 15.1989C4.14572 15.1989 3.23486 14.1924 3.23486 12.9564C3.23486 11.7204 4.14572 10.7139 5.26428 10.7139C6.38283 10.7139 7.29369 11.7204 7.29369 12.9564C7.29369 14.1924 6.38283 15.1989 5.26428 15.1989ZM5.26428 11.6259C4.60047 11.6259 4.0602 12.2229 4.0602 12.9564C4.0602 13.6899 4.60047 14.2869 5.26428 14.2869C5.92808 14.2869 6.46835 13.6899 6.46835 12.9564C6.46835 12.2229 5.92808 11.6259 5.26428 11.6259Z"
          fill="#C4C4C4"/>
    <path d="M13.3575 13.3602C12.5634 13.3572 12.1398 13.3542 12.0367 13.3542H6.88101V12.4422H11.6009V1.50418C11.6009 1.30318 11.438 1.13818 11.2385 1.13818L2.08101 1.13368C1.89911 1.13368 1.75115 1.31368 1.75115 1.53418L1.74844 12.0642C1.74844 12.2652 1.91133 12.4287 2.11088 12.4287H3.65025V13.3407H2.10952C1.45522 13.3407 0.923096 12.7677 0.923096 12.0642L0.925811 1.53418C0.925811 0.80968 1.44436 0.22168 2.08237 0.22168L11.2398 0.22768C11.8941 0.22768 12.4263 0.80068 12.4263 1.50418V12.4437C12.6448 12.4452 12.9543 12.4467 13.3602 12.4482L13.3575 13.3602Z"
          fill="#C4C4C4"/>
    <path d="M16.5924 13.3545L16.5897 12.4425C17.3241 12.441 17.8345 12.435 17.9214 12.4305C18.0571 12.423 18.0911 12.336 18.0978 12.279V8.12849L15.615 4.50148C15.5594 4.41898 15.4698 4.37098 15.3775 4.37098H12.0015V3.45898H15.3775C15.7277 3.45898 16.063 3.64348 16.2734 3.95248L18.9232 7.82398L18.9218 12.3345C18.896 12.7185 18.6205 13.3035 17.9662 13.3425C17.8318 13.3485 17.1449 13.3515 16.5924 13.3545Z"
          fill="#C4C4C4"/>
    <path d="M18.5105 9.14605H14.8684C13.9006 9.14605 13.2761 8.13205 13.2761 6.56155C13.2761 5.44105 14.0254 5.01205 14.4218 4.94155L14.487 4.93555H16.7431V5.84755H14.5291C14.4055 5.88205 14.1001 6.02305 14.1001 6.56155C14.1001 6.73255 14.1218 8.23405 14.8684 8.23405H18.5105V9.14605Z"
          fill="#C4C4C4"/>
</svg>
