<svg width="17" height="21" viewBox="0 0 17 21" fill="none" xmlns="http://www.w3.org/2000/svg">
    <path d="M16.5875 17.8383L15.4721 5.27828C15.4482 4.99944 15.2131 4.78831 14.9383 4.78831H12.6438C12.6119 2.69299 10.899 1 8.79572 1C6.69243 1 4.97952 2.69299 4.94765 4.78831H2.65315C2.37431 4.78831 2.14327 4.99944 2.11936 5.27828L1.00398 17.8383C1.00398 17.8542 1 17.8701 1 17.8861C1 19.3161 2.31057 20.4793 3.92389 20.4793H13.6675C15.2809 20.4793 16.5914 19.3161 16.5914 17.8861C16.5914 17.8701 16.5914 17.8542 16.5875 17.8383ZM8.79572 2.07555C10.3055 2.07555 11.5364 3.28653 11.5682 4.78831H6.0232C6.05507 3.28653 7.28597 2.07555 8.79572 2.07555ZM13.6675 19.4038H3.92389C2.91208 19.4038 2.09148 18.7346 2.07555 17.91L3.14312 5.86784H4.94367V7.50108C4.94367 7.79984 5.18268 8.03885 5.48144 8.03885C5.7802 8.03885 6.01921 7.79984 6.01921 7.50108V5.86784H11.5682V7.50108C11.5682 7.79984 11.8072 8.03885 12.106 8.03885C12.4048 8.03885 12.6438 7.79984 12.6438 7.50108V5.86784H14.4443L15.5159 17.91C15.5 18.7346 14.6754 19.4038 13.6675 19.4038Z"
          fill="#A3A2A1" stroke="#A3A2A1" stroke-width="0.2"/>
</svg>
