<svg width="15" height="13" viewBox="0 0 15 13" fill="none" xmlns="http://www.w3.org/2000/svg">
<path d="M7.75136 12.9918H7.25336L7.04861 12.8403C6.36086 12.3165 0.328613 7.63422 0.328613 4.40334C0.328613 1.52805 1.81886 0.0078125 4.63961 0.0078125C5.96261 0.0078125 6.93611 0.549989 7.50086 0.982048C8.06561 0.549989 9.03911 0.0078125 10.3614 0.0078125C13.1821 0.0078125 14.6724 1.52805 14.6724 4.40334C14.6724 7.63422 8.63936 12.3165 7.95161 12.8403L7.75136 12.9918ZM4.63886 1.53722C2.66861 1.53722 1.82786 2.39446 1.82786 4.40334C1.82786 6.15299 5.13761 9.38923 7.50011 11.2666C9.86186 9.3877 13.1724 6.1507 13.1724 4.40334C13.1724 2.39446 12.3316 1.53722 10.3614 1.53722C8.92136 1.53722 8.10386 2.46175 8.06936 2.50152L7.84511 2.75999L7.15211 2.76458L6.92711 2.49693C6.89711 2.46175 6.07961 1.53722 4.63886 1.53722Z" fill="#A3A2A1"/>
</svg>
