<svg width="18" height="18" viewBox="0 0 18 18" fill="none" xmlns="http://www.w3.org/2000/svg">
<path d="M9 0C4.02955 0 0 4.02955 0 9C0 13.9705 4.02955 18 9 18C13.9705 18 18 13.9705 18 9C18 4.02955 13.9705 0 9 0ZM6.57164 1.18473C6.39532 1.36923 6.22759 1.575 6.066 1.79673C6.05086 1.81759 6.03573 1.83805 6.02059 1.85891C5.69618 2.31423 5.40368 2.8395 5.15045 3.42655C5.13695 3.45805 5.12468 3.49118 5.11077 3.5235C5.09605 3.55868 5.08418 3.59755 5.06945 3.63355C4.56382 3.38686 4.11259 3.09191 3.71536 2.76177C4.54255 2.05895 5.50882 1.51486 6.57164 1.18473ZM3.12464 3.31732C3.60859 3.73132 4.16332 4.09786 4.78718 4.39691C4.77614 4.43045 4.76468 4.46359 4.75405 4.49755C4.55727 5.11977 4.39977 5.78618 4.2885 6.49105C4.27418 6.57982 4.26355 6.67023 4.25086 6.76023C4.21323 7.02818 4.18255 7.30023 4.15841 7.57759C4.14941 7.68068 4.14 7.78295 4.13264 7.88768C4.11709 8.11841 4.11382 8.35527 4.10645 8.59091H0.834955C0.936409 6.54382 1.79141 4.698 3.12464 3.31732ZM0.834955 9.40909H4.10605C4.11341 9.64432 4.11668 9.88159 4.13223 10.1123C4.13959 10.217 4.149 10.3193 4.158 10.4224C4.18214 10.6998 4.21282 10.9722 4.25045 11.2398C4.26314 11.3302 4.27418 11.4202 4.28809 11.5094C4.39977 12.2138 4.55686 12.8806 4.75364 13.5025C4.76427 13.5364 4.77573 13.57 4.78677 13.6035C4.16291 13.9017 3.60777 14.2687 3.12423 14.6831C1.79141 13.302 0.936409 11.4562 0.834955 9.40909ZM3.71536 15.2378C4.11259 14.9081 4.56382 14.6127 5.06945 14.366C5.08418 14.402 5.09605 14.4413 5.11077 14.4761C5.12427 14.508 5.13655 14.5411 5.15045 14.5726C5.40368 15.1601 5.69659 15.685 6.02059 16.1403C6.03573 16.1615 6.05086 16.182 6.066 16.2025C6.22759 16.4242 6.39573 16.6304 6.57205 16.8145C5.50882 16.4851 4.54255 15.9406 3.71536 15.2378ZM8.59091 17.1405C7.45486 16.9147 6.45791 15.757 5.78905 14.0576C6.63423 13.7442 7.58455 13.5589 8.59091 13.5176V17.1405ZM8.59091 12.7002C7.49291 12.7428 6.45382 12.9449 5.52436 13.2897C5.17295 12.1504 4.95409 10.829 4.91891 9.40909H8.59091V12.7002ZM8.59091 8.59091H4.91891C4.95409 7.17055 5.17295 5.84959 5.52436 4.71027C6.45382 5.05555 7.49291 5.25764 8.59091 5.30018V8.59091ZM8.59091 4.48241C7.58455 4.44068 6.63464 4.25536 5.78905 3.94241C6.45791 2.24264 7.45486 1.08491 8.59091 0.8595V4.48241ZM17.165 8.59091H13.894C13.887 8.35568 13.8833 8.11882 13.8678 7.88768C13.8608 7.78295 13.851 7.68068 13.842 7.57759C13.8179 7.30023 13.7872 7.02818 13.75 6.76023C13.7373 6.67023 13.7262 6.57982 13.7123 6.49105C13.601 5.78618 13.4431 5.11936 13.2468 4.49755C13.2361 4.46359 13.2247 4.43045 13.2132 4.39691C13.8371 4.09827 14.3922 3.73132 14.8758 3.31732C16.209 4.698 17.0636 6.54382 17.165 8.59091ZM14.285 2.76218C13.8878 3.09232 13.4366 3.38727 12.931 3.63395C12.9166 3.59795 12.9044 3.55909 12.8896 3.52391C12.8761 3.49159 12.8639 3.45845 12.85 3.42695C12.5967 2.8395 12.3042 2.31464 11.9798 1.85932C11.9647 1.83805 11.9495 1.81759 11.9344 1.79714C11.7728 1.57541 11.6047 1.36964 11.4288 1.18514C12.4912 1.51486 13.4575 2.05895 14.285 2.76218ZM9.40909 0.8595C10.5451 1.08532 11.5421 2.24305 12.211 3.94241C11.3658 4.25577 10.4155 4.44109 9.40909 4.48241V0.8595ZM9.40909 5.30018C10.5071 5.25764 11.5462 5.05514 12.476 4.71027C12.8275 5.84959 13.0459 7.17095 13.0815 8.59091H9.40909V5.30018ZM9.40909 9.40909H13.0815C13.0463 10.8295 12.8275 12.1504 12.476 13.2897C11.5462 12.9445 10.5075 12.7424 9.40909 12.7002V9.40909ZM9.40909 17.1405V13.5176C10.415 13.5593 11.3658 13.7446 12.211 14.0576C11.5421 15.7574 10.5451 16.9151 9.40909 17.1405ZM11.4284 16.8149C11.6047 16.6308 11.7724 16.4246 11.934 16.2029C11.9491 16.182 11.9643 16.1615 11.9794 16.1407C12.3038 15.6854 12.5963 15.1605 12.8495 14.573C12.8635 14.5415 12.8757 14.5084 12.8892 14.4765C12.904 14.4413 12.9158 14.402 12.9305 14.3665C13.4362 14.6127 13.8874 14.9085 14.2846 15.2382C13.4575 15.9406 12.4916 16.4851 11.4284 16.8149ZM14.8754 14.6831C14.3914 14.2687 13.8367 13.9021 13.2128 13.6035C13.2243 13.57 13.2357 13.5364 13.2464 13.5025C13.4431 12.8806 13.6006 12.2138 13.7119 11.5094C13.7258 11.4202 13.7373 11.3302 13.7495 11.2398C13.7872 10.9722 13.8179 10.6998 13.8416 10.4224C13.8506 10.3193 13.8604 10.217 13.8674 10.1123C13.8829 9.88159 13.8866 9.64432 13.8935 9.40909H17.1646C17.0636 11.4562 16.2086 13.302 14.8754 14.6831Z" fill="#FF0000"/>
</svg>
