<svg width="18" height="24" viewBox="0 0 18 24" fill="none" xmlns="http://www.w3.org/2000/svg">
<path d="M8.82 4.91C6.66667 4.91 4.85333 6.75 4.85333 8.935C4.85333 11.12 6.55333 12.96 8.82 12.96C11.0867 12.96 12.7867 11.12 12.7867 8.935C12.7867 6.75 10.9733 4.91 8.82 4.91ZM8.82 11.925C7.23333 11.925 5.87333 10.545 5.87333 8.935C5.87333 7.325 7.23333 5.945 8.82 5.945C10.4067 5.945 11.7667 7.325 11.7667 8.935C11.7667 10.545 10.4067 11.925 8.82 11.925ZM8.82 1C4.51333 1 1 4.565 1 8.935C1 15.375 8.82 22.85 8.82 22.85C8.82 22.85 16.64 15.375 16.64 8.935C16.64 4.565 13.1267 1 8.82 1ZM8.82 21.355C8.82 21.355 1.90667 14.915 1.90667 8.935C1.90667 5.14 4.96667 1.92 8.82 1.92C12.6733 1.92 15.7333 5.025 15.7333 8.935C15.7333 14.915 8.82 21.355 8.82 21.355Z" fill="white" stroke="white"/>
</svg>
