<?xml version="1.0" encoding="utf-8"?>
<!-- Generator: Adobe Illustrator 21.1.0, SVG Export Plug-In . SVG Version: 6.00 Build 0)  -->
<svg version="1.1" id="Слой_1" xmlns="http://www.w3.org/2000/svg" xmlns:xlink="http://www.w3.org/1999/xlink" x="0px" y="0px"
	 viewBox="0 0 15 18" style="enable-background:new 0 0 15 18;" xml:space="preserve">
<style type="text/css">
	.st0{fill:#DB393B;}
</style>
<g id="Location_Pin_1">
	<path class="st0" d="M7.5,1C4.286,1,1.68,3.606,1.68,6.82C1.68,11.55,7.5,17,7.5,17s5.82-5.45,5.82-10.18
		C13.32,3.606,10.714,1,7.5,1z M7.5,15.91c0,0-5.09-4.73-5.09-9.09C2.409,4.009,4.688,1.729,7.499,1.729s5.091,2.278,5.091,5.089
		c0,0.001,0,0.002,0,0.003C12.59,11.18,7.5,15.91,7.5,15.91z M7.5,3.91c-1.607,0-2.91,1.303-2.91,2.91S5.893,9.73,7.5,9.73
		s2.91-1.303,2.91-2.91c0,0,0,0,0,0C10.41,5.213,9.107,3.91,7.5,3.91z M7.5,9C6.296,9,5.32,8.024,5.32,6.82S6.296,4.64,7.5,4.64
		s2.18,0.976,2.18,2.18l0,0C9.68,8.024,8.704,9,7.5,9z"/>
</g>
</svg>
