<svg width="19" height="20" viewBox="0 0 19 20" fill="none" xmlns="http://www.w3.org/2000/svg">
<circle cx="9.5" cy="9.66772" r="9.025" stroke="#2E2E2E" stroke-width="0.95"/>
<path d="M7.06787 8.97827C8.1582 8.97827 8.80811 8.29077 8.80811 7.11987C8.80811 5.97583 8.14746 5.27222 7.06787 5.27222C5.99365 5.27222 5.32764 5.97583 5.32764 7.11987C5.32764 8.2854 5.97754 8.97827 7.06787 8.97827ZM7.06787 8.16187C6.5791 8.16187 6.2998 7.78589 6.2998 7.12524C6.2998 6.48071 6.58447 6.09399 7.06787 6.09399C7.55127 6.09399 7.83057 6.48071 7.83057 7.12524C7.83057 7.78052 7.55664 8.16187 7.06787 8.16187ZM7.57812 13.1677L12.8579 5.41724H11.8535L6.56836 13.1677H7.57812ZM12.3638 13.2483C13.4541 13.2483 14.104 12.5608 14.104 11.3953C14.104 10.2458 13.4434 9.54761 12.3638 9.54761C11.2896 9.54761 10.6235 10.2512 10.6235 11.3953C10.6235 12.5554 11.2788 13.2483 12.3638 13.2483ZM12.3638 12.4319C11.8804 12.4319 11.6011 12.0559 11.6011 11.4006C11.6011 10.7507 11.8804 10.364 12.3638 10.364C12.8525 10.364 13.1318 10.7507 13.1318 11.4006C13.1318 12.0505 12.8525 12.4319 12.3638 12.4319Z" fill="#2E2E2E"/>
</svg>
