<svg width="43" height="33" viewBox="0 0 43 33" fill="none" xmlns="http://www.w3.org/2000/svg">
<g opacity="0.6">
<path d="M4.57297 3.80471C3.33426 3.80471 2.19494 4.27914 1.36112 5.14117C0.494856 5.99803 0 7.15567 0 8.32365V28.4821C0 29.7059 0.480209 30.8325 1.35275 31.6553C2.22005 32.5121 3.3918 33 4.57297 33H38.0077C39.2464 33 40.3857 32.5256 41.2195 31.6635C42.0868 30.8067 42.5806 29.649 42.5806 28.4821V8.32365C42.5806 7.09985 42.1004 5.97425 41.2279 5.15047L41.2195 5.1422C40.3867 4.28017 39.2464 3.80574 38.0077 3.80574H30.9447V3.46569C30.9447 2.53234 30.5618 1.61863 29.9205 1.02224C29.2499 0.361763 28.37 0 27.4357 0H15.1439C14.1834 0 13.2889 0.361763 12.6246 1.01707C11.9602 1.67341 11.5951 2.54268 11.5951 3.46569V3.80471H4.57297ZM38.0077 31.3721H4.57297C3.78936 31.3721 3.05388 31.0713 2.50253 30.5276C1.95118 29.9839 1.64778 29.2573 1.64778 28.4831V8.32365C1.64778 7.54947 1.95118 6.82388 2.50253 6.27813C3.05493 5.73342 3.78936 5.43368 4.57297 5.43368H12.4813C12.9552 5.43368 13.3255 5.06778 13.3255 4.59956V3.42538C13.3255 2.91167 13.5128 2.44448 13.8528 2.10959C14.1918 1.77367 14.6647 1.58866 15.1847 1.58866H27.4347C27.9547 1.58866 28.4276 1.77367 28.7665 2.10959C29.1065 2.44448 29.2938 2.91167 29.2938 3.42538V4.59956C29.2938 5.06778 29.6652 5.43368 30.1391 5.43368H38.0474C38.831 5.43368 39.5655 5.73342 40.1168 6.27813C40.6682 6.82285 40.9716 7.54844 40.9716 8.32365V28.7405H40.9193C40.8596 29.4165 40.5646 30.0439 40.075 30.5266C39.5257 31.0713 38.7913 31.3721 38.0077 31.3721Z" fill="black"/>
<path d="M21.2897 8.35583C18.6124 8.35583 15.9927 9.42665 14.1022 11.2944C12.1845 13.189 11.1289 15.711 11.1289 18.3953C11.1289 21.0413 12.2128 23.6295 14.1022 25.4962C16.0199 27.3908 18.5727 28.4347 21.2897 28.4347C23.9669 28.4347 26.5866 27.3639 28.4771 25.4962C30.3948 23.6026 31.4515 21.0806 31.4515 18.3953C31.4515 15.7492 30.3676 13.1611 28.4771 11.2944C26.5866 9.42665 23.9669 8.35583 21.2897 8.35583ZM21.2897 26.7489C19.0769 26.7489 16.9615 25.8889 15.3336 24.3271C13.7486 22.7612 12.8771 20.6702 12.8771 18.4376C12.8771 16.2505 13.7476 14.1606 15.3284 12.5533C16.9144 10.9874 19.0299 10.1264 21.2897 10.1264C23.5034 10.1264 25.6189 10.9864 27.2457 12.5481C28.8307 14.1141 29.7022 16.2051 29.7022 18.4376C29.7441 20.6268 28.8726 22.7199 27.2489 24.324L27.2457 24.3271C25.6178 25.8889 23.5024 26.7489 21.2897 26.7489Z" fill="black"/>
<path d="M7.41099 12.4828C8.5198 12.4828 9.41866 11.5948 9.41866 10.4993C9.41866 9.40385 8.5198 8.51581 7.41099 8.51581C6.30219 8.51581 5.40332 9.40385 5.40332 10.4993C5.40332 11.5948 6.30219 12.4828 7.41099 12.4828Z" fill="black"/>
<path d="M21.2909 12.7742C19.6954 12.7742 18.2412 13.4233 17.2086 14.4424C16.153 15.4853 15.52 16.8993 15.52 18.4756C15.52 20.0518 16.177 21.4885 17.2086 22.5087C18.2642 23.5516 19.6954 24.1769 21.2909 24.1769C22.8864 24.1769 24.3406 23.5278 25.3732 22.5087C26.4288 21.4658 27.0618 20.0518 27.0618 18.4756C27.0618 16.8993 26.4048 15.4626 25.3732 14.4424C24.3406 13.4233 22.8864 12.7742 21.2909 12.7742ZM24.4808 21.6508C23.6595 22.4384 22.5338 22.949 21.2899 22.949C20.047 22.949 18.9202 22.4394 18.0989 21.6508C17.2776 20.8394 16.7849 19.7273 16.7849 18.4983C16.7849 17.2704 17.3007 16.1572 18.0989 15.3458C18.9202 14.5344 20.0459 14.0476 21.2899 14.0476C22.5327 14.0476 23.6595 14.5571 24.4808 15.3458C25.3021 16.1572 25.7948 17.2693 25.7948 18.4983C25.8178 19.7273 25.3021 20.8394 24.4808 21.6508Z" fill="black"/>
</g>
</svg>
