<svg width="25" height="35" viewBox="0 0 25 35" fill="none" xmlns="http://www.w3.org/2000/svg">
<g opacity="0.6">
<path d="M12.4192 31.85L12.0711 32.2089L12.4192 32.5467L12.7674 32.2089L12.4192 31.85ZM12.4192 31.85C12.7674 32.2089 12.7675 32.2088 12.7677 32.2086L12.7682 32.2081L12.7699 32.2064L12.776 32.2004L12.799 32.1779C12.819 32.1582 12.8483 32.1292 12.8862 32.0912C12.9621 32.0154 13.0726 31.9036 13.2128 31.7586C13.493 31.4687 13.8922 31.0455 14.3705 30.5095C15.3268 29.4382 16.6022 27.9136 17.8786 26.1003C20.4166 22.4947 23.0203 17.6618 23.0203 12.95C23.0203 6.75025 18.3511 1.775 12.4192 1.775C6.48214 1.775 1.81814 6.93073 1.81814 12.95C1.81814 17.6618 4.4218 22.4947 6.95981 26.1003C8.2362 27.9136 9.51165 29.4382 10.4679 30.5095C10.9463 31.0455 11.3454 31.4687 11.6257 31.7586C11.7658 31.9036 11.8763 32.0154 11.9522 32.0912C11.9901 32.1292 12.0194 32.1582 12.0394 32.1779L12.0624 32.2004L12.0686 32.2064L12.0703 32.2081L12.0708 32.2086C12.0709 32.2088 12.0711 32.2089 12.4192 31.85ZM7.12352 12.95C7.12352 9.87475 9.5748 7.325 12.4192 7.325C15.2636 7.325 17.7149 9.87475 17.7149 12.95C17.7149 16.0349 15.4202 18.575 12.4192 18.575C9.41821 18.575 7.12352 16.0349 7.12352 12.95ZM7.61384 12.95C7.61384 15.6498 9.79912 18 12.4192 18C15.0393 18 17.2246 15.6498 17.2246 12.95C17.2246 10.2503 15.0393 7.9 12.4192 7.9C9.79912 7.9 7.61384 10.2503 7.61384 12.95ZM1.49341 12.95C1.49341 6.54975 6.42856 1.375 12.4192 1.375C18.4099 1.375 23.345 6.54975 23.345 12.95C23.345 17.6852 20.5704 22.8692 17.7229 26.9252C16.3077 28.9411 14.8914 30.6548 13.8288 31.8646C13.2978 32.4692 12.8557 32.9472 12.547 33.2734C12.5014 33.3216 12.4588 33.3664 12.4192 33.4078C12.3796 33.3664 12.337 33.3216 12.2914 33.2734C11.9828 32.9472 11.5407 32.4692 11.0096 31.8646C9.94699 30.6548 8.53077 28.9411 7.11553 26.9252C4.26802 22.8692 1.49341 17.6852 1.49341 12.95Z" fill="black" stroke="black"/>
</g>
</svg>
