<svg width="22" height="18" viewBox="0 0 22 18" fill="none" xmlns="http://www.w3.org/2000/svg">
<path d="M2.414 13.4625C3.086 13.2775 4.243 12.5161 4.243 10.7953C4.243 9.25497 3.741 8.57605 3.4715 8.21109L3.438 8.16559C3.435 8.16109 3.432 8.15709 3.429 8.15359C3.4075 8.0891 3.3435 7.82713 3.48 7.26619C3.5335 7.04772 3.5015 6.79724 3.4085 6.59277C3.206 6.14882 2.829 5.32291 3.0935 4.70148C3.5325 3.6351 3.7165 3.55511 4.2085 3.34013C4.256 3.31963 4.3025 3.29463 4.3465 3.26714C4.4695 3.18864 4.974 3.00067 5.491 3.00067C5.74 3.00067 5.947 3.04666 6.113 3.12965C6.156 2.95767 6.208 2.78519 6.2795 2.61221C6.3405 2.45973 6.4045 2.32924 6.468 2.19276C6.1575 2.05777 5.8215 2.00078 5.491 2.00078C4.768 2.00078 4.0825 2.24975 3.809 2.42423C3.009 2.77319 2.6735 3.09566 2.169 4.32102C1.731 5.3509 2.2525 6.46778 2.509 7.02972C2.196 8.31358 2.6305 8.75553 2.6305 8.75553C2.8575 9.06649 3.2435 9.51644 3.2435 10.7958C3.2435 12.2516 2.1225 12.5061 2.1225 12.5061C1.2125 12.8241 0 13.5005 0 15.5003C0 15.5003 0 16.0002 0.5 16.0002L2.73 16.0007C2.85 15.6298 3.0075 15.2948 3.1995 15.0008L1.0365 15.0003C1.186 14.0494 1.7755 13.691 2.414 13.4625ZM14.9865 13.607C14.9865 13.607 13.1945 13.18 13.1945 11.3077C13.1945 9.66343 13.931 9.08449 14.215 8.68453C14.215 8.68453 14.799 8.17309 14.408 6.52178C15.06 5.61688 15.2725 4.14354 14.474 2.32424C14.0285 1.26136 13.636 0.679424 13.0375 0.340962C12.598 0.0919894 12.099 0 11.614 0C10.7105 0 9.8535 0.319963 9.511 0.543938C8.511 0.992889 7.838 1.40684 7.2075 2.98267C6.66 4.30652 7.3115 5.74286 7.6325 6.46528C7.2415 8.1166 7.784 8.68403 7.784 8.68403C8.068 9.08399 8.8045 9.66293 8.8045 11.3072C8.8045 13.179 7.0125 13.6065 7.0125 13.6065C5.875 14.0159 3.5 14.8004 3.5 17.5001C3.5 17.5001 3.5 18 4 18H18C18.5 18 18.5 17.5001 18.5 17.5001C18.4995 14.8009 16.1245 14.0164 14.9865 13.607ZM4.539 17.0006C4.7725 15.5928 6.0055 15.0303 7.2655 14.5779L7.305 14.5644C8.204 14.3249 9.804 13.3665 9.804 11.3077C9.804 9.56194 9.0965 8.71003 8.716 8.25208C8.64 8.15909 8.5485 8.04111 8.5695 8.06711C8.5385 7.99961 8.389 7.60815 8.605 6.69626C8.706 6.2693 8.5345 6.03533 8.5345 6.03533C8.2615 5.4209 7.754 4.27802 8.135 3.35513C8.646 2.07777 9.099 1.8258 9.92 1.45684C9.968 1.43534 10.014 1.41034 10.058 1.38185C10.2135 1.28036 10.87 1.00089 11.613 1.00089C11.9835 1.00089 12.2965 1.07188 12.544 1.21237C12.8415 1.38035 13.1265 1.69981 13.557 2.72669C14.36 4.55799 13.8515 5.58238 13.595 5.93784C13.4255 6.17331 13.3665 6.47028 13.4335 6.75275C13.6325 7.59216 13.503 7.94612 13.47 8.01661C13.4615 8.02661 13.3415 8.17909 13.281 8.25258C12.9005 8.71053 12.193 9.56244 12.193 11.3082C12.193 13.3665 13.793 14.3254 14.692 14.5649L14.7315 14.5784C15.9915 15.0303 17.2245 15.5928 17.458 17.0011H4.539V17.0006ZM19.877 12.5056C19.877 12.5056 18.756 12.2511 18.756 10.7953C18.756 9.51594 19.142 9.06599 19.369 8.75503C19.369 8.75503 19.8035 8.31308 19.4905 7.02922C19.747 6.46728 20.2685 5.35041 19.8305 4.32052C19.3255 3.09516 18.9905 2.77269 18.1905 2.42373C17.917 2.24925 17.2315 2.00028 16.5085 2.00028C16.167 2.00028 15.819 2.06127 15.5 2.20625C15.6275 2.52922 15.735 2.85018 15.8125 3.16615C15.8255 3.15815 15.8385 3.14915 15.8515 3.14165C16.022 3.04766 16.2435 3.00017 16.509 3.00017C17.026 3.00017 17.5305 3.18814 17.6535 3.26664C17.6975 3.29463 17.744 3.31913 17.791 3.33963C18.283 3.55461 18.467 3.6346 18.906 4.70098C19.1705 5.32241 18.7935 6.14882 18.591 6.59227C18.4975 6.79624 18.466 7.04722 18.519 7.26569C18.6555 7.82663 18.592 8.0886 18.5705 8.15309C18.5675 8.15709 18.5645 8.16109 18.5615 8.16509L18.528 8.21059C18.2585 8.57505 17.7565 9.25447 17.7565 10.7948C17.7565 12.5156 18.9135 13.277 19.5855 13.462C20.2235 13.6905 20.8135 14.0489 20.9635 14.9993L18.801 14.9998C18.993 15.2938 19.1505 15.6288 19.2705 15.9997L21.5 15.9992C22 15.9992 22 15.4993 22 15.4993C21.9995 13.5 20.787 12.8236 19.877 12.5056Z" fill="#FF2001"/>
</svg>
