<svg width="14" height="22" viewBox="0 0 14 22" fill="none" xmlns="http://www.w3.org/2000/svg">
<path d="M11.6667 0.786133H1.66667C0.75 0.786133 0 1.49328 0 2.35756V19.6433C0 20.5076 0.75 21.2147 1.66667 21.2147H11.6667C12.5833 21.2147 13.3333 20.5076 13.3333 19.6433V2.35756C13.3333 1.49328 12.5833 0.786133 11.6667 0.786133ZM11.6667 2.35756V14.929H1.66667V2.35756H11.6667ZM1.66667 19.6433V16.5004H11.6667V19.6433H1.66667Z" fill="#A3A2A1"/>
<path d="M6.66658 18.8576C7.12682 18.8576 7.49992 18.5058 7.49992 18.0718C7.49992 17.6379 7.12682 17.2861 6.66658 17.2861C6.20635 17.2861 5.83325 17.6379 5.83325 18.0718C5.83325 18.5058 6.20635 18.8576 6.66658 18.8576Z" fill="#A3A2A1"/>
</svg>
