<?xml version="1.0" encoding="utf-8"?>
<!-- Generator: Adobe Illustrator 21.1.0, SVG Export Plug-In . SVG Version: 6.00 Build 0)  -->
<svg version="1.1" id="Слой_1" xmlns="http://www.w3.org/2000/svg" xmlns:xlink="http://www.w3.org/1999/xlink" x="0px" y="0px"
	 viewBox="0 0 15 18" style="enable-background:new 0 0 15 18;" xml:space="preserve">
<style type="text/css">
	.st0{fill:#DB393B;}
</style>
<g id="Mobile">
	<path class="st0" d="M7.495,16.77c0.226,0,0.41-0.184,0.41-0.41c0-0.226-0.184-0.41-0.41-0.41c-0.226,0-0.41,0.184-0.41,0.41l0,0
		C7.085,16.586,7.269,16.77,7.495,16.77z M7.905,1.23h-0.82c-0.226,0-0.41,0.184-0.41,0.41c0,0.226,0.184,0.41,0.41,0.41h0.82
		c0.226,0,0.41-0.184,0.41-0.41C8.315,1.414,8.131,1.23,7.905,1.23z M10.765,0h-6.54c-0.906,0-1.64,0.734-1.64,1.64l0,0v14.72
		c0,0.906,0.734,1.64,1.64,1.64h6.55c0.906,0,1.64-0.734,1.64-1.64V1.64c0-0.906-0.734-1.64-1.64-1.64C10.772,0,10.768,0,10.765,0z
		 M11.585,16.36c0,0.453-0.367,0.82-0.82,0.82h-6.54c-0.453,0-0.82-0.367-0.82-0.82v-0.82h8.18V16.36z M11.585,14.72h-8.18V3.27
		h8.18V14.72z M11.585,2.45h-8.18V1.64c0-0.453,0.367-0.82,0.82-0.82h6.55c0.453,0,0.82,0.367,0.82,0.82L11.585,2.45z"/>
</g>
</svg>
