<svg width="19" height="19" viewBox="0 0 19 19" fill="none" xmlns="http://www.w3.org/2000/svg">
    <path d="M9.33032 12.2061H10.302V13.2217H9.33032V12.2061ZM7.68481 8.29492C7.68481 7.5918 7.88338 7.02702 8.28052 6.60059C8.67765 6.1709 9.2229 5.95605 9.91626 5.95605C10.5575 5.95605 11.0702 6.13997 11.4543 6.50781C11.8417 6.8724 12.0354 7.33952 12.0354 7.90918C12.0354 8.25423 11.9638 8.53418 11.8206 8.74902C11.6806 8.96387 11.3958 9.27962 10.9661 9.69629C10.6536 9.99902 10.4501 10.2562 10.3557 10.4678C10.2646 10.6761 10.219 10.9854 10.219 11.3955H9.34985C9.34985 10.93 9.40519 10.5557 9.51587 10.2725C9.62655 9.986 9.86906 9.65885 10.2434 9.29102L10.634 8.90527C10.7512 8.7946 10.8456 8.67904 10.9172 8.55859C11.0474 8.34701 11.1125 8.12728 11.1125 7.89941C11.1125 7.5804 11.0165 7.30371 10.8245 7.06934C10.6357 6.83496 10.3215 6.71777 9.88208 6.71777C9.33846 6.71777 8.96248 6.9196 8.75415 7.32324C8.63696 7.54785 8.57023 7.87174 8.55396 8.29492H7.68481Z"
          fill="#C4C4C4"/>
    <circle cx="9.9231" cy="9.22168" r="8.5" stroke="#C4C4C4"/>
</svg>
