<svg width="31" height="31" viewBox="0 0 31 31" fill="none" xmlns="http://www.w3.org/2000/svg"><g clip-path="url(#clip0)"><path fill-rule="evenodd" clip-rule="evenodd" d="M21.9604 0.00228942C23.219 -0.0304176 24.3646 0.284907 25.1831 1.1035C25.2576 1.17796 25.3278 1.2551 25.3941 1.33476L28.9568 5.14483C29.0041 5.18707 29.0505 5.23086 29.0958 5.27622C29.9143 6.09471 30.2296 7.24034 30.1968 8.49898C30.1641 9.75545 29.786 11.1902 29.1401 12.7029C27.8466 15.7319 25.4203 19.2096 22.1847 22.4452C18.9491 25.6808 15.4714 28.1071 12.4423 29.4006C10.9297 30.0466 9.49493 30.4246 8.23846 30.4573C6.97983 30.4901 5.8342 30.1748 5.0157 29.3563C4.95263 29.2933 4.89257 29.2283 4.83545 29.1614C4.75747 29.0775 4.64146 28.953 4.46924 28.7687C3.96773 28.2321 2.99188 27.1913 1.09534 25.1753C0.282748 24.3573 -0.0303578 23.2149 0.0022971 21.9603C0.0350009 20.7038 0.413056 19.2691 1.05901 17.7565C2.35251 14.7274 4.77881 11.2499 8.01441 8.01426C11.25 4.77866 14.7276 2.35236 17.7566 1.05889C19.2692 0.412966 20.7039 0.0349397 21.9604 0.00228942ZM27.9893 6.14984L28.0303 6.19369L28.0349 6.18942C28.0609 6.21278 28.0862 6.23674 28.1108 6.26128C28.5725 6.72304 28.8307 7.44333 28.8042 8.46273C28.7776 9.48429 28.4636 10.7397 27.8589 12.1558C26.6511 14.9841 24.3416 18.3182 21.1996 21.4601C18.0576 24.6021 14.7236 26.9116 11.8952 28.1194C10.4792 28.7241 9.22378 29.0381 8.20222 29.0647C7.19284 29.091 6.47672 28.8381 6.01447 28.3848L6.01188 28.382C5.9996 28.3685 5.97898 28.346 5.94352 28.3076L5.88223 28.2414C5.49395 27.7756 5.28307 27.085 5.31194 26.1482C7.02738 25.8407 8.99758 25.0189 11.0357 23.8023C13.3152 22.4416 15.7216 20.5619 18.0114 18.2721C20.3012 15.9823 22.1809 13.5759 23.5416 11.2963C24.7573 9.25956 25.5788 7.29072 25.8868 5.57626C26.8321 5.54707 27.5246 5.75866 27.9893 6.14984ZM24.1371 2.0302L24.3414 2.24867C24.7075 2.7056 24.9087 3.37013 24.8894 4.26136L24.8746 4.26353L24.6511 4.28865L24.6498 4.29939C22.9184 4.59694 20.9225 5.42437 18.8568 6.65743C16.5772 8.01816 14.1707 9.89785 11.8809 12.1876C9.59117 14.4774 7.71149 16.8839 6.35076 19.1634C5.13358 21.2025 4.31165 23.1736 4.00448 24.8895C3.1355 24.8651 2.50475 24.6146 2.08837 24.1982C1.62658 23.7364 1.36839 23.016 1.39492 21.9966C1.42151 20.975 1.73547 19.7196 2.34017 18.3036C3.54797 15.4753 5.8575 12.1413 8.99948 8.99932C12.1415 5.85734 15.4754 3.54782 18.3037 2.34006C19.7197 1.73539 20.975 1.42146 21.9966 1.39491C22.9722 1.36956 23.6738 1.60503 24.1371 2.0302ZM24.378 5.77503C22.982 6.09798 21.3385 6.79844 19.5708 7.85362C17.4004 9.14918 15.0836 10.9551 12.866 13.1727C10.6484 15.3903 8.8425 17.7071 7.54695 19.8775C6.49176 21.6452 5.7913 23.2887 5.46835 24.6847C6.86449 24.3618 8.50798 23.6613 10.2757 22.6061C12.446 21.3105 14.7628 19.5046 16.9804 17.287C19.1979 15.0695 21.0039 12.7526 22.2994 10.5822C23.3546 8.81452 24.0551 7.17106 24.378 5.77503Z" fill="#A3A3A3"></path><path d="M5.29913 18.794C5.72773 18.2138 5.76428 17.5138 5.38077 17.2305C4.99726 16.9472 4.33891 17.1878 3.91032 17.7679C3.48172 18.3481 3.44517 19.048 3.82869 19.3314C4.2122 19.6147 4.87054 19.3741 5.29913 18.794Z" fill="#A3A3A3"></path><path d="M11.2249 11.2243C12.1423 10.3069 12.5383 9.21536 12.1094 8.78639C11.6804 8.35741 10.5889 8.7534 9.67144 9.67084C8.75399 10.5883 8.35801 11.6798 8.78698 12.1088C9.21596 12.5377 10.3074 12.1417 11.2249 11.2243Z" fill="#A3A3A3"></path><path d="M17.8041 5.87252C18.5633 5.55612 19.0093 4.89298 18.8003 4.39136C18.5912 3.88974 17.8063 3.7396 17.0471 4.056C16.2878 4.37241 15.8418 5.03555 16.0509 5.53717C16.2599 6.03878 17.0449 6.18893 17.8041 5.87252Z" fill="#A3A3A3"></path></g><defs><clipPath id="clip0"><rect width="30.1991" height="30.46" fill="white"></rect></clipPath></defs></svg>