<svg width="19" height="19" viewBox="0 0 19 19" fill="none" xmlns="http://www.w3.org/2000/svg">
    <path d="M11.0528 5.24023H8.22855C7.93732 5.24023 7.70121 5.47634 7.70121 5.76758V9.75897H7.09888C6.80764 9.75897 6.57153 9.99508 6.57153 10.2863C6.57153 10.5776 6.80764 10.8137 7.09888 10.8137H7.70121V12.0184H7.09888C6.80764 12.0184 6.57153 12.2545 6.57153 12.5457C6.57153 12.8369 6.80764 13.073 7.09888 13.073H7.70121V14.2402C7.70121 14.5315 7.93732 14.7676 8.22855 14.7676C8.51979 14.7676 8.75589 14.5315 8.75589 14.2402V13.073H11.0528C11.344 13.073 11.5801 12.8369 11.5801 12.5457C11.5801 12.2545 11.344 12.0184 11.0528 12.0184H8.75589V10.8137H11.0528C12.5894 10.8137 13.8395 9.56354 13.8395 8.02693C13.8395 6.45235 12.5569 5.24023 11.0528 5.24023ZM11.0528 9.75897H8.75589V6.29492H11.0528C12.0021 6.29492 12.7848 7.06063 12.7848 8.02697C12.7848 8.98202 12.0078 9.75897 11.0528 9.75897Z"
          fill="#C4C4C4" stroke="white" stroke-width="0.1"/>
    <path d="M9.9231 0.72168C4.96047 0.72168 0.923096 4.75906 0.923096 9.72168C0.923096 14.6843 4.96047 18.7217 9.9231 18.7217C14.8857 18.7217 18.9231 14.6843 18.9231 9.72168C18.9231 4.75906 14.8857 0.72168 9.9231 0.72168ZM9.9231 17.667C5.54203 17.667 1.97778 14.1027 1.97778 9.72168C1.97778 5.34061 5.54203 1.77637 9.9231 1.77637C14.3042 1.77637 17.8684 5.34061 17.8684 9.72168C17.8684 14.1027 14.3042 17.667 9.9231 17.667Z"
          fill="#C4C4C4" stroke="white" stroke-width="0.1"/>
</svg>
