<?xml version="1.0" encoding="utf-8"?>
<!-- Generator: Adobe Illustrator 21.1.0, SVG Export Plug-In . SVG Version: 6.00 Build 0)  -->
<svg version="1.1" id="Слой_1" xmlns="http://www.w3.org/2000/svg" xmlns:xlink="http://www.w3.org/1999/xlink" x="0px" y="0px"
	 viewBox="0 0 15 18" style="enable-background:new 0 0 15 18;" xml:space="preserve">
<style type="text/css">
	.st0{fill:#DB393B;}
</style>
<g id="Clock_1_2x.png">
	<path class="st0" d="M10.57,8.68H8.82c-0.12-0.494-0.506-0.88-1-1V3.91c0-0.188-0.152-0.34-0.34-0.34
		c-0.188,0-0.34,0.152-0.34,0.34c0,0,0,0,0,0.001v3.8c-0.724,0.2-1.148,0.95-0.948,1.674c0.2,0.724,0.95,1.148,1.674,0.948
		c0.469-0.13,0.833-0.5,0.954-0.971h1.75c0.188,0,0.34-0.152,0.34-0.34S10.758,8.68,10.57,8.68z M7.5,9.68
		C7.124,9.68,6.82,9.375,6.82,9c0-0.376,0.305-0.68,0.68-0.68c0.376,0,0.68,0.305,0.68,0.68c0,0.007,0,0.013,0,0.02
		c0,0.376-0.304,0.68-0.68,0.68h0V9.68z M7.5,1.5C3.358,1.5,0,4.858,0,9s3.358,7.5,7.5,7.5c4.134,0,7.489-3.346,7.5-7.48
		c0-4.142-3.358-7.5-7.5-7.5V1.5z M7.5,15.82c-3.767,0-6.82-3.053-6.82-6.82S3.733,2.18,7.5,2.18S14.32,5.233,14.32,9
		c0,0.007,0,0.013,0,0.02c0,3.767-3.053,6.82-6.82,6.82V15.82z"/>
</g>
</svg>
