<svg width="15" height="15" viewBox="0 0 15 15" fill="none" xmlns="http://www.w3.org/2000/svg">
<path d="M11.5907 10H10.2905C10.236 10 10.1753 9.92429 10.1753 9.82143V8.39286C10.9219 7.18286 11.3705 5.61929 11.3705 4.36786C11.3705 1.95929 9.63459 0 7.49982 0C5.36505 0 3.62914 1.95929 3.62914 4.36786C3.62914 5.61929 4.07778 7.18357 4.82505 8.39357V9.82143C4.82505 9.92429 4.76437 10 4.70982 10H3.40891C1.93346 10 0.681641 11.395 0.681641 13.02V13.8393C0.681641 14.4793 1.21891 15 1.81482 15H13.1848C13.7807 15 14.318 14.4793 14.318 13.8393V13.02C14.318 11.395 13.0655 10 11.5907 10ZM7.49982 1.42857C8.88187 1.42857 10.0062 2.74714 10.0062 4.36786C10.0062 6.18786 8.6855 8.87357 7.49982 8.87357C6.31346 8.87357 4.99278 6.18786 4.99278 4.36786C4.99278 2.74714 6.11709 1.42857 7.49982 1.42857ZM12.9544 13.5714H2.04528V13.02C2.04528 12.1836 2.6855 11.4286 3.40891 11.4286H4.70982C5.52528 11.4286 6.18869 10.7814 6.18869 9.89571V9.87714C6.59369 10.1421 7.03209 10.3029 7.49982 10.3029C7.96755 10.3029 8.40664 10.1421 8.81096 9.87714V9.89643C8.81096 10.7821 9.47437 11.4293 10.2898 11.4293H11.5907C12.3141 11.4293 12.9544 12.1843 12.9544 13.0207V13.5714Z" fill="#A3A2A1"/>
</svg>
