<svg width="19" height="19" viewBox="0 0 19 19" fill="none" xmlns="http://www.w3.org/2000/svg">
<path d="M9.5 0C4.25341 0 0 4.25341 0 9.5C0 14.7466 4.25341 19 9.5 19C14.7466 19 19 14.7466 19 9.5C19 4.25341 14.7466 0 9.5 0ZM9.5 18.1364C7.34998 18.1364 5.38823 17.3461 3.87643 16.0459C5.04018 15.0281 5.59636 14.7492 6.88145 14.1818C8.36993 13.5245 8.87646 12.3595 8.27148 10.9859C8.16266 10.7393 8.03614 10.5105 7.9027 10.2691C7.44368 9.44084 6.90952 8.50207 6.90952 6.35593C6.90952 3.81857 8.1143 3.7987 9.0712 3.78273C9.75002 3.7715 10.0817 3.65405 10.3472 3.55991C10.5247 3.49686 10.6318 3.4593 10.8274 3.4593C11.6276 3.4593 12.5098 4.24866 12.5098 6.46389C12.5098 8.69855 12.1751 9.24782 11.6651 10.1585C11.5308 10.3977 11.3857 10.6573 11.232 10.969C10.9349 11.5719 10.8745 12.1375 11.0528 12.6497C11.2817 13.306 11.8776 13.8432 12.9282 14.3398C13.7884 14.7462 14.6913 15.5407 15.1754 16.0002C13.6563 17.3263 11.6746 18.1364 9.5 18.1364ZM15.7968 15.3978C15.2808 14.9046 14.2867 14.0259 13.297 13.5578C12.4808 13.1722 12.0132 12.7818 11.8677 12.3647C11.767 12.0749 11.812 11.7437 12.0054 11.3503C12.1518 11.0537 12.29 10.8071 12.4178 10.58C12.9563 9.61789 13.3725 8.92352 13.3725 6.46345C13.3725 2.78177 11.2471 2.59523 10.8265 2.59523C10.482 2.59523 10.2665 2.67166 10.0579 2.7455C9.82991 2.82668 9.59371 2.91045 9.05609 2.91909C8.08364 2.9355 6.04545 2.96918 6.04545 6.35593C6.04545 8.72532 6.66209 9.8135 7.14702 10.6875C7.27096 10.9116 7.38841 11.1232 7.48082 11.3339C7.8932 12.2697 7.59223 12.9239 6.53255 13.392C5.19391 13.9831 4.56345 14.291 3.249 15.4483C1.77434 13.8989 0.863636 11.8076 0.863636 9.5C0.863636 4.73014 4.73014 0.863636 9.5 0.863636C14.2699 0.863636 18.1364 4.73014 18.1364 9.5C18.1364 11.783 17.2438 13.8536 15.7968 15.3978Z" fill="#2E2E2E"/>
</svg>
