<svg width="20" height="20" viewBox="0 0 20 20" fill="none" xmlns="http://www.w3.org/2000/svg">
<path d="M15.4546 13.0917H13.721C13.6483 13.0917 13.5674 12.9958 13.5674 12.8655V11.056C14.5628 9.52333 15.161 7.54281 15.161 5.95767C15.161 2.90681 12.8465 0.425049 10.0001 0.425049C7.15372 0.425049 4.83918 2.90681 4.83918 5.95767C4.83918 7.54281 5.43736 9.52424 6.43372 11.0569V12.8655C6.43372 12.9958 6.35282 13.0917 6.28009 13.0917H4.54554C2.57827 13.0917 0.90918 14.8587 0.90918 16.917V17.9548C0.90918 18.7655 1.62554 19.425 2.42009 19.425H17.5801C18.3746 19.425 19.091 18.7655 19.091 17.9548V16.917C19.091 14.8587 17.421 13.0917 15.4546 13.0917ZM10.0001 2.23457C11.8428 2.23457 13.3419 3.90476 13.3419 5.95767C13.3419 8.263 11.581 11.6649 10.0001 11.6649C8.41827 11.6649 6.65736 8.263 6.65736 5.95767C6.65736 3.90476 8.15645 2.23457 10.0001 2.23457ZM17.2728 17.6155H2.72736V16.917C2.72736 15.8576 3.581 14.9012 4.54554 14.9012H6.28009C7.36736 14.9012 8.25191 14.0815 8.25191 12.9596V12.9361C8.79191 13.2718 9.37645 13.4753 10.0001 13.4753C10.6237 13.4753 11.2092 13.2718 11.7483 12.9361V12.9605C11.7483 14.0824 12.6328 14.9021 13.7201 14.9021H15.4546C16.4192 14.9021 17.2728 15.8585 17.2728 16.918V17.6155Z" fill="#ADADAD"/>
</svg>
