<svg width="21" height="19" viewBox="0 0 21 19" fill="none" xmlns="http://www.w3.org/2000/svg">
    <path d="M16.7063 11.1056C16.444 11.1106 16.2357 11.3378 16.24 11.6133C16.2447 11.8894 16.4601 12.1085 16.7224 12.104C16.9843 12.099 17.193 11.8719 17.1882 11.5963C17.1844 11.3203 16.9686 11.1012 16.7063 11.1056ZM20.9997 12.5253L20.967 10.5291C20.949 9.42638 20.0847 8.54781 19.0368 8.56728L19.0041 6.57053L18.9714 4.57428C18.9538 3.49903 18.1294 2.64292 17.1166 2.61896L16.9871 1.63806L9.64781 2.71232L2.59741 0.861328L2.1183 2.88454L1.86452 2.88902C0.81666 2.90799 -0.017739 3.81751 0.000286643 4.92022L0.0330175 6.91696L0.164415 14.903L0.197146 16.8992C0.215172 18.0019 1.07945 18.8805 2.12732 18.861L17.3045 18.585C18.3523 18.566 19.1872 17.6565 19.1687 16.5538L19.136 14.557C20.1829 14.5371 21.0177 13.628 20.9997 12.5253ZM18.0226 4.59125L18.0274 4.86831C17.8305 4.75249 17.6147 4.67162 17.3832 4.63568L17.2499 3.62732C17.683 3.71268 18.0146 4.10904 18.0226 4.59125ZM16.1774 2.76373L16.4051 4.48543L12.1131 3.35876L16.1774 2.76373ZM3.2876 2.07086L13.2202 4.67861L2.62397 4.8713L3.2876 2.07086ZM0.948057 4.90225C0.939044 4.35114 1.35601 3.89689 1.87923 3.8869L1.63493 4.91772C1.38779 4.95866 1.1582 5.04801 0.952801 5.1793L0.948057 4.90225ZM17.2874 17.5856L2.11024 17.8621C1.58655 17.8716 1.1544 17.4323 1.14539 16.8812L0.981262 6.8985C0.97225 6.3474 1.38969 5.89263 1.91338 5.88315L17.0905 5.6071C17.6142 5.59762 18.0464 6.0369 18.0554 6.588L18.0881 8.58475L16.1907 8.61919C15.1428 8.63816 14.3084 9.54768 14.3264 10.6504L14.3592 12.6471C14.3772 13.7493 15.2415 14.6279 16.2893 14.6089L18.1863 14.5745L18.219 16.5712C18.2285 17.1213 17.8111 17.5761 17.2874 17.5856ZM19.1189 13.5581L16.2732 13.6101C15.7495 13.6195 15.3174 13.1803 15.3083 12.6292L15.2756 10.6324C15.2666 10.0813 15.684 9.62656 16.2077 9.61707L19.0534 9.56515C19.5771 9.55567 20.0093 9.99495 20.0183 10.5461L20.051 12.5423C20.06 13.0939 19.6426 13.5487 19.1189 13.5581Z"
          fill="white"/>
</svg>
