<svg width="20" height="20" viewBox="0 0 20 20" fill="none" xmlns="http://www.w3.org/2000/svg">
<path d="M2.40613 16.9515C2.32385 17.0338 2.27293 17.1479 2.27293 17.2729C2.27293 17.5242 2.47659 17.7274 2.72752 17.7274C2.97845 17.7274 3.18211 17.5242 3.18211 17.2729C3.18211 17.022 2.97845 16.8183 2.72752 16.8183C2.60205 16.8183 2.48841 16.8692 2.40613 16.9515ZM19.2677 3.96164L18.8849 4.34435L18.8813 4.34071L16.6083 6.61334L16.6033 6.60834C16.1928 7.01786 15.626 7.27149 15 7.27149C13.7458 7.27149 12.7293 6.25472 12.7293 5.00068C12.7293 4.3748 12.983 3.80846 13.3921 3.39803L12.7489 2.75487C12.1729 3.32985 11.8156 4.12254 11.8156 5.00068C11.8156 6.75924 13.2412 8.18508 15 8.18508C15.8787 8.18508 16.6715 7.82737 17.2466 7.25149L17.2511 7.25649L18.9417 5.56566C19.2836 6.82242 19.1213 8.02782 18.3662 8.80051L15.9296 11.294C15.6078 11.6231 15.1368 11.8195 14.6722 11.8195C14.6536 11.819 13.1148 11.714 11.5783 10.75L11.5742 10.7591C11.5042 10.7145 11.4256 10.6818 11.336 10.6818C11.1819 10.6818 11.0524 10.7636 10.9701 10.8809L10.9537 10.8713L4.01355 18.5587C3.68397 18.8878 3.22938 19.091 2.72752 19.091C1.72334 19.091 0.909174 18.2774 0.909174 17.2729C0.909174 16.7711 1.11283 16.3165 1.44149 15.9875L9.10265 9.07504L9.08946 9.06141C9.20766 8.97914 9.29039 8.84869 9.29039 8.6937C9.29039 8.59506 9.25266 8.50916 9.19947 8.43507L9.20129 8.43234C7.88526 6.68424 7.8389 5.38476 8.97263 4.15572L11.401 1.67129C12.017 1.04132 12.8216 0.90905 13.3889 0.90905H13.3903C13.734 0.90905 14.0881 0.959956 14.4431 1.05132L12.7443 2.74988L13.3871 3.39257L15.6601 1.11995L15.6564 1.11631L16.0556 0.71724C15.17 0.24908 14.2495 0 13.3903 0C13.3899 0 13.3894 0 13.3889 0C12.3766 0 11.4506 0.33453 10.7723 1.02904L8.3353 3.52211C6.73243 5.25158 7.15656 7.02195 8.24302 8.62461L0.799164 15.3448C0.305482 15.8384 0 16.5202 0 17.2729C0 18.7791 1.22102 20 2.72752 20C3.48077 20 4.16265 19.695 4.65633 19.2014L11.4306 11.7149C12.9721 12.5831 14.4404 12.7285 14.6691 12.7285C15.3341 12.7285 16.0424 12.4649 16.5588 11.9363L18.9954 9.44275C20.2655 8.14327 20.3028 5.95609 19.2677 3.96164Z" fill="#FF0000"/>
</svg>
