<svg width="15" height="15" viewBox="0 0 15 15" fill="none" xmlns="http://www.w3.org/2000/svg">
<g clip-path="url(#clip0)">
<path d="M9.80872 6.82575L6.49487 5.01254C6.30433 4.90829 6.07911 4.91218 5.89234 5.02284C5.70546 5.13362 5.59399 5.32932 5.59399 5.54653V9.1418C5.59399 9.35798 5.70477 9.55333 5.89039 9.66423C5.98733 9.72213 6.09479 9.7512 6.20247 9.7512C6.30112 9.7512 6.4 9.72682 6.49098 9.67784L9.80494 7.89588C10.0017 7.79003 10.1245 7.58552 10.1254 7.36202C10.1262 7.13851 10.0049 6.93309 9.80872 6.82575ZM6.47301 8.68953V6.00246L8.94973 7.35767L6.47301 8.68953Z" fill="#FF0000"/>
<path d="M14.8896 4.49787L14.8889 4.491C14.8762 4.37027 14.7498 3.29636 14.2277 2.75013C13.6243 2.10766 12.9401 2.02961 12.6111 1.99219C12.5839 1.9891 12.5589 1.98624 12.5366 1.98326L12.5104 1.98051C10.5274 1.83632 7.53259 1.81664 7.5026 1.81652L7.49997 1.81641L7.49734 1.81652C7.46735 1.81664 4.47256 1.83632 2.47169 1.98051L2.44525 1.98326C2.42396 1.98612 2.4005 1.98875 2.37498 1.99173C2.04974 2.02927 1.37294 2.10743 0.767781 2.77313C0.270537 3.31352 0.1268 4.36443 0.112037 4.48254L0.110321 4.49787C0.105857 4.54811 0 5.74413 0 6.94485V8.06728C0 9.268 0.105857 10.464 0.110321 10.5144L0.111122 10.5219C0.123825 10.6407 0.250167 11.6949 0.769841 12.2414C1.33724 12.8624 2.05466 12.9445 2.44056 12.9887C2.50155 12.9957 2.55408 13.0016 2.5899 13.0079L2.62458 13.0127C3.76955 13.1217 7.35944 13.1754 7.51164 13.1775L7.51622 13.1776L7.5208 13.1775C7.55078 13.1774 10.5455 13.1577 12.5285 13.0135L12.5547 13.0108C12.5798 13.0075 12.6079 13.0045 12.6388 13.0013C12.9622 12.967 13.6354 12.8957 14.2322 12.239C14.7294 11.6985 14.8733 10.6476 14.8879 10.5296L14.8896 10.5143C14.8941 10.4639 15.0001 9.268 15.0001 8.06728V6.94485C14.9999 5.74413 14.8941 4.54823 14.8896 4.49787ZM14.1209 8.06728C14.1209 9.17862 14.0239 10.3231 14.0147 10.4282C13.9774 10.7176 13.8258 11.3825 13.5835 11.6459C13.21 12.0568 12.8263 12.0975 12.5461 12.1272C12.5122 12.1307 12.4809 12.1342 12.4525 12.1377C10.5345 12.2764 7.65275 12.2977 7.52 12.2985C7.37111 12.2963 3.83376 12.2422 2.72368 12.1391C2.66681 12.1298 2.60535 12.1227 2.54058 12.1154C2.21202 12.0778 1.76227 12.0263 1.41643 11.6459L1.4083 11.6372C1.17027 11.3892 1.02298 10.7674 0.985561 10.4316C0.97858 10.3522 0.879017 9.19418 0.879017 8.06728V6.94485C0.879017 5.83477 0.975834 4.69151 0.985218 4.58427C1.02974 4.24335 1.18423 3.61874 1.41643 3.36628C1.80141 2.94285 2.20733 2.89593 2.47581 2.86491C2.50144 2.86194 2.52536 2.85919 2.54744 2.85633C4.49339 2.71694 7.39583 2.69623 7.49997 2.69543C7.60411 2.69611 10.5055 2.71694 12.4342 2.85633C12.4579 2.85931 12.4837 2.86228 12.5115 2.86549C12.7877 2.89696 13.2051 2.94456 13.5881 3.35312L13.5916 3.3569C13.8297 3.60489 13.977 4.23752 14.0144 4.58004C14.021 4.655 14.1209 5.81554 14.1209 6.94485V8.06728Z" fill="#FF0000"/>
</g>
<defs>
<clipPath id="clip0">
<rect width="15" height="15" fill="white"/>
</clipPath>
</defs>
</svg>
